<?xml version="1.0" encoding="UTF-8"?>
<svg version="1.1" xmlns="http://www.w3.org/2000/svg" width="256" height="256">
<path d="M0 0 C24.37185188 20.44661633 40.33207467 48.36749049 43.859375 80.19335938 C46.53364802 111.12083158 39.20326367 142.66774836 19.8203125 167.3828125 C18.26568414 169.15836174 16.67949574 170.90655246 15.0703125 172.6328125 C14.57047852 173.1788916 14.07064453 173.7249707 13.55566406 174.28759766 C-8.00761606 197.66178086 -37.45668108 211.56402721 -69.328125 212.91796875 C-101.87828037 213.72209874 -132.63928235 203.53447942 -156.6875 181.1875 C-180.10069159 158.82688153 -193.46164592 128.87420645 -194.28149414 96.4519043 C-194.52586122 66.74972893 -185.47835913 36.67651132 -164.9296875 14.6328125 C-164.42985352 14.0867334 -163.93001953 13.5406543 -163.41503906 12.97802734 C-121.21128497 -32.77003485 -49.13895251 -38.42746422 0 0 Z " fill="#000000" transform="translate(202.9296875,36.3671875)"/>
<path d="M0 0 C1.14162598 0.00418945 2.28325195 0.00837891 3.45947266 0.01269531 C18.93855288 0.21928818 33.16288279 3.90926491 47.25 10.3125 C47.25 10.6425 47.25 10.9725 47.25 11.3125 C27.12 11.3125 6.99 11.3125 -13.75 11.3125 C-13.75 16.2625 -13.75 21.2125 -13.75 26.3125 C-12.18597946 26.27919083 -12.18597946 26.27919083 -10.59036255 26.24520874 C-0.73405737 26.04194214 9.12181934 25.89232931 18.97974968 25.79437828 C24.04728843 25.74232428 29.11312715 25.67179964 34.1796875 25.55810547 C39.07521215 25.44894475 43.96910869 25.38955525 48.86575699 25.36372757 C50.72778062 25.34533843 52.58972127 25.30942546 54.45104599 25.25519943 C69.74744864 24.8275474 69.74744864 24.8275474 74.64898682 28.49981689 C78.10077838 31.85731681 80.717454 34.71486199 82.25 39.3125 C78.91049147 40.98225427 75.15709514 40.44133006 71.48583984 40.42602539 C70.57846573 40.42617142 69.67109161 40.42631744 68.73622131 40.4264679 C65.72776932 40.42576951 62.71937872 40.41798054 59.7109375 40.41015625 C57.62871332 40.40829181 55.54648869 40.40686803 53.46426392 40.40586853 C47.97663162 40.40204541 42.48902567 40.39221686 37.00140381 40.38116455 C31.40458533 40.37094602 25.80776261 40.36636996 20.2109375 40.36132812 C9.22394674 40.35059443 -1.76302444 40.33352045 -12.75 40.3125 C-12.75 45.2625 -12.75 50.2125 -12.75 55.3125 C22.56 55.3125 57.87 55.3125 94.25 55.3125 C99.25 66.3125 99.25 66.3125 99.25 69.3125 C96.87443706 70.50028147 95.44575841 70.43574578 92.79550171 70.43275452 C91.85878128 70.43412918 90.92206085 70.43550385 89.95695496 70.43692017 C88.92621353 70.43332489 87.89547211 70.42972961 86.83349609 70.42602539 C85.75055771 70.42617142 84.66761932 70.42631744 83.55186462 70.4264679 C79.95903547 70.42576915 76.36625764 70.41797852 72.7734375 70.41015625 C70.28764881 70.40829193 67.80185975 70.4068681 65.31607056 70.40586853 C59.43353603 70.40243565 53.55102057 70.39454773 47.66849387 70.38451904 C40.31545754 70.37225492 32.96241893 70.36687626 25.609375 70.36132812 C12.48957363 70.35059268 -0.63021135 70.33351751 -13.75 70.3125 C-13.75 74.9325 -13.75 79.5525 -13.75 84.3125 C25.19 84.3125 64.13 84.3125 104.25 84.3125 C106.25 92.3125 106.25 92.3125 106.25 99.3125 C66.65 99.3125 27.05 99.3125 -13.75 99.3125 C-13.75 103.9325 -13.75 108.5525 -13.75 113.3125 C25.85 113.3125 65.45 113.3125 106.25 113.3125 C105.25 126.3125 105.25 126.3125 104.25 128.3125 C35.61 128.3125 -33.03 128.3125 -103.75 128.3125 C-105.75 119.3125 -105.75 119.3125 -105.75 113.3125 C-95.355 112.8175 -95.355 112.8175 -84.75 112.3125 C-85.74 110.6625 -86.73 109.0125 -87.75 107.3125 C-87.75 106.3225 -87.75 105.3325 -87.75 104.3125 C-88.74 104.8075 -88.74 104.8075 -89.75 105.3125 C-89.75 106.3025 -89.75 107.2925 -89.75 108.3125 C-91.73 108.3125 -93.71 108.3125 -95.75 108.3125 C-96.245 105.8375 -96.245 105.8375 -96.75 103.3125 C-95.76 103.3125 -94.77 103.3125 -93.75 103.3125 C-93.75 102.3225 -93.75 101.3325 -93.75 100.3125 C-93.09 100.3125 -92.43 100.3125 -91.75 100.3125 C-91.75 101.3025 -91.75 102.2925 -91.75 103.3125 C-90.265 102.8175 -90.265 102.8175 -88.75 102.3125 C-89.41 101.9825 -90.07 101.6525 -90.75 101.3125 C-89.63460427 91.44041545 -87.11433324 82.59651882 -83.75 73.3125 C-84.74 73.3125 -85.73 73.3125 -86.75 73.3125 C-86.79898438 73.98796875 -86.84796875 74.6634375 -86.8984375 75.359375 C-86.97320312 76.25140625 -87.04796875 77.1434375 -87.125 78.0625 C-87.19460937 78.94421875 -87.26421875 79.8259375 -87.3359375 80.734375 C-87.74850055 83.30316382 -88.46160957 85.07091015 -89.75 87.3125 C-91.4 87.3125 -93.05 87.3125 -94.75 87.3125 C-95.41 85.6625 -96.07 84.0125 -96.75 82.3125 C-95.76 82.3125 -94.77 82.3125 -93.75 82.3125 C-93.62625 81.508125 -93.5025 80.70375 -93.375 79.875 C-92.63445837 75.65391271 -91.70598874 71.48914983 -90.75 67.3125 C-92.07 66.9825 -93.39 66.6525 -94.75 66.3125 C-96.05932412 62.47181593 -96.21970897 60.41599436 -94.609375 56.6328125 C-79.50733695 30.02782023 -56.87843481 12.16981387 -27.76171875 3.3203125 C-18.49723958 0.87699839 -9.57411663 -0.04817522 0 0 Z " fill="#6698D0" transform="translate(127.75,21.6875)"/>
<path d="M0 0 C0.65118225 -0.00085442 1.30236449 -0.00170885 1.97327954 -0.00258917 C4.1350523 -0.00422411 6.29674585 0.00124456 8.45851135 0.00672913 C10.0161743 0.00701145 11.57383738 0.00685237 13.13150024 0.00628662 C17.34583909 0.00600042 21.56014932 0.01186845 25.77448153 0.01886058 C30.18405432 0.02512368 34.5936278 0.02570025 39.00320435 0.02688599 C47.34697943 0.02999059 55.69074137 0.03819223 64.03451067 0.04823548 C73.5363042 0.05942367 83.03809837 0.06491388 92.53989685 0.06993091 C112.07991447 0.08037558 131.61991986 0.09795814 151.15992737 0.12025452 C151.15992737 5.22136664 147.12890263 8.20531597 143.66236877 11.69252014 C119.81633937 34.35283537 91.53902154 42.0036443 59.25660706 41.26087952 C53.01797096 40.97757343 47.16920376 39.83612948 41.15992737 38.12025452 C40.16863831 37.85341858 39.17734924 37.58658264 38.15602112 37.31166077 C18.3434947 31.3758173 -2.58157754 18.75856349 -13.84007263 1.12025452 C-9.17984977 0.37327681 -4.71778356 -0.00375321 0 0 Z " fill="#960001" transform="translate(58.84007263183594,192.87974548339844)"/>
<path d="M0 0 C69.96 0 139.92 0 212 0 C211 13 211 13 210 15 C141.36 15 72.72 15 2 15 C0 6 0 6 0 0 Z " fill="#F2F1F2" transform="translate(22,135)"/>
<path d="M0 0 C66 0 132 0 200 0 C197 9 197 9 194 15 C131.96 15 69.92 15 6 15 C0 2 0 2 0 0 Z " fill="#EEEDED" transform="translate(28,164)"/>
<path d="M0 0 C0.77138587 0.00291284 1.54277174 0.00582568 2.33753294 0.00882679 C3.15101428 0.00797237 3.96449563 0.00711794 4.80262792 0.00623763 C7.54963126 0.00458033 10.29657458 0.01010824 13.04357237 0.01555592 C15.00428606 0.01583776 16.96499985 0.01568011 18.92571348 0.01511341 C24.26640219 0.01482533 29.60706866 0.02072379 34.94775218 0.02768737 C40.52249201 0.03391913 46.0972323 0.03452457 51.67197508 0.03571278 C62.23652976 0.03882662 72.80107416 0.04704072 83.36562431 0.05706227 C95.38960115 0.06822176 107.41357846 0.07373344 119.43755919 0.0787577 C144.17920146 0.08922329 168.92083458 0.10682376 193.66246885 0.12908131 C193.37819468 1.71375859 193.08472067 3.29678701 192.78746885 4.87908131 C192.54383604 6.20165943 192.54383604 6.20165943 192.29528135 7.55095631 C191.66246885 10.12908131 191.66246885 10.12908131 189.66246885 14.12908131 C125.31246885 14.12908131 60.96246885 14.12908131 -5.33753115 14.12908131 C-7.60701775 8.45536482 -7.38875939 6.86305351 -6.33753115 1.12908131 C-4.59361116 -0.61483868 -2.32390817 0.00665579 0 0 Z " fill="#CD001C" transform="translate(38.33753114938736,149.8709186911583)"/>
<path d="M0 0 C60.06 0 120.12 0 182 0 C180.68 2.64 179.36 5.28 178 8 C177.13342522 9.95541466 177.13342522 9.95541466 176.24934387 11.95033264 C174.2685695 14.5739686 173.14741132 14.97105798 169.8704586 15.61443901 C165.56642589 15.86861465 161.31882886 15.86622025 157.01049805 15.79467773 C155.35461003 15.7927027 153.69871588 15.79381256 152.04283142 15.79777527 C147.55099769 15.79978377 143.06047239 15.7586305 138.56894279 15.70975757 C133.87381357 15.66599815 129.17865434 15.66188645 124.48335266 15.65357971 C115.59382206 15.63182282 106.70489407 15.57437969 97.81562883 15.50413328 C87.6948717 15.42589129 77.57408579 15.38740371 67.45310152 15.35226524 C46.63506467 15.27909708 25.81757029 15.15597261 5 15 C5.66 14.34 6.32 13.68 7 13 C6.6814823 10.89179203 6.6814823 10.89179203 6 9 C5.01 9 4.02 9 3 9 C2.8046875 6.94921875 2.609375 4.8984375 2.4140625 2.84765625 C2.27742188 2.23792969 2.14078125 1.62820312 2 1 C1.34 0.67 0.68 0.34 0 0 Z " fill="#B60111" transform="translate(39,179)"/>
<path d="M0 0 C0.65118225 -0.00085442 1.30236449 -0.00170885 1.97327954 -0.00258917 C4.1350523 -0.00422411 6.29674585 0.00124456 8.45851135 0.00672913 C10.0161743 0.00701145 11.57383738 0.00685237 13.13150024 0.00628662 C17.34583909 0.00600042 21.56014932 0.01186845 25.77448153 0.01886058 C30.18405432 0.02512368 34.5936278 0.02570025 39.00320435 0.02688599 C47.34697943 0.02999059 55.69074137 0.03819223 64.03451067 0.04823548 C73.5363042 0.05942367 83.03809837 0.06491388 92.53989685 0.06993091 C112.07991447 0.08037558 131.61991986 0.09795814 151.15992737 0.12025452 C151.15992737 4.21885887 149.54366182 5.22821084 146.78492737 8.18275452 C145.56676331 9.49953186 145.56676331 9.49953186 144.32398987 10.84291077 C140.2711703 15.10788154 140.2711703 15.10788154 137.72130489 15.39148998 C136.68768102 15.40133576 135.65405714 15.41118155 134.58911133 15.42132568 C132.81228218 15.44495934 132.81228218 15.44495934 130.9995575 15.46907043 C129.69308258 15.47601929 128.38660767 15.48296814 127.0405426 15.49012756 C125.65584558 15.50429235 124.27115606 15.51920804 122.88647461 15.53482056 C118.33055372 15.58211452 113.77461373 15.6077621 109.21852112 15.63197327 C107.64927176 15.6413809 106.08002292 15.65087534 104.51077461 15.6604557 C97.98003233 15.69896609 91.44930305 15.73217374 84.91847134 15.75082684 C75.5661756 15.77760353 66.21526751 15.83505212 56.86347431 15.9365918 C50.28499892 16.00556788 43.70689132 16.03980424 37.12806278 16.04839164 C33.20083216 16.0543842 29.275028 16.07521943 25.3481884 16.13295555 C21.64822556 16.18652933 17.95057581 16.19679019 14.25031471 16.17481041 C12.25632944 16.17375889 10.26247339 16.21718591 8.26899719 16.26225281 C1.635493 16.17818469 -2.16845991 15.57924487 -7.02914429 10.86691284 C-9.70633801 7.81692747 -11.82497052 4.63894446 -13.84007263 1.12025452 C-9.17984977 0.37327681 -4.71778356 -0.00375321 0 0 Z " fill="#E4E3E4" transform="translate(58.84007263183594,192.87974548339844)"/>
<path d="M0 0 C38.94 0 77.88 0 118 0 C120 8 120 8 120 15 C80.4 15 40.8 15 0 15 C0 10.05 0 5.1 0 0 Z " fill="#F5F3F4" transform="translate(114,106)"/>
<path d="M0 0 C35.64 0 71.28 0 108 0 C113 11 113 11 113 14 C110.62443706 15.18778147 109.19575841 15.12324578 106.54550171 15.12025452 C105.60878128 15.12162918 104.67206085 15.12300385 103.70695496 15.12442017 C102.67621353 15.12082489 101.64547211 15.11722961 100.58349609 15.11352539 C99.50055771 15.11367142 98.41761932 15.11381744 97.30186462 15.1139679 C93.70903547 15.11326915 90.11625764 15.10547852 86.5234375 15.09765625 C84.03764881 15.09579193 81.55185975 15.0943681 79.06607056 15.09336853 C73.18353603 15.08993565 67.30102057 15.08204773 61.41849387 15.07201904 C54.06545754 15.05975492 46.71241893 15.05437626 39.359375 15.04882812 C26.23957363 15.03809268 13.11978865 15.02101751 0 15 C0 10.05 0 5.1 0 0 Z " fill="#F3F1F2" transform="translate(114,77)"/>
<path d="M0 0 C14.84648004 -0.02311972 29.69295627 -0.0409796 44.53945065 -0.05181217 C51.43247527 -0.05697494 58.32548853 -0.06401728 65.21850586 -0.07543945 C71.86446165 -0.086447 78.51040869 -0.09227622 85.15637398 -0.09487724 C87.69822946 -0.09673201 90.24008426 -0.1003536 92.78193474 -0.10573006 C96.32851462 -0.11293667 99.8750449 -0.1139911 103.42163086 -0.11352539 C105.01521423 -0.1189183 105.01521423 -0.1189183 106.64099121 -0.12442017 C108.08187355 -0.12235817 108.08187355 -0.12235817 109.55186462 -0.12025452 C110.39161803 -0.12117631 111.23137144 -0.1220981 112.09657192 -0.12304783 C114 0 114 0 115 1 C115.09879565 2.810285 115.12971514 4.62452727 115.125 6.4375 C115.12886719 7.92056641 115.12886719 7.92056641 115.1328125 9.43359375 C115 12 115 12 114 14 C76.38 14 38.76 14 0 14 C0 9.38 0 4.76 0 0 Z " fill="#D90025" transform="translate(114,121)"/>
<path d="M0 0 C14.45532868 -0.02311997 28.91065299 -0.04091331 43.36599636 -0.05181217 C50.07741868 -0.05697489 56.78882932 -0.06401713 63.50024414 -0.07543945 C69.97113736 -0.08626565 76.44201842 -0.09227626 82.91292 -0.09487724 C85.38778945 -0.09673198 87.8626582 -0.1003535 90.33752251 -0.10573006 C93.79070373 -0.11293693 97.24383401 -0.11399109 100.69702148 -0.11352539 C101.73135818 -0.11712067 102.76569489 -0.12071594 103.83137512 -0.12442017 C104.76672089 -0.1230455 105.70206665 -0.12167084 106.66575623 -0.12025452 C107.4833866 -0.12117631 108.30101698 -0.1220981 109.14342403 -0.12304783 C111 0 111 0 112 1 C112.495 7.435 112.495 7.435 113 14 C75.71 14 38.42 14 0 14 C0 9.38 0 4.76 0 0 Z " fill="#DB0025" transform="translate(114,92)"/>
<path d="M0 0 C11.76123428 -0.09271823 23.52238148 -0.16377447 35.28390694 -0.20724869 C40.74539228 -0.22811515 46.20662741 -0.25641599 51.66796875 -0.30175781 C56.93939546 -0.34524856 62.21058163 -0.36914419 67.48217392 -0.37950897 C69.49241802 -0.3868945 71.5026491 -0.40131675 73.51279068 -0.42292023 C76.3305929 -0.4519969 79.1474037 -0.45595419 81.96533203 -0.45410156 C82.79467758 -0.46848267 83.62402313 -0.48286377 84.47850037 -0.49768066 C89.78775348 -0.45995951 92.78469127 0.48355742 97 4 C98.8984375 6.54296875 98.8984375 6.54296875 100.375 9.1875 C100.87773437 10.06792969 101.38046875 10.94835937 101.8984375 11.85546875 C103 14 103 14 103 15 C69.01 15 35.02 15 0 15 C0 10.05 0 5.1 0 0 Z " fill="#D80021" transform="translate(115,62)"/>
<path d="M0 0 C-3.47092301 2.31394867 -6.68406295 2.87245568 -10.6875 3.6875 C-24.35507537 6.71400668 -36.94792739 12.30623583 -48 21 C-48.33 21.66 -48.66 22.32 -49 23 C-46.69 22.01 -44.38 21.02 -42 20 C-41.34 20.66 -40.68 21.32 -40 22 C-40.66 22.45375 -41.32 22.9075 -42 23.375 C-42.66 23.91125 -43.32 24.4475 -44 25 C-44 25.66 -44 26.32 -44 27 C-39.74268432 27.40749675 -39.74268432 27.40749675 -36.125 25.5 C-35.75375 25.005 -35.3825 24.51 -35 24 C-35.309375 23.38125 -35.61875 22.7625 -35.9375 22.125 C-36.625 20.75 -37.3125 19.375 -38 18 C-36.68 18 -35.36 18 -34 18 C-33.67 17.34 -33.34 16.68 -33 16 C-31.68 16.66 -30.36 17.32 -29 18 C-29 18.66 -29 19.32 -29 20 C-26.69 19.67 -24.38 19.34 -22 19 C-26.33333333 23.33333333 -30.66666667 27.66666667 -35 32 C-34.34 32.66 -33.68 33.32 -33 34 C-33.33 34.99 -33.66 35.98 -34 37 C-34.94875 37.268125 -35.8975 37.53625 -36.875 37.8125 C-40.28111739 38.73798671 -40.28111739 38.73798671 -41.875 42.125 C-42.24625 43.07375 -42.6175 44.0225 -43 45 C-43.66 45 -44.32 45 -45 45 C-45 46.32 -45 47.64 -45 49 C-45.99 49.33 -46.98 49.66 -48 50 C-47.67 50.99 -47.34 51.98 -47 53 C-47.495 53.99 -47.495 53.99 -48 55 C-47.01 55.495 -47.01 55.495 -46 56 C-46.20496094 56.56847656 -46.40992188 57.13695312 -46.62109375 57.72265625 C-48.29092669 62.5084454 -49.46376936 66.95943201 -50 72 C-50.33 72 -50.66 72 -51 72 C-51.33 70.35 -51.66 68.7 -52 67 C-52.33 67 -52.66 67 -53 67 C-52.67 64.69 -52.34 62.38 -52 60 C-52.99 60 -53.98 60 -55 60 C-55.33 59.34 -55.66 58.68 -56 58 C-56.33 58.66 -56.66 59.32 -57 60 C-57.99 60 -58.98 60 -60 60 C-59.67 61.98 -59.34 63.96 -59 66 C-62.3 65.67 -65.6 65.34 -69 65 C-69 63.68 -69 62.36 -69 61 C-70.32 60.67 -71.64 60.34 -73 60 C-73.33 60.66 -73.66 61.32 -74 62 C-74 61.01 -74 60.02 -74 59 C-75.65 58.67 -77.3 58.34 -79 58 C-79.33 58.66 -79.66 59.32 -80 60 C-80.66 60 -81.32 60 -82 60 C-75.75254614 39.32605849 -56.48157578 22.04260897 -38.1015625 11.76171875 C-29.09165521 6.95813708 -19.83049217 3.68838577 -10 1 C-9.2575 0.79375 -8.515 0.5875 -7.75 0.375 C-5.16432614 -0.17907297 -2.6330763 -0.05984264 0 0 Z " fill="#436CB5" transform="translate(114,23)"/>
<path d="M0 0 C10.51828727 -0.23238603 21.03595751 -0.40972506 31.55629539 -0.51812172 C36.44226551 -0.57016638 41.32647116 -0.6406718 46.21142578 -0.75439453 C50.93189258 -0.86359176 55.65067009 -0.92295175 60.37230301 -0.94877243 C62.16735035 -0.96715534 63.96231204 -1.00305626 65.75663376 -1.05730057 C80.49651924 -1.48490761 80.49651924 -1.48490761 85.35870361 2.18731689 C88.80992766 5.54515533 91.46673072 8.40019216 93 13 C62.31 13 31.62 13 0 13 C0 8.71 0 4.42 0 0 Z " fill="#EFEFF0" transform="translate(114,48)"/>
<path d="M0 0 C7.97244429 -0.20475371 15.94278682 -0.36923753 23.91716957 -0.46630955 C27.62156808 -0.51294103 31.32404888 -0.5759913 35.02734375 -0.67895508 C64.72089309 -1.48283551 64.72089309 -1.48283551 74.48974609 6.56274414 C75.31812988 7.36703857 76.14651367 8.17133301 77 9 C78.10531898 9.91949824 79.21686391 10.83156326 80.33447266 11.73608398 C81.21409668 12.48317627 82.0937207 13.23026855 83 14 C83 14.33 83 14.66 83 15 C55.61 15 28.22 15 0 15 C0 10.05 0 5.1 0 0 Z " fill="#CF071C" transform="translate(114,33)"/>
<path d="M0 0 C15.691185 0.14141994 29.9908728 3.75646029 44.27880859 10.25097656 C44.27880859 10.58097656 44.27880859 10.91097656 44.27880859 11.25097656 C24.14880859 11.25097656 4.01880859 11.25097656 -16.72119141 11.25097656 C-16.72119141 15.21097656 -16.72119141 19.17097656 -16.72119141 23.25097656 C-17.21619141 21.76597656 -17.21619141 21.76597656 -17.72119141 20.25097656 C-19.02056641 20.12722656 -20.31994141 20.00347656 -21.65869141 19.87597656 C-23.87353516 19.66503906 -23.87353516 19.66503906 -25.72119141 19.25097656 C-26.21619141 18.26097656 -26.21619141 18.26097656 -26.72119141 17.25097656 C-27.05119141 17.91097656 -27.38119141 18.57097656 -27.72119141 19.25097656 C-33.69324904 21.58786868 -39.37184629 21.45764602 -45.72119141 21.25097656 C-45.72119141 20.59097656 -45.72119141 19.93097656 -45.72119141 19.25097656 C-48.32701512 18.32032524 -49.36317364 18.10180249 -51.97119141 19.18847656 C-52.54869141 19.53910156 -53.12619141 19.88972656 -53.72119141 20.25097656 C-52.93001237 22.2508119 -52.93001237 22.2508119 -51.72119141 24.25097656 C-50.73119141 24.58097656 -49.74119141 24.91097656 -48.72119141 25.25097656 C-53.89042218 29.31251502 -53.89042218 29.31251502 -58.09619141 29.00097656 C-58.96244141 28.75347656 -59.82869141 28.50597656 -60.72119141 28.25097656 C-61.05119141 27.26097656 -61.38119141 26.27097656 -61.72119141 25.25097656 C-60.40119141 24.59097656 -59.08119141 23.93097656 -57.72119141 23.25097656 C-58.05119141 22.92097656 -58.38119141 22.59097656 -58.72119141 22.25097656 C-61.36119141 23.24097656 -64.00119141 24.23097656 -66.72119141 25.25097656 C-65.22037028 21.06944349 -62.27077857 19.21050772 -58.65869141 16.93847656 C-58.0416333 16.54893799 -57.4245752 16.15939941 -56.78881836 15.75805664 C-45.29017438 8.74361144 -33.06444333 4.70874869 -19.93994141 1.97753906 C-13.22209876 0.46113283 -7.31933959 0.0019876 0 0 Z " fill="#294D9C" transform="translate(130.72119140625,21.7490234375)"/>
<path d="M0 0 C31.68 0 63.36 0 96 0 C78.34508547 13.2411859 51.51306506 14.40323916 30.3828125 11.46875 C19.72354662 9.4299715 9.55840578 6.14683388 0 1 C0 0.67 0 0.34 0 0 Z " fill="#CAC9C9" transform="translate(80,222)"/>
<path d="M0 0 C0.61875 0.928125 0.61875 0.928125 1.25 1.875 C3.07610938 4.09241854 4.43617863 4.82403235 7 6 C4.81395349 16.46511628 4.81395349 16.46511628 3 21 C2.34 21.33 1.68 21.66 1 22 C2.63473516 25.12474627 2.63473516 25.12474627 5.125 25.6875 C5.74375 25.790625 6.3625 25.89375 7 26 C7.04898438 25.40832031 7.09796875 24.81664063 7.1484375 24.20703125 C7.56456867 19.80895528 8.04965595 16.03071103 10 12 C10.99 12 11.98 12 13 12 C12.54909854 15.51703137 11.79912505 18.73068966 10.625 22.0625 C8.58882261 27.92027142 7.31891257 33.94796858 6 40 C6.99 40.33 7.98 40.66 9 41 C7.02 41.495 7.02 41.495 5 42 C5 41.01 5 40.02 5 39 C4.34 39 3.68 39 3 39 C3 39.99 3 40.98 3 42 C2.01 42.495 2.01 42.495 1 43 C1 44.32 1 45.64 1 47 C3.475 46.505 3.475 46.505 6 46 C6.33 45.01 6.66 44.02 7 43 C7.66 43 8.32 43 9 43 C10.32 45.97 11.64 48.94 13 52 C5.74 52 -1.52 52 -9 52 C-9.37202364 34.01885733 -8.21702132 16.43404265 0 0 Z " fill="#1A3279" transform="translate(31,83)"/>
<path d="M0 0 C-3.47092301 2.31394867 -6.68406295 2.87245568 -10.6875 3.6875 C-24.35507537 6.71400668 -36.94792739 12.30623583 -48 21 C-48.33 21.66 -48.66 22.32 -49 23 C-46.69 22.01 -44.38 21.02 -42 20 C-41.34 20.66 -40.68 21.32 -40 22 C-40.66 22.66 -41.32 23.32 -42 24 C-42.99 24 -43.98 24 -45 24 C-45.33 25.32 -45.66 26.64 -46 28 C-46.99 28 -47.98 28 -49 28 C-49.268125 28.598125 -49.53625 29.19625 -49.8125 29.8125 C-51.00987475 32.01819033 -52.04478984 33.43583187 -54 35 C-54.99 35 -55.98 35 -57 35 C-57 35.99 -57 36.98 -57 38 C-57.99 38 -58.98 38 -60 38 C-60.12375 38.8353125 -60.12375 38.8353125 -60.25 39.6875 C-61.23895541 42.73677919 -62.84757466 44.65189963 -65 47 C-65.66 47 -66.32 47 -67 47 C-68.70790088 48.20747941 -68.70790088 48.20747941 -70 50 C-70 51.32 -70 52.64 -70 54 C-68.515 53.505 -68.515 53.505 -67 53 C-66.01 53 -65.02 53 -64 53 C-62.34347593 51.34186393 -62.34347593 51.34186393 -60.875 49.1875 C-60.35679688 48.47980469 -59.83859375 47.77210937 -59.3046875 47.04296875 C-57.84408541 44.93907966 -57.84408541 44.93907966 -57 42 C-55.515 42.495 -55.515 42.495 -54 43 C-55.64178265 47.77609498 -58.26546702 51.79382904 -61 56 C-60.34 56 -59.68 56 -59 56 C-59 56.99 -59 57.98 -59 59 C-59.66 59 -60.32 59 -61 59 C-60.67 59.598125 -60.34 60.19625 -60 60.8125 C-59 63 -59 63 -59 66 C-62.3 65.67 -65.6 65.34 -69 65 C-69 63.68 -69 62.36 -69 61 C-70.32 60.67 -71.64 60.34 -73 60 C-73.33 60.66 -73.66 61.32 -74 62 C-74 61.01 -74 60.02 -74 59 C-75.65 58.67 -77.3 58.34 -79 58 C-79.33 58.66 -79.66 59.32 -80 60 C-80.66 60 -81.32 60 -82 60 C-75.75254614 39.32605849 -56.48157578 22.04260897 -38.1015625 11.76171875 C-29.09165521 6.95813708 -19.83049217 3.68838577 -10 1 C-9.2575 0.79375 -8.515 0.5875 -7.75 0.375 C-5.16432614 -0.17907297 -2.6330763 -0.05984264 0 0 Z " fill="#1D3575" transform="translate(114,23)"/>
<path d="M0 0 C15.691185 0.14141994 29.9908728 3.75646029 44.27880859 10.25097656 C44.27880859 10.58097656 44.27880859 10.91097656 44.27880859 11.25097656 C24.14880859 11.25097656 4.01880859 11.25097656 -16.72119141 11.25097656 C-16.72119141 -3.57802053 -12.71994626 0.00345416 0 0 Z " fill="#D7D7D7" transform="translate(130.72119140625,21.7490234375)"/>
<path d="M0 0 C7.26 0 14.52 0 22 0 C22 0.33 22 0.66 22 1 C17.05 1 12.1 1 7 1 C7.33 5.29 7.66 9.58 8 14 C73.01 14 138.02 14 205 14 C205 11.36 205 8.72 205 6 C205.33 4.35 205.66 2.7 206 1 C200.72 1 195.44 1 190 1 C190 0.67 190 0.34 190 0 C197.26 0 204.52 0 212 0 C211.125 12.75 211.125 12.75 210 15 C141.36 15 72.72 15 2 15 C0 6 0 6 0 0 Z " fill="#EBBAC0" transform="translate(22,135)"/>
<path d="M0 0 C26.63859404 -1.75767849 26.63859404 -1.75767849 37.265625 6.54296875 C38.16796875 7.35378906 39.0703125 8.16460937 40 9 C41.1161262 9.9379728 42.23588539 10.87164092 43.359375 11.80078125 C44.66648437 12.88939453 44.66648437 12.88939453 46 14 C39.08176721 17.4591164 26.43103996 15.22622325 19 14 C14.70031049 11.97744869 12.20248485 9.42112839 9 6 C6.09183126 4.14372208 3.08160686 2.54824692 0 1 C0 0.67 0 0.34 0 0 Z " fill="#BC0003" transform="translate(151,33)"/>
<path d="M0 0 C0.65118225 -0.00085442 1.30236449 -0.00170885 1.97327954 -0.00258917 C4.1350523 -0.00422411 6.29674585 0.00124456 8.45851135 0.00672913 C10.0161743 0.00701145 11.57383738 0.00685237 13.13150024 0.00628662 C17.34583909 0.00600042 21.56014932 0.01186845 25.77448153 0.01886058 C30.18405432 0.02512368 34.5936278 0.02570025 39.00320435 0.02688599 C47.34697943 0.02999059 55.69074137 0.03819223 64.03451067 0.04823548 C73.5363042 0.05942367 83.03809837 0.06491388 92.53989685 0.06993091 C112.07991447 0.08037558 131.61991986 0.09795814 151.15992737 0.12025452 C151.15992737 4.21885887 149.54366182 5.22821084 146.78492737 8.18275452 C145.56676331 9.49953186 145.56676331 9.49953186 144.32398987 10.84291077 C140.26467367 15.11471824 140.26467367 15.11471824 136.46461487 15.31556702 C134.98792629 15.30226352 133.51130378 15.27840286 132.03492737 15.24525452 C131.28082581 15.23623108 130.52672424 15.22720764 129.74977112 15.21791077 C127.88635482 15.19432322 126.02310144 15.15845171 124.15992737 15.12025452 C124.15992737 14.79025452 124.15992737 14.46025452 124.15992737 14.12025452 C124.75160706 14.0828717 125.34328674 14.04548889 125.95289612 14.00697327 C130.72876656 13.60963331 134.37660002 13.29006932 138.15992737 10.12025452 C140.13992737 7.48025452 142.11992737 4.84025452 144.15992737 2.12025452 C70.40492737 1.62525452 70.40492737 1.62525452 -4.84007263 1.12025452 C-4.84007263 3.10025452 -4.84007263 5.08025452 -4.84007263 7.12025452 C-4.18007263 7.12025452 -3.52007263 7.12025452 -2.84007263 7.12025452 C-2.51007263 7.78025452 -2.18007263 8.44025452 -1.84007263 9.12025452 C-1.18007263 9.45025452 -0.52007263 9.78025452 0.15992737 10.12025452 C2.15992737 11.12025452 2.15992737 11.12025452 3.15992737 13.12025452 C4.14992737 13.78025452 5.13992737 14.44025452 6.15992737 15.12025452 C2.99910289 15.63748034 1.21692393 15.86684774 -1.84007263 15.12025452 C-6.93770184 11.28473929 -10.72204701 6.65794671 -13.84007263 1.12025452 C-9.17984977 0.37327681 -4.71778356 -0.00375321 0 0 Z " fill="#D0606E" transform="translate(58.84007263183594,192.87974548339844)"/>
<path d="M0 0 C66 0 132 0 200 0 C196.625 10.125 196.625 10.125 194 15 C192.35 15 190.7 15 189 15 C189.66 14.67 190.32 14.34 191 14 C193.05257724 9.76655944 193.83281751 5.66872996 195 1 C132.96 1 70.92 1 7 1 C7.32509219 10.24350993 7.32509219 10.24350993 10 15 C8.68 15 7.36 15 6 15 C4.99539469 12.87717331 3.99644398 10.75166979 3 8.625 C2.443125 7.44164062 1.88625 6.25828125 1.3125 5.0390625 C0 2 0 2 0 0 Z " fill="#E9B5BC" transform="translate(28,164)"/>
<path d="M0 0 C0.61875 0.928125 0.61875 0.928125 1.25 1.875 C3.07610938 4.09241854 4.43617863 4.82403235 7 6 C5.9318153 11.11365014 4.76892524 16.07227969 3 21 C2.01 21 1.02 21 0 21 C-1.51953709 25.91582077 -1.51953709 25.91582077 -2 31 C-3.32 31 -4.64 31 -6 31 C-6 30.34 -6 29.68 -6 29 C-6.66 29 -7.32 29 -8 29 C-7.47509457 22.43212078 -6.1888398 16.76249198 -4 10.5625 C-3.59007812 9.36077148 -3.59007812 9.36077148 -3.171875 8.13476562 C-1.20224057 2.40448113 -1.20224057 2.40448113 0 0 Z " fill="#0E2361" transform="translate(31,83)"/>
<path d="M0 0 C0.99 0.33 1.98 0.66 3 1 C1.35821735 5.77609498 -1.26546702 9.79382904 -4 14 C-3.34 14 -2.68 14 -2 14 C-2 14.99 -2 15.98 -2 17 C-2.66 17 -3.32 17 -4 17 C-3.67 17.598125 -3.34 18.19625 -3 18.8125 C-2 21 -2 21 -2 24 C-5.3 23.67 -8.6 23.34 -12 23 C-12 21.68 -12 20.36 -12 19 C-13.32 18.67 -14.64 18.34 -16 18 C-16.33 18.66 -16.66 19.32 -17 20 C-17 19.01 -17 18.02 -17 17 C-18.32 17 -19.64 17 -21 17 C-21.33 16.01 -21.66 15.02 -22 14 C-19.6875 10.8125 -19.6875 10.8125 -17 8 C-16.34 8 -15.68 8 -15 8 C-15 7.34 -15 6.68 -15 6 C-13.68 6.33 -12.36 6.66 -11 7 C-11.99 7.495 -11.99 7.495 -13 8 C-13 9.32 -13 10.64 -13 12 C-12.01 11.67 -11.02 11.34 -10 11 C-9.01 11 -8.02 11 -7 11 C-5.34347593 9.34186393 -5.34347593 9.34186393 -3.875 7.1875 C-3.35679688 6.47980469 -2.83859375 5.77210937 -2.3046875 5.04296875 C-0.84408541 2.93907966 -0.84408541 2.93907966 0 0 Z " fill="#244089" transform="translate(57,65)"/>
<path d="M0 0 C0.33 0.66 0.66 1.32 1 2 C3.3260857 2.38063221 5.66055264 2.71269945 8 3 C8.66 3.33 9.32 3.66 10 4 C10.33 4.99 10.66 5.98 11 7 C13.01508358 7.73323796 13.01508358 7.73323796 15 8 C13.87720538 8.98169476 12.75168527 9.96027298 11.625 10.9375 C10.99851562 11.48277344 10.37203125 12.02804688 9.7265625 12.58984375 C8 14 8 14 6 15 C5.60691577 17.22297513 5.60691577 17.22297513 5.5 19.8125 C5.28813073 23.39838736 4.80651868 25.87501406 3 29 C1.35 29 -0.3 29 -2 29 C-2.66 27.35 -3.32 25.7 -4 24 C-3.01 24 -2.02 24 -1 24 C-0.87625 23.195625 -0.7525 22.39125 -0.625 21.5625 C0.11554163 17.34141271 1.04401126 13.17664983 2 9 C0.68 8.67 -0.64 8.34 -2 8 C-2.33 6.35 -2.66 4.7 -3 3 C-2.34 3 -1.68 3 -1 3 C-0.67 2.01 -0.34 1.02 0 0 Z " fill="#2B4CA4" transform="translate(35,80)"/>
<path d="M0 0 C2.475 0.99 2.475 0.99 5 2 C5 3.32 5 4.64 5 6 C5.66 6.33 6.32 6.66 7 7 C7 6.34 7 5.68 7 5 C8.32 5.33 9.64 5.66 11 6 C10.01 6.495 10.01 6.495 9 7 C9 8.32 9 9.64 9 11 C10.65 10.67 12.3 10.34 14 10 C14.33 9.01 14.66 8.02 15 7 C15.66 7 16.32 7 17 7 C18.32 9.97 19.64 12.94 21 16 C13.74 16 6.48 16 -1 16 C-1.020625 13.545625 -1.04125 11.09125 -1.0625 8.5625 C-1.071604 7.78849854 -1.08070801 7.01449707 -1.09008789 6.21704102 C-1.09724913 4.47778283 -1.05024702 2.73854696 -1 1 C-0.67 0.67 -0.34 0.34 0 0 Z " fill="#203880" transform="translate(23,119)"/>
<path d="M0 0 C24.42 0 48.84 0 74 0 C74 0.33 74 0.66 74 1 C50.32915367 2.08884735 26.69091708 2.1107291 3 2 C2.67 5.3 2.34 8.6 2 12 C3.4080188 11.99214478 3.4080188 11.99214478 4.84448242 11.98413086 C25.59103688 11.87885386 46.27036966 12.08987144 67 13 C67 13.33 67 13.66 67 14 C44.89 14 22.78 14 0 14 C0 9.38 0 4.76 0 0 Z " fill="#EC0C41" transform="translate(114,121)"/>
<path d="M0 0 C4.95 0 9.9 0 15 0 C13.25 9.5 13.25 9.5 11 14 C7.37 14 3.74 14 0 14 C0 9.38 0 4.76 0 0 Z " fill="#AD0000" transform="translate(217,150)"/>
<path d="M0 0 C35.31 0 70.62 0 107 0 C112 11 112 11 112 14 C109.49502996 15.25248502 107.79146726 15.11374406 104.9921875 15.09765625 C104.00605469 15.09443359 103.01992187 15.09121094 102.00390625 15.08789062 C100.97136719 15.07951172 99.93882812 15.07113281 98.875 15.0625 C97.31458984 15.05573242 97.31458984 15.05573242 95.72265625 15.04882812 C93.14838038 15.03701952 90.57421854 15.02055075 88 15 C88 14.67 88 14.34 88 14 C94.27 14 100.54 14 107 14 C106.505 10.535 106.505 10.535 106 7 C105.01 6.505 105.01 6.505 104 6 C104 4.35 104 2.7 104 1 C69.68 1 35.36 1 0 1 C0 0.67 0 0.34 0 0 Z " fill="#ECDCDE" transform="translate(115,77)"/>
<path d="M0 0 C-13.00666476 10.55257707 -31.69153007 12.17835509 -47.75 12.1875 C-48.86632812 12.19974609 -49.98265625 12.21199219 -51.1328125 12.22460938 C-58.30662217 12.237151 -64.99562417 11.55545085 -72 10 C-72 9.67 -72 9.34 -72 9 C-71.26587891 9.0407666 -70.53175781 9.0815332 -69.77539062 9.12353516 C-40.62265165 11.23667087 -40.62265165 11.23667087 -13.375 2.3125 C-8.75175121 -0.47984194 -5.32628237 -0.42272082 0 0 Z " fill="#8A8A8A" transform="translate(176,222)"/>
<path d="M0 0 C1.485 0.99 1.485 0.99 3 2 C2.67 5.3 2.34 8.6 2 12 C3.42449463 11.99476318 4.84898926 11.98952637 6.31665039 11.98413086 C11.71980127 11.96571165 17.12294954 11.95443651 22.52612305 11.94506836 C24.84253408 11.9401109 27.15894211 11.93334295 29.4753418 11.92456055 C45.01327245 11.86722501 60.48342456 12.16323851 76 13 C76 13.33 76 13.66 76 14 C50.92 14 25.84 14 0 14 C0 9.38 0 4.76 0 0 Z " fill="#F01449" transform="translate(114,92)"/>
<path d="M0 0 C4.03002504 0.53487746 5.90131325 2.52894478 8.6875 5.375 C9.47511719 6.16648437 10.26273437 6.95796875 11.07421875 7.7734375 C13 10 13 10 14 13 C10.66049147 14.66975427 6.90709514 14.12883006 3.23583984 14.11352539 C2.32846573 14.11367142 1.42109161 14.11381744 0.48622131 14.1139679 C-2.52223068 14.11326951 -5.53062128 14.10548054 -8.5390625 14.09765625 C-10.62128668 14.09579181 -12.70351131 14.09436803 -14.78573608 14.09336853 C-20.27336838 14.08954541 -25.76097433 14.07971686 -31.24859619 14.06866455 C-36.84541467 14.05844602 -42.44223739 14.05386996 -48.0390625 14.04882812 C-59.02605326 14.03809443 -70.01302444 14.02102045 -81 14 C-81 18.95 -81 23.9 -81 29 C-81.33 29 -81.66 29 -82 29 C-82 23.72 -82 18.44 -82 13 C-51.64 12.67 -21.28 12.34 10 12 C7.69 9.36 5.38 6.72 3 4 C2.01 2.68 1.02 1.36 0 0 Z " fill="#E592AF" transform="translate(196,48)"/>
<path d="M0 0 C0 4.29 0 8.58 0 13 C-0.33 12.01 -0.66 11.02 -1 10 C-2.299375 9.87625 -3.59875 9.7525 -4.9375 9.625 C-7.15234375 9.4140625 -7.15234375 9.4140625 -9 9 C-9.33 8.34 -9.66 7.68 -10 7 C-10.33 7.66 -10.66 8.32 -11 9 C-17.12877792 11.31274639 -17.12877792 11.31274639 -20.4375 10.125 C-20.953125 9.75375 -21.46875 9.3825 -22 9 C-21.34 9 -20.68 9 -20 9 C-19.67 8.01 -19.34 7.02 -19 6 C-12.99756787 1.62770207 -7.37560999 0 0 0 Z " fill="#477CC2" transform="translate(114,32)"/>
<path d="M0 0 C6.6 0 13.2 0 20 0 C18.68 2.64 17.36 5.28 16 8 C15.64139893 8.7638501 15.28279785 9.5277002 14.91333008 10.31469727 C13.78063766 12.3154884 12.84077108 13.60272384 11 15 C7.16054699 15.70660571 3.55029616 15.34528079 -0.3125 14.9375 C-1.85260742 14.81858398 -1.85260742 14.81858398 -3.42382812 14.69726562 C-5.9537927 14.49722191 -8.47603339 14.26392554 -11 14 C-10.34 13.67 -9.68 13.34 -9 13 C-9 12.34 -9 11.68 -9 11 C-8.34 11 -7.68 11 -7 11 C-7 11.66 -7 12.32 -7 13 C0.37392188 13.31636511 0.37392188 13.31636511 6.875 10.515625 C9.15005825 7.34679386 10.04055171 4.83779315 11 1 C7.37 1 3.74 1 0 1 C0 0.67 0 0.34 0 0 Z " fill="#950000" transform="translate(201,179)"/>
<path d="M0 0 C7.26 0 14.52 0 22 0 C21.125 12.75 21.125 12.75 20 15 C11.42 15 2.84 15 -6 15 C-6 14.67 -6 14.34 -6 14 C0.93 14 7.86 14 15 14 C15 11.36 15 8.72 15 6 C15.33 4.35 15.66 2.7 16 1 C10.72 1 5.44 1 0 1 C0 0.67 0 0.34 0 0 Z " fill="#A27A80" transform="translate(212,135)"/>
<path d="M0 0 C0.66 0 1.32 0 2 0 C2 0.99 2 1.98 2 3 C2.99 3.33 3.98 3.66 5 4 C4.67 5.65 4.34 7.3 4 9 C2.68 8.34 1.36 7.68 0 7 C-0.10183594 7.56203125 -0.20367187 8.1240625 -0.30859375 8.703125 C-1.13648111 11.45339488 -2.43198618 13.39095874 -4.0625 15.75 C-4.61035156 16.54921875 -5.15820312 17.3484375 -5.72265625 18.171875 C-6.14417969 18.77515625 -6.56570312 19.3784375 -7 20 C-8.98 19.67 -10.96 19.34 -13 19 C-13.33 17.35 -13.66 15.7 -14 14 C-13.01 14 -12.02 14 -11 14 C-10.67 13.01 -10.34 12.02 -10 11 C-9.01 10.67 -8.02 10.34 -7 10 C-5.77554716 8.37051936 -5.77554716 8.37051936 -4.8125 6.4375 C-4.214375 5.303125 -3.61625 4.16875 -3 3 C-2.01 3 -1.02 3 0 3 C0 2.01 0 1.02 0 0 Z " fill="#3154AA" transform="translate(57,58)"/>
<path d="M0 0 C7.26 0 14.52 0 22 0 C22 0.33 22 0.66 22 1 C17.05 1 12.1 1 7 1 C7.33 5.29 7.66 9.58 8 14 C11.3 14 14.6 14 18 14 C18 14.33 18 14.66 18 15 C12.72 15 7.44 15 2 15 C0.69272662 9.6074973 0 5.64347623 0 0 Z " fill="#A3979E" transform="translate(22,135)"/>
<path d="M0 0 C5.28 0 10.56 0 16 0 C17.55700564 5.5468326 18 8.97206487 18 15 C10.74 15 3.48 15 -4 15 C-4 14.67 -4 14.34 -4 14 C1.28 14 6.56 14 12 14 C11.67 12.5975 11.34 11.195 11 9.75 C10.26483401 6.62554456 10 4.27217135 10 1 C6.7 1 3.4 1 0 1 C0 0.67 0 0.34 0 0 Z " fill="#A59597" transform="translate(216,106)"/>
<path d="M0 0 C0.99 0.66 1.98 1.32 3 2 C2.154375 2.9075 1.30875 3.815 0.4375 4.75 C-0.97612757 6.3562793 -0.97612757 6.3562793 -2 8 C-1.835 8.66 -1.67 9.32 -1.5 10 C-1.335 10.66 -1.17 11.32 -1 12 C-3.72236034 16.33876179 -4.74831463 17.71272795 -9.8125 18.875 C-10.864375 18.91625 -11.91625 18.9575 -13 19 C-13 19.66 -13 20.32 -13 21 C-13.99 21.33 -14.98 21.66 -16 22 C-14.63854309 18.09623069 -12.87415934 15.30857315 -10.25 12.125 C-9.54359375 11.26390625 -8.8371875 10.4028125 -8.109375 9.515625 C-5.43085376 6.32124041 -2.73548336 3.14580587 0 0 Z " fill="#17337F" transform="translate(55,52)"/>
<path d="M0 0 C-13.12166619 11.21461275 -13.12166619 11.21461275 -21 14 C-24.328125 13.65234375 -24.328125 13.65234375 -27 13 C-22.79852486 9.63881989 -18.263871 6.80493191 -13.1875 5 C-10.82744958 4.20188082 -10.82744958 4.20188082 -10 1.9375 C-9 0 -9 0 -6.625 -0.8125 C-4.08152045 -0.99417711 -2.42302174 -0.67535287 0 0 Z " fill="#610001" transform="translate(197,209)"/>
<path d="M0 0 C1.010625 0.185625 2.02125 0.37125 3.0625 0.5625 C1.65312585 2.53162559 0.21888997 4.46928633 -1.265625 6.3828125 C-2.91772735 8.4662391 -2.91772735 8.4662391 -4.109375 10.4296875 C-5.63249513 12.49677911 -6.59812766 13.43458834 -8.9375 14.5625 C-14.3210652 15.06453882 -19.54879214 14.90809409 -24.9375 14.5625 C-24.9375 14.2325 -24.9375 13.9025 -24.9375 13.5625 C-24.34582031 13.52511719 -23.75414062 13.48773438 -23.14453125 13.44921875 C-18.35688253 13.05089887 -14.71852375 12.74652 -10.9375 9.5625 C-9.80046491 8.00873603 -8.67669359 6.44522415 -7.5625 4.875 C-4.4403255 0.63433221 -4.4403255 0.63433221 0 0 Z " fill="#939293" transform="translate(207.9375,193.4375)"/>
<path d="M0 0 C1.65 0.33 3.3 0.66 5 1 C6.43090907 4.8126803 5.55472391 7.3961772 4.3125 11.1875 C3.81169922 12.78658203 3.81169922 12.78658203 3.30078125 14.41796875 C2 17 2 17 -0.14453125 17.86328125 C-0.75683594 17.90839844 -1.36914062 17.95351562 -2 18 C-2.76016496 14.28363799 -3.16734815 11.61877928 -2 8 C-1.835 7.154375 -1.67 6.30875 -1.5 5.4375 C-1 3 -1 3 0 0 Z " fill="#172F74" transform="translate(32,87)"/>
<path d="M0 0 C25.41 0 50.82 0 77 0 C77 0.33 77 0.66 77 1 C74.87707704 1.52923572 72.75157949 2.04815377 70.625 2.5625 C69.44164062 2.85253906 68.25828125 3.14257812 67.0390625 3.44140625 C64 4 64 4 62 3 C62 2.34 62 1.68 62 1 C41.54 1 21.08 1 0 1 C0 0.67 0 0.34 0 0 Z " fill="#B20113" transform="translate(93,208)"/>
<path d="M0 0 C2.97 0 5.94 0 9 0 C9 1.98 9 3.96 9 6 C9.66 6 10.32 6 11 6 C11.33 6.66 11.66 7.32 12 8 C12.66 8.33 13.32 8.66 14 9 C16 10 16 10 17 12 C17.99 12.66 18.98 13.32 20 14 C16.83917552 14.51722582 15.05699656 14.74659322 12 14 C6.90237079 10.16448477 3.11802562 5.53769219 0 0 Z " fill="#B0B0B0" transform="translate(45,194)"/>
<path d="M0 0 C2.97 0 5.94 0 9 0 C8.814375 1.381875 8.62875 2.76375 8.4375 4.1875 C8.03903709 7.69618729 8.0030984 10.56622781 9 14 C7.35 14 5.7 14 4 14 C2.13459373 9.29593201 0.63156995 5.05255964 0 0 Z " fill="#5A0001" transform="translate(24,150)"/>
<path d="M0 0 C0.99 0 1.98 0 3 0 C2.5401863 3.58654688 1.75760557 6.85179579 0.5625 10.25 C-1.11736442 15.08372754 -2.10719238 19.96876648 -3 25 C-4.953125 24.21484375 -4.953125 24.21484375 -7 23 C-7.74439973 19.5881679 -8 16.48605314 -8 13 C-6.35 13.33 -4.7 13.66 -3 14 C-2.95101562 13.40832031 -2.90203125 12.81664063 -2.8515625 12.20703125 C-2.43543133 7.80895528 -1.95034405 4.03071103 0 0 Z " fill="#2C4A9B" transform="translate(41,95)"/>
<path d="M0 0 C8.58 0 17.16 0 26 0 C26 0.33 26 0.66 26 1 C19.73 1 13.46 1 7 1 C7.12375 2.5675 7.2475 4.135 7.375 5.75 C7.44460937 6.63171875 7.51421875 7.5134375 7.5859375 8.421875 C7.99850055 10.99066382 8.71160957 12.75841015 10 15 C8.68 15 7.36 15 6 15 C4.99539469 12.87717331 3.99644398 10.75166979 3 8.625 C2.443125 7.44164062 1.88625 6.25828125 1.3125 5.0390625 C0 2 0 2 0 0 Z " fill="#997277" transform="translate(28,164)"/>
<path d="M0 0 C-1.07313751 2.73162274 -1.9952326 3.99623878 -4.33203125 5.83984375 C-12.16056986 12.17832377 -18.68362828 21.97485913 -23 31 C-24.5625 33.875 -24.5625 33.875 -26 36 C-26.66 36 -27.32 36 -28 36 C-25.29891989 27.0616431 -10.65399546 0 0 0 Z " fill="#10204C" transform="translate(60,47)"/>
<path d="M0 0 C2.475 0.99 2.475 0.99 5 2 C5.02685938 4.14576637 5.04633088 6.29162645 5.0625 8.4375 C5.07410156 9.63246094 5.08570313 10.82742187 5.09765625 12.05859375 C5 15 5 15 4 16 C2.33382885 16.04063832 0.66611905 16.042721 -1 16 C-1.02685095 13.52076199 -1.04676547 11.0418116 -1.0625 8.5625 C-1.07506836 7.50192383 -1.07506836 7.50192383 -1.08789062 6.41992188 C-1.09653588 4.61306441 -1.05220011 2.80612397 -1 1 C-0.67 0.67 -0.34 0.34 0 0 Z " fill="#051447" transform="translate(23,119)"/>
<path d="M0 0 C1.32 0 2.64 0 4 0 C4 0.66 4 1.32 4 2 C3.01 2.495 3.01 2.495 2 3 C2.79117904 4.99983534 2.79117904 4.99983534 4 7 C4.99 7.33 5.98 7.66 7 8 C1.83076923 12.06153846 1.83076923 12.06153846 -2.375 11.75 C-3.674375 11.37875 -3.674375 11.37875 -5 11 C-5.33 10.01 -5.66 9.02 -6 8 C-4.68 7.34 -3.36 6.68 -2 6 C-2.33 5.67 -2.66 5.34 -3 5 C-5.64 5.99 -8.28 6.98 -11 8 C-10.4375 6.125 -10.4375 6.125 -9 4 C-5.94821644 2.9100773 -3.25843762 2 0 2 C0 1.34 0 0.68 0 0 Z " fill="#224395" transform="translate(75,39)"/>
<path d="M0 0 C5.28 0 10.56 0 16 0 C16.33 1.65 16.66 3.3 17 5 C20.47307328 6.86983745 20.47307328 6.86983745 24 8 C17.90419974 10.24964057 11.01907529 6.36686793 5.4375 3.83984375 C3.60726363 2.92799384 1.80039342 1.96944261 0 1 C0 0.67 0 0.34 0 0 Z " fill="#B3B1B2" transform="translate(80,222)"/>
<path d="M0 0 C2.97 0 5.94 0 9 0 C9.33 1.98 9.66 3.96 10 6 C11.32 6 12.64 6 14 6 C14 6.66 14 7.32 14 8 C14.66 8 15.32 8 16 8 C16 8.66 16 9.32 16 10 C16.86625 10.1546875 16.86625 10.1546875 17.75 10.3125 C20.32049158 11.09792798 21.93657284 12.30504197 24 14 C22.4296875 14.7578125 22.4296875 14.7578125 20 15 C17.54774224 13.7177351 15.39412151 12.42628901 13.125 10.875 C12.52558594 10.483125 11.92617187 10.09125 11.30859375 9.6875 C7.31159719 7.03439599 3.595388 4.17757533 0 1 C0 0.67 0 0.34 0 0 Z " fill="#540103" transform="translate(59,208)"/>
<path d="M0 0 C0.433125 0.474375 0.86625 0.94875 1.3125 1.4375 C3.02309613 3.23686957 3.02309613 3.23686957 6 4 C-0.15034169 11.48291572 -0.15034169 11.48291572 -4 14 C-4 12.68 -4 11.36 -4 10 C-4.66 9.67 -5.32 9.34 -6 9 C-5.69381595 5.32579134 -5.24228216 4.21864487 -2.4375 1.6875 C-1.633125 1.130625 -0.82875 0.57375 0 0 Z " fill="#385DA9" transform="translate(65,52)"/>
<path d="M0 0 C1.98 0 3.96 0 6 0 C6 4.62 6 9.24 6 14 C4.02 14 2.04 14 0 14 C0 9.38 0 4.76 0 0 Z " fill="#760000" transform="translate(228,121)"/>
<path d="M0 0 C0 0.66 0 1.32 0 2 C-1.01578125 2.23074219 -2.0315625 2.46148438 -3.078125 2.69921875 C-10.8658875 4.5248761 -18.14091795 6.61034865 -25.44921875 9.94921875 C-27.97084039 10.98798785 -30.31509653 11.55977258 -33 12 C-32 9 -32 9 -29.11328125 7.5 C-27.85240808 6.9849242 -26.58490895 6.48588033 -25.3125 6 C-24.64637695 5.73944824 -23.98025391 5.47889648 -23.29394531 5.21044922 C-15.91627247 2.42947353 -7.92619951 0 0 0 Z " fill="#2B59BE" transform="translate(114,24)"/>
<path d="M0 0 C7.59 0 15.18 0 23 0 C19.625 10.125 19.625 10.125 17 15 C15.35 15 13.7 15 12 15 C12.66 14.67 13.32 14.34 14 14 C16.05257724 9.76655944 16.83281751 5.66872996 18 1 C12.06 1 6.12 1 0 1 C0 0.67 0 0.34 0 0 Z " fill="#9D8185" transform="translate(205,164)"/>
<path d="M0 0 C1.11375 0.185625 1.11375 0.185625 2.25 0.375 C-0.33210626 5.82611321 -3.13138892 10.55018523 -6.75 15.375 C-7.74 15.045 -8.73 14.715 -9.75 14.375 C-5.02960526 0.68585526 -5.02960526 0.68585526 0 0 Z " fill="#630102" transform="translate(218.75,178.625)"/>
<path d="M0 0 C0.66 0 1.32 0 2 0 C2.84026396 1.76755526 3.67198722 3.53917263 4.5 5.3125 C4.9640625 6.29863281 5.428125 7.28476563 5.90625 8.30078125 C7 11 7 11 7 14 C4.49502996 15.25248502 2.79146726 15.11374406 -0.0078125 15.09765625 C-0.99394531 15.09443359 -1.98007813 15.09121094 -2.99609375 15.08789062 C-4.02863281 15.07951172 -5.06117188 15.07113281 -6.125 15.0625 C-7.68541016 15.05573242 -7.68541016 15.05573242 -9.27734375 15.04882812 C-11.85161962 15.03701952 -14.42578146 15.02055075 -17 15 C-17 14.67 -17 14.34 -17 14 C-10.73 14 -4.46 14 2 14 C1.67 11.69 1.34 9.38 1 7 C0.66666667 4.66666667 0.33333333 2.33333333 0 0 Z " fill="#A3767D" transform="translate(220,77)"/>
<path d="M0 0 C4.03002504 0.53487746 5.90131325 2.52894478 8.6875 5.375 C9.47511719 6.16648437 10.26273438 6.95796875 11.07421875 7.7734375 C13 10 13 10 14 13 C11.23382437 14.38308781 8.98982 14.11210196 5.8984375 14.09765625 C4.68671875 14.09443359 3.475 14.09121094 2.2265625 14.08789062 C0.95554688 14.07951172 -0.31546875 14.07113281 -1.625 14.0625 C-2.90375 14.05798828 -4.1825 14.05347656 -5.5 14.04882812 C-8.66671292 14.03701203 -11.83333356 14.02053815 -15 14 C-15 13.67 -15 13.34 -15 13 C-2.625 12.505 -2.625 12.505 10 12 C7.69 9.36 5.38 6.72 3 4 C2.01 2.68 1.02 1.36 0 0 Z " fill="#A67880" transform="translate(196,48)"/>
<path d="M0 0 C1.65 0 3.3 0 5 0 C4.71572583 1.58467728 4.42225182 3.1677057 4.125 4.75 C3.96257812 5.63171875 3.80015625 6.5134375 3.6328125 7.421875 C3.03203736 9.86947744 2.22002883 11.80599857 1 14 C-0.32 14 -1.64 14 -3 14 C-2.01 9.38 -1.02 4.76 0 0 Z " fill="#680001" transform="translate(227,150)"/>
<path d="M0 0 C6.27 0 12.54 0 19 0 C19.33 1.65 19.66 3.3 20 5 C19.67 5.33 19.34 5.66 19 6 C18.76924918 7.34747084 18.58846937 8.70377565 18.4375 10.0625 C18.293125 11.361875 18.14875 12.66125 18 14 C17.01 14 16.02 14 15 14 C14.92027988 9.2965127 15.06508817 5.67455917 16 1 C10.72 1 5.44 1 0 1 C0 0.67 0 0.34 0 0 Z " fill="#C4B4B6" transform="translate(212,135)"/>
<path d="M0 0 C1.86610926 2.79916389 2.68785383 4.81938269 3.625 8 C3.88539063 8.86625 4.14578125 9.7325 4.4140625 10.625 C5 13 5 13 5 16 C3.35 16 1.7 16 0 16 C-0.66 11.05 -1.32 6.1 -2 1 C-1.34 0.67 -0.68 0.34 0 0 Z " fill="#6E0305" transform="translate(227,90)"/>
<path d="M0 0 C3.35001173 1.58462785 4.94646963 4.45669388 6.921875 7.46484375 C7.33308594 8.06361328 7.74429688 8.66238281 8.16796875 9.27929688 C11.171875 13.73525748 11.171875 13.73525748 11.171875 16.02734375 C9.35546875 15.83203125 9.35546875 15.83203125 7.171875 15.02734375 C5.64453125 12.84765625 5.64453125 12.84765625 4.234375 10.15234375 C2.09042243 6.05554302 0.31167181 4.14277291 -3.828125 2.02734375 C-1.828125 0.02734375 -1.828125 0.02734375 0 0 Z " fill="#6A0002" transform="translate(209.828125,60.97265625)"/>
<path d="M0 0 C2.97 0.495 2.97 0.495 6 1 C6.33 3.64 6.66 6.28 7 9 C7.99 9 8.98 9 10 9 C10.103125 9.639375 10.20625 10.27875 10.3125 10.9375 C10.539375 11.618125 10.76625 12.29875 11 13 C11.99 13.33 12.98 13.66 14 14 C11.2734375 14.40234375 11.2734375 14.40234375 8 14 C6.17534595 11.80614338 4.9509498 10.02608378 3.625 7.5625 C3.27050781 6.95083984 2.91601562 6.33917969 2.55078125 5.70898438 C0 1.25250362 0 1.25250362 0 0 Z " fill="#540002" transform="translate(35,179)"/>
<path d="M0 0 C0.66 0 1.32 0 2 0 C2 0.66 2 1.32 2 2 C3.32 2 4.64 2 6 2 C5.34 4.31 4.68 6.62 4 9 C2.02 9 0.04 9 -2 9 C-2.66 6.69 -3.32 4.38 -4 2 C-2.68 2 -1.36 2 0 2 C0 1.34 0 0.68 0 0 Z " fill="#E1E9F3" transform="translate(103,80)"/>
<path d="M0 0 C-4.08078632 5.0022542 -7.69280693 6.07934219 -14 7 C-14 6.34 -14 5.68 -14 5 C-14.66 4.67 -15.32 4.34 -16 4 C-14.08959948 3.1319092 -12.17139263 2.28098217 -10.25 1.4375 C-9.18265625 0.96183594 -8.1153125 0.48617187 -7.015625 -0.00390625 C-4.01630163 -0.9946154 -2.86578759 -1.16161779 0 0 Z " fill="#3660AF" transform="translate(99,36)"/>
<path d="M0 0 C-6.8403071 5.374527 -14.29353678 7.44648529 -23 7 C-23 6.67 -23 6.34 -23 6 C-22.11248047 5.72736328 -22.11248047 5.72736328 -21.20703125 5.44921875 C-16.13281401 3.86069156 -16.13281401 3.86069156 -11.5 1.3125 C-7.75765285 -0.65223226 -4.14470139 -0.24380596 0 0 Z " fill="#B1B0B0" transform="translate(176,222)"/>
<path d="M0 0 C0.66 0.33 1.32 0.66 2 1 C2 1.99 2 2.98 2 4 C2.99 4.33 3.98 4.66 5 5 C4.67 6.65 4.34 8.3 4 10 C3.401875 9.814375 2.80375 9.62875 2.1875 9.4375 C-0.16408762 8.77906313 -0.16408762 8.77906313 -3 10 C-3 8.68 -3 7.36 -3 6 C-3.99 5.34 -4.98 4.68 -6 4 C-4.7934375 3.566875 -4.7934375 3.566875 -3.5625 3.125 C-0.8673532 2.26737432 -0.8673532 2.26737432 0 0 Z " fill="#DFE9F3" transform="translate(103,121)"/>
<path d="M0 0 C4.59467678 0.47250222 6.58211447 2.0901791 9.75 5.375 C10.52859375 6.16648437 11.3071875 6.95796875 12.109375 7.7734375 C14 10 14 10 15 13 C8.35073958 12.26119329 4.03789839 4.814951 0 0 Z " fill="#D4D4D4" transform="translate(192,48)"/>
<path d="M0 0 C0.66 0 1.32 0 2 0 C2 0.99 2 1.98 2 3 C3.32 3.33 4.64 3.66 6 4 C5.34 5.65 4.68 7.3 4 9 C1.69 9 -0.62 9 -3 9 C-3.33 7.02 -3.66 5.04 -4 3 C-3.01 2.67 -2.02 2.34 -1 2 C-0.67 1.34 -0.34 0.68 0 0 Z " fill="#EBF0F6" transform="translate(103,101)"/>
<path d="M0 0 C0.66 0 1.32 0 2 0 C2 0.99 2 1.98 2 3 C3.32 3 4.64 3 6 3 C6 3.66 6 4.32 6 5 C5.34 5 4.68 5 4 5 C3.67 6.32 3.34 7.64 3 9 C1.35 9.33 -0.3 9.66 -2 10 C-2.66 7.69 -3.32 5.38 -4 3 C-2.68 3 -1.36 3 0 3 C0 2.01 0 1.02 0 0 Z " fill="#E1E8F1" transform="translate(91,90)"/>
<path d="M0 0 C4.93752335 0.49963034 7.93852918 1.93658531 12 4.75 C13.03640625 5.46671875 14.0728125 6.1834375 15.140625 6.921875 C18.2260084 9.16425747 21.15053715 11.46714413 24 14 C23.01 14.495 23.01 14.495 22 15 C21.16597656 14.40832031 20.33195312 13.81664062 19.47265625 13.20703125 C13.16042324 8.76300119 6.88003601 4.5377963 0 1 C0 0.67 0 0.34 0 0 Z " fill="#6D0004" transform="translate(173,33)"/>
<path d="M0 0 C0.66 0 1.32 0 2 0 C2.06058594 0.75925781 2.12117188 1.51851563 2.18359375 2.30078125 C2.26738281 3.29464844 2.35117187 4.28851563 2.4375 5.3125 C2.51871094 6.29863281 2.59992187 7.28476563 2.68359375 8.30078125 C2.91812559 11.09375599 2.91812559 11.09375599 4 14 C2.68 14 1.36 14 0 14 C0 13.34 0 12.68 0 12 C-0.66 12 -1.32 12 -2 12 C-1.85831863 10.56208484 -1.71148957 9.1246763 -1.5625 7.6875 C-1.48128906 6.88699219 -1.40007813 6.08648437 -1.31640625 5.26171875 C-1 3 -1 3 0 0 Z " fill="#0B1D58" transform="translate(25,100)"/>
<path d="M0 0 C0.99 0.33 1.98 0.66 3 1 C0.66890292 4.24326551 -1.6491752 6.79830532 -5 9 C-9.74385392 9.69075389 -14.24141056 9.48120567 -19 9 C-19 8.67 -19 8.34 -19 8 C-17.700625 7.938125 -16.40125 7.87625 -15.0625 7.8125 C-9.67195847 7.23158586 -5.38701642 5.1433756 -1 2 C-0.67 1.34 -0.34 0.68 0 0 Z " fill="#B5B2B2" transform="translate(202,199)"/>
<path d="M0 0 C0.66 0.33 1.32 0.66 2 1 C2 1.66 2 2.32 2 3 C2.99 3.33 3.98 3.66 5 4 C4.67 5.65 4.34 7.3 4 9 C3.401875 8.814375 2.80375 8.62875 2.1875 8.4375 C-0.16408762 7.77906313 -0.16408762 7.77906313 -3 9 C-3.33 6.69 -3.66 4.38 -4 2 C-2.68 2 -1.36 2 0 2 C0 1.34 0 0.68 0 0 Z " fill="#E7ECF3" transform="translate(92,112)"/>
<path d="M0 0 C0.66 0 1.32 0 2 0 C2 0.99 2 1.98 2 3 C3.32 3.33 4.64 3.66 6 4 C5.34 5.65 4.68 7.3 4 9 C2.02 9 0.04 9 -2 9 C-2.66 7.02 -3.32 5.04 -4 3 C-2.68 3 -1.36 3 0 3 C0 2.01 0 1.02 0 0 Z " fill="#E4E9F1" transform="translate(80,101)"/>
<path d="M0 0 C8.58 0 17.16 0 26 0 C26 0.33 26 0.66 26 1 C23.87707704 1.52923572 21.75157949 2.04815377 19.625 2.5625 C18.44164062 2.85253906 17.25828125 3.14257812 16.0390625 3.44140625 C13 4 13 4 11 3 C11 2.34 11 1.68 11 1 C7.37 1 3.74 1 0 1 C0 0.67 0 0.34 0 0 Z " fill="#AA000E" transform="translate(144,208)"/>
<path d="M0 0 C0.66 0 1.32 0 2 0 C2 0.99 2 1.98 2 3 C2.99 3 3.98 3 5 3 C4.67 4.98 4.34 6.96 4 9 C2.02 9 0.04 9 -2 9 C-2.33 7.02 -2.66 5.04 -3 3 C-2.01 3 -1.02 3 0 3 C0 2.01 0 1.02 0 0 Z " fill="#DFE4EE" transform="translate(80,80)"/>
<path d="M0 0 C1.98 0.99 1.98 0.99 4 2 C4 6.29 4 10.58 4 15 C2.68 15.33 1.36 15.66 0 16 C0 10.72 0 5.44 0 0 Z " fill="#0B1C5C" transform="translate(24,119)"/>
<path d="M0 0 C1.97909398 -0.02686553 3.95828971 -0.04633375 5.9375 -0.0625 C7.03964844 -0.07410156 8.14179688 -0.08570312 9.27734375 -0.09765625 C12 0 12 0 13 1 C13.23481693 3.18292774 13.41363323 5.37203174 13.5625 7.5625 C13.64628906 8.76003906 13.73007813 9.95757812 13.81640625 11.19140625 C13.87699219 12.11824219 13.93757812 13.04507813 14 14 C13.34 14 12.68 14 12 14 C11.66127487 12.58461283 11.32925376 11.16762037 11 9.75 C10.814375 8.96109375 10.62875 8.1721875 10.4375 7.359375 C10 5 10 5 10 1 C6.7 1 3.4 1 0 1 C0 0.67 0 0.34 0 0 Z " fill="#CAC2C3" transform="translate(216,106)"/>
<path d="M0 0 C0.66 0 1.32 0 2 0 C2 0.99 2 1.98 2 3 C2.99 3.33 3.98 3.66 5 4 C4.67 5.65 4.34 7.3 4 9 C1.03 8.505 1.03 8.505 -2 8 C-2 6.68 -2 5.36 -2 4 C-2.66 4 -3.32 4 -4 4 C-4 3.34 -4 2.68 -4 2 C-2.68 2 -1.36 2 0 2 C0 1.34 0 0.68 0 0 Z " fill="#DDE3ED" transform="translate(69,112)"/>
<path d="M0 0 C0.33 0.99 0.66 1.98 1 3 C2.32 3 3.64 3 5 3 C5 3.66 5 4.32 5 5 C4.34 5 3.68 5 3 5 C2.67 6.32 2.34 7.64 2 9 C0.35 9 -1.3 9 -3 9 C-2.67 7.68 -2.34 6.36 -2 5 C-2.66 5 -3.32 5 -4 5 C-4 4.34 -4 3.68 -4 3 C-3.01 3 -2.02 3 -1 3 C-0.67 2.01 -0.34 1.02 0 0 Z " fill="#DBE0EA" transform="translate(69,90)"/>
<path d="M0 0 C0.66 0.33 1.32 0.66 2 1 C2 1.66 2 2.32 2 3 C2.99 3.33 3.98 3.66 5 4 C4.67 5.65 4.34 7.3 4 9 C3.401875 8.814375 2.80375 8.62875 2.1875 8.4375 C-0.16408762 7.77906313 -0.16408762 7.77906313 -3 9 C-3.33 7.02 -3.66 5.04 -4 3 C-2.68 3 -1.36 3 0 3 C0 2.01 0 1.02 0 0 Z " fill="#E2E7EF" transform="translate(92,69)"/>
<path d="M0 0 C0.66 0.33 1.32 0.66 2 1 C2 1.66 2 2.32 2 3 C2.99 3 3.98 3 5 3 C5 3.66 5 4.32 5 5 C4.34 5 3.68 5 3 5 C3.33 6.32 3.66 7.64 4 9 C2.02 9 0.04 9 -2 9 C-2.66 7.02 -3.32 5.04 -4 3 C-2.68 3 -1.36 3 0 3 C0 2.01 0 1.02 0 0 Z " fill="#D8DDE6" transform="translate(103,38)"/>
<path d="M0 0 C1.65 0 3.3 0 5 0 C4.91621094 0.59167969 4.83242188 1.18335938 4.74609375 1.79296875 C4.19110576 6.09939457 3.76773348 9.75552644 5 14 C4.01 13.67 3.02 13.34 2 13 C0.34950283 8.56971812 -0.22973141 4.70949382 0 0 Z " fill="#7B0000" transform="translate(28,150)"/>
<path d="M0 0 C0.66 0.33 1.32 0.66 2 1 C2 2.32 2 3.64 2 5 C1.01 5.66 0.02 6.32 -1 7 C-1.99 8.485 -1.99 8.485 -3 10 C-3.99 9.67 -4.98 9.34 -6 9 C-5.69381595 5.32579134 -5.24228216 4.21864487 -2.4375 1.6875 C-1.633125 1.130625 -0.82875 0.57375 0 0 Z " fill="#375CAE" transform="translate(65,52)"/>
<path d="M0 0 C0.66 0 1.32 0 2 0 C2 0.99 2 1.98 2 3 C2.99 3.33 3.98 3.66 5 4 C4.67 5.65 4.34 7.3 4 9 C3.38125 8.814375 2.7625 8.62875 2.125 8.4375 C-0.04160178 7.76313824 -0.04160178 7.76313824 -2 9 C-2.66 7.02 -3.32 5.04 -4 3 C-2.68 3 -1.36 3 0 3 C0 2.01 0 1.02 0 0 Z " fill="#E7EAF1" transform="translate(80,122)"/>
<path d="M0 0 C0.99 0 1.98 0 3 0 C2.32584613 5.2584002 0.75734451 10.02638346 -1 15 C-1.66 14.67 -2.32 14.34 -3 14 C-2.58846263 9.02906176 -2.20399168 4.55491614 0 0 Z " fill="#284592" transform="translate(41,95)"/>
<path d="M0 0 C1.1484375 1.609375 1.1484375 1.609375 2 4 C1.1015625 7.015625 1.1015625 7.015625 -0.375 10.25 C-0.85710938 11.32765625 -1.33921875 12.4053125 -1.8359375 13.515625 C-2.22007813 14.33546875 -2.60421875 15.1553125 -3 16 C-3.66 15.01 -4.32 14.02 -5 13 C-4.1015625 9.86328125 -4.1015625 9.86328125 -2.625 6.3125 C-2.14289062 5.13300781 -1.66078125 3.95351562 -1.1640625 2.73828125 C-0.77992187 1.83464844 -0.39578125 0.93101563 0 0 Z " fill="#0F1F4C" transform="translate(31,83)"/>
<path d="M0 0 C0.99 0.33 1.98 0.66 3 1 C1.52410328 5.42769017 -0.73069841 9.6336865 -4 13 C-4.99 13 -5.98 13 -7 13 C-5.54331217 10.03216871 -3.98767914 7.13584687 -2.375 4.25 C-1.92898437 3.45078125 -1.48296875 2.6515625 -1.0234375 1.828125 C-0.68570313 1.22484375 -0.34796875 0.6215625 0 0 Z " fill="#2B4B96" transform="translate(57,65)"/>
<path d="M0 0 C0.433125 0.45375 0.86625 0.9075 1.3125 1.375 C3.10798342 3.20024334 3.10798342 3.20024334 6 5 C0.83076923 9.06153846 0.83076923 9.06153846 -3.375 8.75 C-4.674375 8.37875 -4.674375 8.37875 -6 8 C-2.25 4.125 -2.25 4.125 0 3 C0 2.01 0 1.02 0 0 Z " fill="#3054A3" transform="translate(76,42)"/>
<path d="M0 0 C2.475 0.99 2.475 0.99 5 2 C5 2.66 5 3.32 5 4 C4.34 4 3.68 4 3 4 C3.33 5.32 3.66 6.64 4 8 C2.02 8 0.04 8 -2 8 C-2.144375 7.38125 -2.28875 6.7625 -2.4375 6.125 C-2.93152225 3.96741678 -2.93152225 3.96741678 -4 2 C-2.68 2 -1.36 2 0 2 C0 1.34 0 0.68 0 0 Z " fill="#C4C9D6" transform="translate(80,39)"/>
<path d="M0 0 C-7.66964333 2.58459767 -14.88861071 4.63379732 -23 5 C-18.22478156 2.52396081 -13.67907063 0.78418236 -8.375 -0.1875 C-7.43398437 -0.36667969 -6.49296875 -0.54585937 -5.5234375 -0.73046875 C-3 -1 -3 -1 0 0 Z " fill="#7C7C7C" transform="translate(165,228)"/>
<path d="M0 0 C0.66 0 1.32 0 2 0 C2 0.99 2 1.98 2 3 C2.99 3.33 3.98 3.66 5 4 C4.67 5.65 4.34 7.3 4 9 C1.03 8.505 1.03 8.505 -2 8 C-2.33 6.35 -2.66 4.7 -3 3 C-2.01 3 -1.02 3 0 3 C0 2.01 0 1.02 0 0 Z " fill="#E4E8EF" transform="translate(103,58)"/>
<path d="M0 0 C0.66 0 1.32 0 2 0 C2 0.99 2 1.98 2 3 C2.99 3.33 3.98 3.66 5 4 C4.67 5.65 4.34 7.3 4 9 C3.38125 8.814375 2.7625 8.62875 2.125 8.4375 C-0.04160178 7.76313824 -0.04160178 7.76313824 -2 9 C-2.33 7.02 -2.66 5.04 -3 3 C-2.01 3 -1.02 3 0 3 C0 2.01 0 1.02 0 0 Z " fill="#DCE0E9" transform="translate(80,58)"/>
<path d="M0 0 C2.125 0.9375 2.125 0.9375 4 2 C-2.75 5 -2.75 5 -5 5 C-5 5.66 -5 6.32 -5 7 C-6.8125 8.0625 -6.8125 8.0625 -9 9 C-9.99 8.67 -10.98 8.34 -12 8 C-10.37615858 6.85252535 -8.75088944 5.7070709 -7.125 4.5625 C-6.22007813 3.92441406 -5.31515625 3.28632812 -4.3828125 2.62890625 C-2 1 -2 1 0 0 Z " fill="#2249A8" transform="translate(80,34)"/>
<path d="M0 0 C2 1.75 2 1.75 4 4 C4 5.32 4 6.64 4 8 C1.69 8 -0.62 8 -3 8 C-3.33 6.02 -3.66 4.04 -4 2 C-2.68 1.34 -1.36 0.68 0 0 Z " fill="#CDD3DF" transform="translate(46,91)"/>
<path d="M0 0 C0.66 0.33 1.32 0.66 2 1 C2 1.66 2 2.32 2 3 C2.99 3.33 3.98 3.66 5 4 C4.34 5.32 3.68 6.64 3 8 C1.35 8 -0.3 8 -2 8 C-2.66 6.35 -3.32 4.7 -4 3 C-2.68 3 -1.36 3 0 3 C0 2.01 0 1.02 0 0 Z " fill="#E0E3EA" transform="translate(69,69)"/>
<path d="M0 0 C0.66 0 1.32 0 2 0 C2 0.99 2 1.98 2 3 C2.99 3.33 3.98 3.66 5 4 C4.67 5.65 4.34 7.3 4 9 C3.38125 8.814375 2.7625 8.62875 2.125 8.4375 C-0.04160178 7.76313824 -0.04160178 7.76313824 -2 9 C-2.33 7.02 -2.66 5.04 -3 3 C-2.01 3 -1.02 3 0 3 C0 2.01 0 1.02 0 0 Z " fill="#CACFDA" transform="translate(57,58)"/>
<path d="M0 0 C0.33 0.99 0.66 1.98 1 3 C1.99 3 2.98 3 4 3 C3.67 4.65 3.34 6.3 3 8 C1.02 8.33 -0.96 8.66 -3 9 C-3.33 7.02 -3.66 5.04 -4 3 C-3.01 3 -2.02 3 -1 3 C-0.67 2.01 -0.34 1.02 0 0 Z " fill="#DEE2E9" transform="translate(92,48)"/>
<path d="M0 0 C5.52123552 0.75289575 5.52123552 0.75289575 7.9375 2 C10.15910355 3.21441811 10.15910355 3.21441811 13.5625 3.4375 C16.98194024 3.99704477 17.99786885 4.29123433 20 7 C12.63927766 6.57534294 6.67862176 4.01651083 0 1 C0 0.67 0 0.34 0 0 Z " fill="#7C7C7C" transform="translate(84,224)"/>
<path d="M0 0 C0.66 0 1.32 0 2 0 C2 0.99 2 1.98 2 3 C2.99 3.33 3.98 3.66 5 4 C4.67 5.32 4.34 6.64 4 8 C2.02 8 0.04 8 -2 8 C-2.33 6.35 -2.66 4.7 -3 3 C-2.01 3 -1.02 3 0 3 C0 2.01 0 1.02 0 0 Z " fill="#BFC4D1" transform="translate(34,122)"/>
<path d="M0 0 C0.33 0.99 0.66 1.98 1 3 C3.01508358 3.73323796 3.01508358 3.73323796 5 4 C4.34 5.32 3.68 6.64 3 8 C1.35 8 -0.3 8 -2 8 C-2.66 6.35 -3.32 4.7 -4 3 C-3.01 3 -2.02 3 -1 3 C-0.67 2.01 -0.34 1.02 0 0 Z " fill="#CBD0DA" transform="translate(35,101)"/>
<path d="M0 0 C1.65 1.32 3.3 2.64 5 4 C4.67 5.65 4.34 7.3 4 9 C1.03 8.505 1.03 8.505 -2 8 C-2.33 6.35 -2.66 4.7 -3 3 C-2.01 3 -1.02 3 0 3 C0 2.01 0 1.02 0 0 Z " fill="#C6CBD5" transform="translate(46,69)"/>
<path d="M0 0 C2.0625 1.75 2.0625 1.75 4 4 C3.75 6.25 3.75 6.25 3 8 C1.35 8 -0.3 8 -2 8 C-2.66 6.35 -3.32 4.7 -4 3 C-3.01 3 -2.02 3 -1 3 C-0.67 2.01 -0.34 1.02 0 0 Z " fill="#CED2DB" transform="translate(69,48)"/>
<path d="M0 0 C1.32 0 2.64 0 4 0 C4.350625 0.845625 4.70125 1.69125 5.0625 2.5625 C7.44496074 6.78944647 10.46473355 9.72624641 14 13 C11 13 11 13 9.0625 11.42578125 C2.19417476 4.38834951 2.19417476 4.38834951 0 0 Z " fill="#727272" transform="translate(45,194)"/>
<path d="M0 0 C0.33 0.99 0.66 1.98 1 3 C1.99 3.33 2.98 3.66 4 4 C3.67 5.65 3.34 7.3 3 9 C1.35 8.67 -0.3 8.34 -2 8 C-2.33 6.35 -2.66 4.7 -3 3 C-2.34 3 -1.68 3 -1 3 C-0.67 2.01 -0.34 1.02 0 0 Z " fill="#A7ACB6" transform="translate(35,80)"/>
<path d="M0 0 C4.95 0 9.9 0 15 0 C11.25 7.875 11.25 7.875 9 9 C9.66 6.36 10.32 3.72 11 1 C7.37 1 3.74 1 0 1 C0 0.67 0 0.34 0 0 Z " fill="#A40003" transform="translate(201,179)"/>
<path d="M0 0 C0.33 0.99 0.66 1.98 1 3 C1.99 3 2.98 3 4 3 C4 3.66 4 4.32 4 5 C3.34 5 2.68 5 2 5 C2 5.66 2 6.32 2 7 C0.68 7.33 -0.64 7.66 -2 8 C-2.66 6.35 -3.32 4.7 -4 3 C-3.01 3 -2.02 3 -1 3 C-0.67 2.01 -0.34 1.02 0 0 Z " fill="#DBDEE4" transform="translate(58,80)"/>
<path d="M0 0 C0.66 0 1.32 0 2 0 C2 0.99 2 1.98 2 3 C2.99 3.33 3.98 3.66 5 4 C4.67 5.32 4.34 6.64 4 8 C2.35 8 0.7 8 -1 8 C-0.67 5.36 -0.34 2.72 0 0 Z " fill="#7E838D" transform="translate(23,112)"/>
<path d="M0 0 C0.66 0 1.32 0 2 0 C2 0.66 2 1.32 2 2 C3.32 2.33 4.64 2.66 6 3 C5.01 3.33 4.02 3.66 3 4 C3 4.66 3 5.32 3 6 C1.68 6 0.36 6 -1 6 C-1.66 4.68 -2.32 3.36 -3 2 C-2.01 2 -1.02 2 0 2 C0 1.34 0 0.68 0 0 Z " fill="#E6E8ED" transform="translate(57,102)"/>
<path d="M0 0 C0.33 0 0.66 0 1 0 C1.5497272 5.63470383 -0.04952165 8.38987758 -3 13 C-3.66 13 -4.32 13 -5 13 C-3.58192622 8.52761347 -1.88695626 4.28853694 0 0 Z " fill="#BFBFBF" transform="translate(222,165)"/>
<path d="M0 0 C1.65 1.32 3.3 2.64 5 4 C4.01 5.32 3.02 6.64 2 8 C-1 7 -1 7 -2.1875 4.9375 C-2.5896875 3.9784375 -2.5896875 3.9784375 -3 3 C-2.01 3 -1.02 3 0 3 C0 2.01 0 1.02 0 0 Z " fill="#E0E2E7" transform="translate(46,112)"/>
<path d="M0 0 C2.475 0.99 2.475 0.99 5 2 C4.34 3.65 3.68 5.3 3 7 C1.125 6.75 1.125 6.75 -1 6 C-2.25 3.9375 -2.25 3.9375 -3 2 C-2.01 2 -1.02 2 0 2 C0 1.34 0 0.68 0 0 Z " fill="#E7E9ED" transform="translate(57,123)"/>
<path d="M0 0 C2.31 0 4.62 0 7 0 C7.33 1.98 7.66 3.96 8 6 C4.63408134 4.55746343 2.48952921 2.66735273 0 0 Z " fill="#6B0000" transform="translate(61,208)"/>
<path d="M0 0 C4.875 1.75 4.875 1.75 6 4 C6.99 4.66 7.98 5.32 9 6 C3.52173913 6.36521739 3.52173913 6.36521739 1.125 4.6875 C0 3 0 3 0 0 Z " fill="#ACA9AA" transform="translate(56,202)"/>
<path d="M0 0 C1.32 0.66 2.64 1.32 4 2 C3.67 2.99 3.34 3.98 3 5 C3.66 5.33 4.32 5.66 5 6 C2.36 6 -0.28 6 -3 6 C-2.34 5.01 -1.68 4.02 -1 3 C-0.67 2.01 -0.34 1.02 0 0 Z " fill="#6EA1D5" transform="translate(80,129)"/>
<path d="M0 0 C2.31 0.33 4.62 0.66 7 1 C7 1.66 7 2.32 7 3 C1.58461538 5.21538462 1.58461538 5.21538462 -1.375 4.125 C-1.91125 3.75375 -2.4475 3.3825 -3 3 C-2.34 3 -1.68 3 -1 3 C-0.67 2.01 -0.34 1.02 0 0 Z " fill="#4271BB" transform="translate(95,38)"/>
<path d="M0 0 C1.65 0 3.3 0 5 0 C5 2.64 5 5.28 5 8 C4.67 6.68 4.34 5.36 4 4 C2.68 3.67 1.36 3.34 0 3 C0 2.01 0 1.02 0 0 Z " fill="#ACACAC" transform="translate(30,165)"/>
<path d="M0 0 C0.66 0 1.32 0 2 0 C1.88590407 1.45922693 1.75834456 2.91740598 1.625 4.375 C1.55539063 5.18710938 1.48578125 5.99921875 1.4140625 6.8359375 C1 9 1 9 -1 11 C-2.41687119 6.74938644 -1.19320039 4.28148375 0 0 Z " fill="#0A1943" transform="translate(25,100)"/>
<path d="M0 0 C-1.65 1.65 -3.3 3.3 -5 5 C-5.99 4.67 -6.98 4.34 -8 4 C-5.97675095 -0.48005146 -4.79569304 -1.43870791 0 0 Z " fill="#2A4996" transform="translate(50,88)"/>
<path d="M0 0 C1.65 0.99 3.3 1.98 5 3 C4.34 4.98 3.68 6.96 3 9 C2.34 7.68 1.68 6.36 1 5 C1.33 4.67 1.66 4.34 2 4 C1.34 3.67 0.68 3.34 0 3 C0 2.01 0 1.02 0 0 Z " fill="#537ABC" transform="translate(59,122)"/>
<path d="M0 0 C0.66 0.33 1.32 0.66 2 1 C2 1.99 2 2.98 2 4 C3.32 4.33 4.64 4.66 6 5 C4.68 5.99 3.36 6.98 2 8 C0.68 7.01 -0.64 6.02 -2 5 C-1.01 5 -0.02 5 1 5 C0.67 3.35 0.34 1.7 0 0 Z " fill="#4B6CAD" transform="translate(54,84)"/>
<path d="M0 0 C0.66 0.33 1.32 0.66 2 1 C1.67 1.99 1.34 2.98 1 4 C-1.31 4.33 -3.62 4.66 -6 5 C-2.25 1.125 -2.25 1.125 0 0 Z " fill="#3055A2" transform="translate(91,38)"/>
<path d="M0 0 C0.9075 0.103125 1.815 0.20625 2.75 0.3125 C-0.3754959 2.95715038 -3.33788267 4.15664715 -7.25 5.3125 C-4.05 0.38942308 -4.05 0.38942308 0 0 Z " fill="#858484" transform="translate(173.25,221.6875)"/>
<path d="M0 0 C0.66 0.66 1.32 1.32 2 2 C1.34 3.32 0.68 4.64 0 6 C-1.32 5.67 -2.64 5.34 -4 5 C-2.68 3.35 -1.36 1.7 0 0 Z " fill="#820000" transform="translate(209,187)"/>
<path d="M0 0 C2.125 0.375 2.125 0.375 4 1 C3.67 2.32 3.34 3.64 3 5 C1.35 4.01 -0.3 3.02 -2 2 C-1.34 1.34 -0.68 0.68 0 0 Z " fill="#860608" transform="translate(208,61)"/>
<path d="M0 0 C0.66 0.33 1.32 0.66 2 1 C0.02 3.31 -1.96 5.62 -4 8 C-4.66 7.34 -5.32 6.68 -6 6 C-5.34 6 -4.68 6 -4 6 C-3.896875 5.38125 -3.79375 4.7625 -3.6875 4.125 C-3 2 -3 2 0 0 Z " fill="#2D4D96" transform="translate(67,56)"/>
<path d="M0 0 C3.3 0 6.6 0 10 0 C5 2.5 5 2.5 2 3 C1.34 2.67 0.68 2.34 0 2 C0 1.34 0 0.68 0 0 Z " fill="#A60001" transform="translate(155,209)"/>
<path d="M0 0 C1.2065625 0.0309375 1.2065625 0.0309375 2.4375 0.0625 C0.7875 1.7125 -0.8625 3.3625 -2.5625 5.0625 C-3.125 3.125 -3.125 3.125 -3.5625 1.0625 C-2.5625 0.0625 -2.5625 0.0625 0 0 Z " fill="#9B9B9B" transform="translate(208.5625,193.9375)"/>
<path d="M0 0 C1.32 0.33 2.64 0.66 4 1 C4.33 3.31 4.66 5.62 5 8 C2.20127563 5.47211993 0.54226981 3.79588866 0 0 Z " fill="#680000" transform="translate(37,179)"/>
<path d="M0 0 C0.66 0 1.32 0 2 0 C2.99 2.64 3.98 5.28 5 8 C3.68 8 2.36 8 1 8 C0.67 5.36 0.34 2.72 0 0 Z " fill="#B6B6B6" transform="translate(221,83)"/>
</svg>
