<svg xmlns="http://www.w3.org/2000/svg" viewBox="0 0 64 64" role="img" aria-label="United States flag">
  <rect width="64" height="64" fill="#b22234"/>
  <g fill="#fff">
    <rect y="6" width="64" height="6"/><rect y="18" width="64" height="6"/>
    <rect y="30" width="64" height="6"/><rect y="42" width="64" height="6"/>
    <rect y="54" width="64" height="6"/>
  </g>
  <rect width="30" height="28" fill="#3c3b6e"/>
  <g fill="#fff">
    <circle cx="5" cy="5" r="1.2"/><circle cx="11" cy="5" r="1.2"/><circle cx="17" cy="5" r="1.2"/><circle cx="23" cy="5" r="1.2"/>
    <circle cx="8" cy="10" r="1.2"/><circle cx="14" cy="10" r="1.2"/><circle cx="20" cy="10" r="1.2"/><circle cx="26" cy="10" r="1.2"/>
    <circle cx="5" cy="15" r="1.2"/><circle cx="11" cy="15" r="1.2"/><circle cx="17" cy="15" r="1.2"/><circle cx="23" cy="15" r="1.2"/>
    <circle cx="8" cy="20" r="1.2"/><circle cx="14" cy="20" r="1.2"/><circle cx="20" cy="20" r="1.2"/><circle cx="26" cy="20" r="1.2"/>
  </g>
</svg>
