<?xml version="1.0" encoding="UTF-8"?>
<svg version="1.1" xmlns="http://www.w3.org/2000/svg" width="256" height="256">
<path d="M0 0 C24.37185188 20.44661633 40.33207467 48.36749049 43.859375 80.19335938 C46.53364802 111.12083158 39.20326367 142.66774836 19.8203125 167.3828125 C18.26568414 169.15836174 16.67949574 170.90655246 15.0703125 172.6328125 C14.57047852 173.1788916 14.07064453 173.7249707 13.55566406 174.28759766 C-8.00761606 197.66178086 -37.45668108 211.56402721 -69.328125 212.91796875 C-101.87828037 213.72209874 -132.63928235 203.53447942 -156.6875 181.1875 C-180.10069159 158.82688153 -193.46164592 128.87420645 -194.28149414 96.4519043 C-194.52586122 66.74972893 -185.47835913 36.67651132 -164.9296875 14.6328125 C-164.42985352 14.0867334 -163.93001953 13.5406543 -163.41503906 12.97802734 C-121.21128497 -32.77003485 -49.13895251 -38.42746422 0 0 Z " fill="#E9E8E9" transform="translate(202.9296875,36.3671875)"/>
<path d="M0 0 C11.39205783 11.05589875 18.36976135 25.43893081 18.875 41.375 C18.51003677 57.37255484 13.10103584 71.97177244 1.86328125 83.51171875 C-12.0051269 96.626665 -26.31893566 100.22003621 -44.96484375 99.9609375 C-51.37275301 99.74136198 -56.67952511 98.54108461 -62.4375 95.6875 C-63.4378125 95.20152344 -64.438125 94.71554688 -65.46875 94.21484375 C-80.02987528 86.43787911 -89.37838304 74.25401373 -94.4375 58.6875 C-98.5458936 43.74788691 -96.5917687 28.39682201 -89.4375 14.6875 C-80.8014019 0.60198628 -68.02968872 -9.37543217 -52 -13.8125 C-33.20244756 -16.80711968 -14.57668798 -12.516457 0 0 Z " fill="#E41C34" transform="translate(166.4375,83.3125)"/>
<path d="M0 0 C24.37185188 20.44661633 40.33207467 48.36749049 43.859375 80.19335938 C46.53364802 111.12083158 39.20326367 142.66774836 19.8203125 167.3828125 C18.26568414 169.15836174 16.67949574 170.90655246 15.0703125 172.6328125 C14.57047852 173.1788916 14.07064453 173.7249707 13.55566406 174.28759766 C-8.00761606 197.66178086 -37.45668108 211.56402721 -69.328125 212.91796875 C-101.87828037 213.72209874 -132.63928235 203.53447942 -156.6875 181.1875 C-180.10069159 158.82688153 -193.46164592 128.87420645 -194.28149414 96.4519043 C-194.52586122 66.74972893 -185.47835913 36.67651132 -164.9296875 14.6328125 C-164.42985352 14.0867334 -163.93001953 13.5406543 -163.41503906 12.97802734 C-121.21128497 -32.77003485 -49.13895251 -38.42746422 0 0 Z M-102.9296875 -11.3671875 C-104.74726563 -10.87412109 -104.74726563 -10.87412109 -106.6015625 -10.37109375 C-122.38522906 -5.6392684 -135.4851446 3.01738876 -147.9296875 13.6328125 C-148.60257813 14.20257813 -149.27546875 14.77234375 -149.96875 15.359375 C-167.33202981 31.406008 -179.61436691 57.30641185 -181.13476562 80.80200195 C-181.23277778 84.16516921 -181.25840787 87.51827796 -181.2421875 90.8828125 C-181.23799805 92.07140869 -181.23380859 93.26000488 -181.22949219 94.48461914 C-181.1172017 103.22834474 -180.36536483 111.19756633 -177.9296875 119.6328125 C-177.66285156 120.6228125 -177.39601562 121.6128125 -177.12109375 122.6328125 C-169.20707007 149.08323831 -150.6371075 171.51899028 -126.78125 185.1953125 C-100.75207542 198.316869 -71.55885915 202.0953695 -43.41015625 193.56640625 C-13.89996916 183.70798653 8.0054264 164.30093637 22.0703125 136.6328125 C33.86714178 110.31209469 34.81995815 80.03120648 24.74267578 53.05541992 C19.67340938 40.24695834 12.08304794 29.01909635 3.0703125 18.6328125 C2.31427734 17.75109375 2.31427734 17.75109375 1.54296875 16.8515625 C-15.00523006 -1.00196497 -40.79877374 -12.957229 -65.00317383 -14.57226562 C-68.23171914 -14.67001721 -71.44972761 -14.69617542 -74.6796875 -14.6796875 C-76.3953894 -14.67231567 -76.3953894 -14.67231567 -78.14575195 -14.66479492 C-86.77365903 -14.54553201 -94.60305163 -13.75867478 -102.9296875 -11.3671875 Z " fill="#000000" transform="translate(202.9296875,36.3671875)"/>
<path d="M0 0 C0.99128906 0.26683594 1.98257813 0.53367187 3.00390625 0.80859375 C16.70403536 4.91315973 29.0375602 11.88287817 40 21 C40.87269531 21.72058594 41.74539062 22.44117187 42.64453125 23.18359375 C57.3852774 35.88644873 68.04154063 52.51820969 74 71 C74.21027832 71.65210449 74.42055664 72.30420898 74.63720703 72.97607422 C80.20794961 91.22323339 80.2862582 112.69261229 75 131 C74.73316406 131.99 74.46632812 132.98 74.19140625 134 C66.27738257 160.45042581 47.70742 182.88617778 23.8515625 196.5625 C-0.70576901 208.9420863 -29.15569673 213.66506064 -56 206 C-56.99128906 205.73316406 -57.98257813 205.46632812 -59.00390625 205.19140625 C-72.70403536 201.08684027 -85.0375602 194.11712183 -96 185 C-97.30904297 183.91912109 -97.30904297 183.91912109 -98.64453125 182.81640625 C-118.2085207 165.9571158 -131.10809544 141.69736244 -134 116 C-135.65701429 83.43384265 -128.64387531 56.6968875 -107.37109375 31.58984375 C-99.80277922 23.32329922 -91.46767313 16.91523033 -82 11 C-81.34 11.33 -80.68 11.66 -80 12 C-80.87140625 12.59425781 -81.7428125 13.18851563 -82.640625 13.80078125 C-101.54155726 26.86878486 -116.57242465 42.71727395 -124 65 C-123.34 65.99 -122.68 66.98 -122 68 C-122.390625 71.1796875 -122.390625 71.1796875 -123.25 74.875 C-123.52328125 76.08929688 -123.7965625 77.30359375 -124.078125 78.5546875 C-125 82 -125 82 -126.046875 84.4453125 C-128.39999422 90.75244351 -128.13009376 97.38403582 -127.75 104 C-127.70407715 104.8252417 -127.6581543 105.6504834 -127.61083984 106.50073242 C-127.08941854 114.50893302 -125.69308975 122.16043275 -124 130 C-123.73329791 131.34458235 -123.46897596 132.689639 -123.20703125 134.03515625 C-122.28966819 140.60043035 -122.28966819 140.60043035 -119 146 C-118.33333333 147.66666667 -117.66666667 149.33333333 -117 151 C-116.34 151.66 -115.68 152.32 -115 153 C-114.875 155.625 -114.875 155.625 -115 158 C-114.34 158 -113.68 158 -113 158 C-113 158.99 -113 159.98 -113 161 C-112.34 161 -111.68 161 -111 161 C-111 161.99 -111 162.98 -111 164 C-110.01 164.33 -109.02 164.66 -108 165 C-107.731875 165.763125 -107.46375 166.52625 -107.1875 167.3125 C-105.59876146 170.90806616 -103.25210577 171.89968169 -100 174 C-99.30251417 175.31747324 -98.63040043 176.64914193 -98 178 C-96.6846659 178.70151152 -95.34882408 179.36525925 -94 180 C-92.64691687 181.31328657 -91.31129922 182.64499081 -90 184 C-89.34 184.33 -88.68 184.66 -88 185 C-88 185.66 -88 186.32 -88 187 C-87.45085937 187.27070313 -86.90171875 187.54140625 -86.3359375 187.8203125 C-80.71254003 190.66022226 -75.06815263 193.52274812 -69.9375 197.1875 C-66.55295828 199.27583425 -63.36781032 200.24075615 -59.55078125 201.28125 C-57.25749665 201.92744352 -55.09790133 202.71244213 -52.875 203.5625 C-48.64348136 204.99563465 -44.35503001 205.62933017 -39.9375 206.1875 C-39.27669434 206.27136963 -38.61588867 206.35523926 -37.93505859 206.44165039 C-17.71223287 208.76464413 3.02649229 204.21778537 20 193 C21.49713454 192.03719631 22.99695238 191.07854634 24.5 190.125 C25.1290625 189.71507812 25.758125 189.30515625 26.40625 188.8828125 C28 188 28 188 30 188 C30.33 187.34 30.66 186.68 31 186 C31.99 185.7834375 31.99 185.7834375 33 185.5625 C33.66 185.376875 34.32 185.19125 35 185 C35.33 184.01 35.66 183.02 36 182 C37.64302953 180.31002677 39.31471312 178.64783606 41 177 C42.58026013 175.13699725 44.13251782 173.25553864 45.66796875 171.35546875 C46.10753906 170.90816406 46.54710937 170.46085938 47 170 C47.66 170 48.32 170 49 170 C49.2475 169.443125 49.495 168.88625 49.75 168.3125 C51.22043954 165.59218686 53.05477236 163.40292826 55 161 C60.94699544 152.87243957 65.18494046 143.64200036 68 134 C68.26683594 133.24203125 68.53367188 132.4840625 68.80859375 131.703125 C74.91719541 112.88044811 73.85640523 85.91260393 66 68 C65.60965409 65.8151862 65.23671902 63.62723528 64.875 61.4375 C63.14040265 52.92713177 59.11303669 46.84609566 54 40 C53.26136719 39.00742188 52.52273437 38.01484375 51.76171875 36.9921875 C35.49896149 16.25211696 12.01774638 3.57705062 -13.87109375 -0.62890625 C-18.82198799 -1.16952464 -23.77503492 -1.1490295 -28.75 -1.125 C-30.19947021 -1.12209961 -30.19947021 -1.12209961 -31.67822266 -1.11914062 C-38.49752599 -1.07791562 -45.22269635 -0.8006941 -52 0 C-38.92994757 -7.84203146 -13.88502735 -3.96469879 0 0 Z " fill="#929292" transform="translate(156,25)"/>
<path d="M0 0 C0.66 0.33 1.32 0.66 2 1 C1.12859375 1.59425781 0.2571875 2.18851563 -0.640625 2.80078125 C-19.54155726 15.86878486 -34.57242465 31.71727395 -42 54 C-41.34 54.99 -40.68 55.98 -40 57 C-40.390625 60.1796875 -40.390625 60.1796875 -41.25 63.875 C-41.52328125 65.08929688 -41.7965625 66.30359375 -42.078125 67.5546875 C-43 71 -43 71 -44.046875 73.4453125 C-46.40013352 79.75281689 -46.12950333 86.38374027 -45.75 93 C-45.70480225 93.8237915 -45.65960449 94.64758301 -45.61303711 95.49633789 C-45.0963815 103.50334492 -43.62774815 111.15192855 -42 119 C-41.30079293 122.99485988 -40.64458401 126.99599577 -40 131 C-40.66 131 -41.32 131 -42 131 C-42.33 129.02 -42.66 127.04 -43 125 C-43.66 125 -44.32 125 -45 125 C-45.26554687 123.99839844 -45.53109375 122.99679688 -45.8046875 121.96484375 C-46.16142431 120.62238679 -46.51819707 119.27993939 -46.875 117.9375 C-47.04902344 117.28072266 -47.22304688 116.62394531 -47.40234375 115.94726562 C-47.57636719 115.29306641 -47.75039063 114.63886719 -47.9296875 113.96484375 C-48.10508057 113.29662598 -48.28047363 112.6284082 -48.46118164 111.93994141 C-48.95070214 110.17749018 -49.52745207 108.43985231 -50.11328125 106.70703125 C-55.55228343 83.96864768 -49.73532269 57.08624323 -37.75292969 37.39672852 C-27.81544566 21.78713509 -15.65076539 9.77831415 0 0 Z " fill="#A2A2A2" transform="translate(74,36)"/>
<path d="M0 0 C0.99128906 0.26683594 1.98257813 0.53367187 3.00390625 0.80859375 C16.70403536 4.91315973 29.0375602 11.88287817 40 21 C40.87269531 21.72058594 41.74539062 22.44117187 42.64453125 23.18359375 C57.3852774 35.88644873 68.04154063 52.51820969 74 71 C74.21027832 71.65210449 74.42055664 72.30420898 74.63720703 72.97607422 C78.94487683 87.085995 78.42307389 101.38442433 78 116 C77.67 116 77.34 116 77 116 C76.95101562 114.76765625 76.90203125 113.5353125 76.8515625 112.265625 C76.23724867 98.12065526 74.41245617 85.50660314 70 72 C69.07544065 69.10663355 68.16230189 66.20974962 67.25 63.3125 C67.02723389 62.61672852 66.80446777 61.92095703 66.57495117 61.20410156 C65 56.22510398 65 56.22510398 65 54 C63.515 53.505 63.515 53.505 62 53 C60.5625 50.734375 60.5625 50.734375 59 47.75 C45.48415658 23.79787242 22.50363429 8.84855887 -3.55761719 1.55957031 C-11.98390482 -0.67813169 -20.06987037 -1.16692576 -28.75 -1.125 C-29.71631348 -1.12306641 -30.68262695 -1.12113281 -31.67822266 -1.11914062 C-38.49752599 -1.07791562 -45.22269635 -0.8006941 -52 0 C-38.92994757 -7.84203146 -13.88502735 -3.96469879 0 0 Z " fill="#909090" transform="translate(156,25)"/>
<path d="M0 0 C2.55312368 3.04043631 3.70440865 5.69232838 4.75390625 9.5078125 C5.05103516 10.57773438 5.34816406 11.64765625 5.65429688 12.75 C6.10385742 14.420625 6.10385742 14.420625 6.5625 16.125 C6.86607422 17.21554688 7.16964844 18.30609375 7.48242188 19.4296875 C9.06961784 25.21136866 10.48463169 30.98026498 11.58569336 36.87451172 C11.85566698 38.25953842 12.17135245 39.63666299 12.53808594 40.99926758 C15.39512272 53.37422341 13.05644424 67.21095892 9 79 C8.34 79 7.68 79 7 79 C6.67 80.65 6.34 82.3 6 84 C4.515 84.495 4.515 84.495 3 85 C3.28875 83.72125 3.5775 82.4425 3.875 81.125 C4.05675781 80.29226562 4.23851562 79.45953125 4.42578125 78.6015625 C4.78181979 76.98848993 5.15160616 75.37830568 5.54296875 73.7734375 C9.74471946 55.38682912 10.24005392 31.166779 2 14 C0.3555533 9.15320972 -0.20881406 5.11594448 0 0 Z " fill="#ABABAB" transform="translate(220,79)"/>
<path d="M0 0 C0.66 0.33 1.32 0.66 2 1 C1.54729698 3.23031689 1.08760374 5.45921563 0.625 7.6875 C0.36976562 8.92886719 0.11453125 10.17023438 -0.1484375 11.44921875 C-1 15 -1 15 -2.0390625 17.45703125 C-4.41579427 23.74667508 -4.12889832 30.39428808 -3.75 37 C-3.70480225 37.8237915 -3.65960449 38.64758301 -3.61303711 39.49633789 C-3.0963815 47.50334492 -1.62774815 55.15192855 0 63 C0.69920707 66.99485988 1.35541599 70.99599577 2 75 C1.34 75 0.68 75 0 75 C-0.495 72.03 -0.495 72.03 -1 69 C-1.66 69 -2.32 69 -3 69 C-6.78914449 53.86033787 -7.49986748 39.57279458 -7 24 C-6.34 24 -5.68 24 -5 24 C-4.97421875 23.18917969 -4.9484375 22.37835938 -4.921875 21.54296875 C-4.51996725 13.69663334 -3.10761231 7.21255135 0 0 Z " fill="#BEBEBE" transform="translate(32,92)"/>
<path d="M0 0 C15.76209512 17.870621 15.6430491 44.78512701 15 67 C14.67 67 14.34 67 14 67 C13.95101562 65.76765625 13.90203125 64.5353125 13.8515625 63.265625 C13.23724867 49.12065526 11.41245617 36.50660314 7 23 C6.07544065 20.10663355 5.16230189 17.20974962 4.25 14.3125 C4.02723389 13.61672852 3.80446777 12.92095703 3.57495117 12.20410156 C2 7.22510398 2 7.22510398 2 5 C1.34 5 0.68 5 0 5 C0 3.35 0 1.7 0 0 Z " fill="#8F8F8F" transform="translate(219,74)"/>
<path d="M0 0 C0.33 0 0.66 0 1 0 C0.0071261 18.53364618 -8.99028694 37.98866809 -21 52 C-21.99 52.495 -21.99 52.495 -23 53 C-22.731875 52.484375 -22.46375 51.96875 -22.1875 51.4375 C-21.31756962 49.65185344 -20.51395426 47.83349022 -19.75 46 C-17.4431264 40.53761018 -14.68160396 35.28510294 -12 30 C-11.34 30 -10.68 30 -10 30 C-9.505 25.545 -9.505 25.545 -9 21 C-8.01 20.67 -7.02 20.34 -6 20 C-5.67 18.35 -5.34 16.7 -5 15 C-4.34 15 -3.68 15 -3 15 C-2.86722656 14.16855469 -2.73445313 13.33710938 -2.59765625 12.48046875 C-2.42105469 11.39378906 -2.24445313 10.30710938 -2.0625 9.1875 C-1.80146484 7.56908203 -1.80146484 7.56908203 -1.53515625 5.91796875 C-1 3 -1 3 0 0 Z " fill="#A2A2A2" transform="translate(232,143)"/>
<path d="M0 0 C0.66 0.33 1.32 0.66 2 1 C1.12859375 1.59425781 0.2571875 2.18851563 -0.640625 2.80078125 C-19.48282518 15.82817781 -31.20314292 30.28164663 -41 51 C-41.33 51.66 -41.66 52.32 -42 53 C-42.66 53 -43.32 53 -44 53 C-44.99 56.63 -45.98 60.26 -47 64 C-48.21456033 59.14175868 -47.00205396 56.53494604 -45.125 52.125 C-44.80837402 51.3726709 -44.49174805 50.6203418 -44.16552734 49.84521484 C-34.95648833 28.73169966 -19.4139949 12.12951165 0 0 Z " fill="#848484" transform="translate(74,36)"/>
<path d="M0 0 C2.41278955 2.90526418 3.60257989 5.35179913 4.5703125 8.9921875 C4.82683594 9.94480469 5.08335937 10.89742187 5.34765625 11.87890625 C5.60417969 12.86761719 5.86070312 13.85632813 6.125 14.875 C6.38925781 15.85597656 6.65351563 16.83695313 6.92578125 17.84765625 C8.7970714 24.88636691 10.12564462 31.43498719 10.1328125 38.75390625 C10.13474609 40.65366211 10.13474609 40.65366211 10.13671875 42.59179688 C10.13285156 43.90212891 10.12898437 45.21246094 10.125 46.5625 C10.12886719 47.87669922 10.13273438 49.19089844 10.13671875 50.54492188 C10.13542969 51.81013672 10.13414062 53.07535156 10.1328125 54.37890625 C10.13168457 55.5294751 10.13055664 56.68004395 10.12939453 57.86547852 C10.01243431 60.69878471 9.64911625 63.24592932 9 66 C8.34 66 7.68 66 7 66 C7.08378906 64.94683594 7.16757813 63.89367187 7.25390625 62.80859375 C8.4290511 46.75765201 9.10049912 28.79270651 2 14 C0.3555533 9.15320972 -0.20881406 5.11594448 0 0 Z " fill="#C6C6C6" transform="translate(220,79)"/>
<path d="M0 0 C0.33 0 0.66 0 1 0 C1 1.65 1 3.3 1 5 C0.34 5 -0.32 5 -1 5 C-1.268125 5.86625 -1.53625 6.7325 -1.8125 7.625 C-2.97540095 10.9300869 -4.4093264 13.88227975 -6 17 C-6.495 18.175625 -6.99 19.35125 -7.5 20.5625 C-10.1663568 26.672901 -13.08498688 30.18683255 -18.16015625 34.44921875 C-20.0768666 36.02023639 -20.0768666 36.02023639 -22 38 C-23.32 38 -24.64 38 -26 38 C-24.64763423 35.06120516 -23.10057341 32.70767089 -21 30.25 C-20.484375 29.63640625 -19.96875 29.0228125 -19.4375 28.390625 C-18 27 -18 27 -16 27 C-15.7525 26.443125 -15.505 25.88625 -15.25 25.3125 C-13.77956046 22.59218686 -11.94522764 20.40292826 -10 18 C-5.90449353 12.40280783 -3.02239102 6.22612551 0 0 Z " fill="#B1B1B1" transform="translate(221,168)"/>
<path d="M0 0 C1.10468977 3.34502384 0.84766406 5.5742358 0.078125 8.984375 C-1.1319702 15.11633888 -1.29723535 21.014934 -1.25 27.25 C-1.25773437 28.28640625 -1.26546875 29.3228125 -1.2734375 30.390625 C-1.25907147 36.02210843 -0.84842908 40.6824178 1 46 C2.4427572 51.12178807 3.8693513 56.21002419 4.875 61.4375 C5.91108553 66.41071054 7.98378727 70.88536741 10.07421875 75.49609375 C10.37972656 76.32238281 10.68523438 77.14867187 11 78 C10.505 78.99 10.505 78.99 10 80 C-3.00555433 56.68745016 -7.53253654 28.1858677 -0.65625 2.11328125 C-0.33140625 1.06720703 -0.33140625 1.06720703 0 0 Z " fill="#797979" transform="translate(25,100)"/>
<path d="M0 0 C-19.88829312 7.75306342 -40.74310726 10.78714756 -62 7 C-62 6.67 -62 6.34 -62 6 C-61.37770508 6.01571045 -60.75541016 6.0314209 -60.11425781 6.04760742 C-48.91708412 6.2910689 -37.90480851 6.33609207 -26.8125 4.625 C-25.99491211 4.49891357 -25.17732422 4.37282715 -24.33496094 4.24291992 C-20.30000965 3.56092636 -16.77639916 2.61845678 -13 1 C-11.30278343 0.55893004 -9.59341832 0.16196428 -7.875 -0.1875 C-7.02679688 -0.36667969 -6.17859375 -0.54585937 -5.3046875 -0.73046875 C-3 -1 -3 -1 0 0 Z " fill="#858585" transform="translate(170,226)"/>
<path d="M0 0 C0 3 0 3 -1.7578125 5.12109375 C-12.66798101 15.79721574 -12.66798101 15.79721574 -17.875 16.25 C-18.57625 16.1675 -19.2775 16.085 -20 16 C-20.33 16.66 -20.66 17.32 -21 18 C-21.66 17.34 -22.32 16.68 -23 16 C-22.34 16 -21.68 16 -21 16 C-20.67 15.34 -20.34 14.68 -20 14 C-19.34 13.855625 -18.68 13.71125 -18 13.5625 C-17.01 13.2840625 -17.01 13.2840625 -16 13 C-15.67 12.01 -15.34 11.02 -15 10 C-13.07272122 9.33542111 -11.14461551 8.67306655 -9.2109375 8.02734375 C-5.36428003 6.23993931 -2.76135141 3.14966645 0 0 Z " fill="#8F8F8F" transform="translate(207,197)"/>
<path d="M0 0 C0.99 0.99 1.98 1.98 3 3 C2.73445313 3.64324219 2.46890625 4.28648438 2.1953125 4.94921875 C-0.64727477 12.22167742 -2.0649254 19.2610273 -3 27 C-3.33 27 -3.66 27 -4 27 C-4.44424132 17.16499086 -4.32205334 9.10718381 0 0 Z " fill="#AFAFAF" transform="translate(30,89)"/>
<path d="M0 0 C0.66 0 1.32 0 2 0 C2 0.99 2 1.98 2 3 C2.99 3.33 3.98 3.66 5 4 C5.268125 4.763125 5.53625 5.52625 5.8125 6.3125 C7.40123854 9.90806616 9.74789423 10.89968169 13 13 C14.375 15.25 14.375 15.25 15 17 C9.9067643 15.49518036 6.52307571 14.10887405 3.375 9.75 C1.78858247 6.57716493 0.87462842 3.43123456 0 0 Z " fill="#ABABAB" transform="translate(43,186)"/>
<path d="M0 0 C1 3 1 3 -0.40625 6.0390625 C-1.09167561 7.24158126 -1.79041756 8.43657566 -2.5 9.625 C-2.86222656 10.24584473 -3.22445312 10.86668945 -3.59765625 11.50634766 C-6.66494757 16.66169487 -10.12233019 21.41950254 -14 26 C-14 23 -14 23 -12.6875 21.3125 C-10.33742673 18.09202922 -9.31586176 14.75960503 -8 11 C-7.01 11 -6.02 11 -5 11 C-4.731875 10.29875 -4.46375 9.5975 -4.1875 8.875 C-2.9318551 5.8350176 -1.49764877 2.9272226 0 0 Z " fill="#7D7D7D" transform="translate(224,170)"/>
<path d="M0 0 C0.66 0.33 1.32 0.66 2 1 C1.54729698 3.23031689 1.08760374 5.45921563 0.625 7.6875 C0.36976562 8.92886719 0.11453125 10.17023438 -0.1484375 11.44921875 C-0.87622589 14.48389603 -1.8193564 17.12710058 -3 20 C-3.3813074 22.32597511 -3.72460254 24.65912158 -4 27 C-4.33 27 -4.66 27 -5 27 C-5.57065989 17.44673071 -3.69053396 8.8091441 0 0 Z " fill="#C4C4C4" transform="translate(32,92)"/>
<path d="M0 0 C4.80780256 1.40049666 6.84640666 3.79520888 9.8125 7.75 C10.60269531 8.77609375 11.39289063 9.8021875 12.20703125 10.859375 C14.15880268 14.27816417 14.38760855 16.13548495 14 20 C11.36804941 16.5556145 8.89763587 13.005299 6.4375 9.4375 C6.03853516 8.86064453 5.63957031 8.28378906 5.22851562 7.68945312 C3.46616284 5.13860193 1.71985842 2.57978763 0 0 Z " fill="#9F9F9F" transform="translate(205,58)"/>
<path d="M0 0 C1.33333333 0.66666667 2.66666667 1.33333333 4 2 C4.94875 2.350625 5.8975 2.70125 6.875 3.0625 C11.28942564 5.7994439 13.39375199 9.59155921 16 14 C12.36953654 12.43805642 9.78806795 10.21034833 6.875 7.5625 C6.00617187 6.78003906 5.13734375 5.99757812 4.2421875 5.19140625 C2 3 2 3 0 0 Z " fill="#7E7E7E" transform="translate(48,198)"/>
<path d="M0 0 C3.73305042 4.16346865 5.73715677 8.45092523 7.8125 13.5625 C8.29879883 14.69461914 8.29879883 14.69461914 8.79492188 15.84960938 C9.24641602 16.94692383 9.24641602 16.94692383 9.70703125 18.06640625 C9.9800708 18.72584229 10.25311035 19.38527832 10.53442383 20.06469727 C11.0888643 22.36939029 10.73697316 23.77421095 10 26 C9.67386719 25.13117188 9.34773437 24.26234375 9.01171875 23.3671875 C8.57472656 22.21476562 8.13773438 21.06234375 7.6875 19.875 C7.25824219 18.73804687 6.82898438 17.60109375 6.38671875 16.4296875 C5.0465528 12.97845631 5.0465528 12.97845631 3.33203125 9.6953125 C2 7 2 7 2 5 C1.34 5 0.68 5 0 5 C0 3.35 0 1.7 0 0 Z " fill="#7E7E7E" transform="translate(219,74)"/>
<path d="M0 0 C-0.33 0.99 -0.66 1.98 -1 3 C-2.155 3.020625 -3.31 3.04125 -4.5 3.0625 C-10.35472458 3.65265624 -15.33734007 6.15052512 -20.58984375 8.64868164 C-22.37003843 9.4837898 -24.18311857 10.24804214 -26 11 C-26.66 10.67 -27.32 10.34 -28 10 C-8.98630137 0 -8.98630137 0 0 0 Z " fill="#848484" transform="translate(104,25)"/>
<path d="M0 0 C2 3 2 3 2.375 6.125 C3.03795537 10.23532329 4.34045913 13.28022287 6.16015625 16.984375 C7 19 7 19 7 22 C6.34 22 5.68 22 5 22 C4.67 20.02 4.34 18.04 4 16 C3.34 16 2.68 16 2 16 C0.40837921 10.42932723 -0.20674944 5.78898419 0 0 Z " fill="#B4B4B4" transform="translate(27,145)"/>
<path d="M0 0 C5.50719921 3.90510489 10.35827355 8.09717644 15 13 C14.67 13.66 14.34 14.32 14 15 C12.41540185 13.58474822 10.83237609 12.1677358 9.25 10.75 C8.36828125 9.96109375 7.4865625 9.1721875 6.578125 8.359375 C1.90343075 4.08132147 1.90343075 4.08132147 0 2 C0 1.34 0 0.68 0 0 Z " fill="#868686" transform="translate(194,45)"/>
<path d="M0 0 C0.33 0 0.66 0 1 0 C1 1.65 1 3.3 1 5 C0.34 5 -0.32 5 -1 5 C-1.2475 5.845625 -1.495 6.69125 -1.75 7.5625 C-3.13973627 11.38427474 -4.91120838 14.51868063 -7 18 C-7.99 17.67 -8.98 17.34 -10 17 C-9.34 16.67 -8.68 16.34 -8 16 C-6.97984916 14.37558262 -6.97984916 14.37558262 -6.0546875 12.40234375 C-5.70019531 11.68369141 -5.34570312 10.96503906 -4.98046875 10.22460938 C-4.61566406 9.46986328 -4.25085938 8.71511719 -3.875 7.9375 C-3.50246094 7.17888672 -3.12992188 6.42027344 -2.74609375 5.63867188 C-1.8253392 3.76174913 -0.91197136 1.88120604 0 0 Z " fill="#C4C4C4" transform="translate(221,168)"/>
<path d="M0 0 C0.33 0 0.66 0 1 0 C1.38808856 11.10364498 1.38808856 11.10364498 -1 15 C-1.99 15.33 -2.98 15.66 -4 16 C-2.84941444 10.60204011 -1.57578241 5.29012667 0 0 Z " fill="#C0C0C0" transform="translate(227,148)"/>
<path d="M0 0 C0.33 0 0.66 0 1 0 C0.44636539 8.02770189 -1.65687944 15.33854067 -4 23 C-4.33 23 -4.66 23 -5 23 C-5 20.36 -5 17.72 -5 15 C-4.34 15 -3.68 15 -3 15 C-2.86722656 14.16855469 -2.73445312 13.33710938 -2.59765625 12.48046875 C-2.33275391 10.85044922 -2.33275391 10.85044922 -2.0625 9.1875 C-1.88847656 8.10855469 -1.71445313 7.02960938 -1.53515625 5.91796875 C-1 3 -1 3 0 0 Z " fill="#767676" transform="translate(232,143)"/>
<path d="M0 0 C3.29680965 0.65784963 5.84117922 1.89420573 8.75 3.5625 C9.94882813 4.24505859 9.94882813 4.24505859 11.171875 4.94140625 C11.77515625 5.29074219 12.3784375 5.64007813 13 6 C13 6.33 13 6.66 13 7 C10.03 6.67 7.06 6.34 4 6 C3.67 4.68 3.34 3.36 3 2 C2.01 1.67 1.02 1.34 0 1 C0 0.67 0 0.34 0 0 Z " fill="#A4A4A4" transform="translate(75,217)"/>
<path d="M0 0 C0.66 0.33 1.32 0.66 2 1 C-0.05798211 4.60146869 -2.19501075 7.93204301 -5 11 C-5.99 11 -6.98 11 -8 11 C-6.63629701 8.00779732 -5.05091917 5.70973471 -2.875 3.25 C-2.33617187 2.63640625 -1.79734375 2.0228125 -1.2421875 1.390625 C-0.62730469 0.70226562 -0.62730469 0.70226562 0 0 Z " fill="#BEBEBE" transform="translate(203,195)"/>
<path d="M0 0 C2.23637531 2.23637531 2.83847971 4.09619927 4 7 C4.66 7.66 5.32 8.32 6 9 C5.625 11.125 5.625 11.125 5 13 C1.10364046 8.22381734 -0.13469529 6.19598355 0 0 Z " fill="#B5B5B5" transform="translate(35,169)"/>
<path d="M0 0 C3.3422513 1.55925113 5.43256389 3.34698268 8 6 C8.66 6.33 9.32 6.66 10 7 C10 7.66 10 8.32 10 9 C7.8125 9 7.8125 9 5 8 C3.03811466 5.49196821 1.50078257 2.80358957 0 0 Z " fill="#B1B1B1" transform="translate(58,203)"/>
<path d="M0 0 C6.14338735 -0.76792342 11.07871205 2.71914136 16 6 C10.03435204 5.49228528 5.36190101 3.61407872 0 1 C0 0.67 0 0.34 0 0 Z " fill="#787878" transform="translate(84,224)"/>
<path d="M0 0 C5.01113235 1.4317521 6.94469549 3.98445693 10 8 C9.67 8.66 9.34 9.32 9 10 C5.01930733 7.12505529 2.56428003 4.17882671 0 0 Z " fill="#949494" transform="translate(205,58)"/>
<path d="M0 0 C0.66 0 1.32 0 2 0 C1.32902328 4.19360449 -0.8558394 7.40334352 -3 11 C-3.75 9.4375 -3.75 9.4375 -4 7 C-2.86915563 4.49713591 -1.47860484 2.32992278 0 0 Z " fill="#A5A5A5" transform="translate(212,186)"/>
<path d="M0 0 C2.60334924 2.71182212 2.99456691 3.89133813 3.1875 7.75 C3.0946875 9.35875 3.0946875 9.35875 3 11 C0.39665076 8.28817788 0.00543309 7.10866187 -0.1875 3.25 C-0.125625 2.1775 -0.06375 1.105 0 0 Z " fill="#BEBEBE" transform="translate(220,79)"/>
<path d="M0 0 C-0.33 0.99 -0.66 1.98 -1 3 C-4.80269732 4.6900877 -7.05272168 5.19873962 -11 4 C-9.5437455 3.32880451 -8.08492133 2.66318193 -6.625 2 C-5.81289062 1.62875 -5.00078125 1.2575 -4.1640625 0.875 C-2 0 -2 0 0 0 Z " fill="#B2B2B2" transform="translate(171,222)"/>
<path d="M0 0 C0.66 0 1.32 0 2 0 C2.33 1.98 2.66 3.96 3 6 C3.66 6 4.32 6 5 6 C4.67 6.99 4.34 7.98 4 9 C1.18167487 7.59083743 0.97406539 5.92219617 0 3 C0 2.01 0 1.02 0 0 Z " fill="#A7A7A7" transform="translate(29,161)"/>
<path d="M0 0 C-0.33 0.99 -0.66 1.98 -1 3 C-4.63 3.33 -8.26 3.66 -12 4 C-11 2 -11 2 -7.6875 0.875 C-4 0 -4 0 0 0 Z " fill="#9D9D9D" transform="translate(104,25)"/>
<path d="M0 0 C1.32 0.33 2.64 0.66 4 1 C2.68 2.65 1.36 4.3 0 6 C-0.66 5.67 -1.32 5.34 -2 5 C-1.34 3.35 -0.68 1.7 0 0 Z " fill="#949494" transform="translate(194,206)"/>
<path d="M0 0 C0.99 0.33 1.98 0.66 3 1 C2.34 1 1.68 1 1 1 C0.34 2.32 -0.32 3.64 -1 5 C-2.65 5 -4.3 5 -6 5 C-5.195625 4.360625 -4.39125 3.72125 -3.5625 3.0625 C-1.7249496 1.59396498 -1.7249496 1.59396498 0 0 Z " fill="#B6B6B6" transform="translate(177,217)"/>
</svg>
