<svg xmlns="http://www.w3.org/2000/svg" viewBox="0 0 64 64" role="img" aria-label="Korean flag">
  <rect width="64" height="64" fill="#ffffff"/>
  <g transform="translate(32 32)">
    <path d="M0-11a11 11 0 0 1 0 22a11 11 0 0 1 0-22" fill="#c60c30"/>
    <path d="M0 11a11 11 0 0 1 0-22a11 11 0 0 1 0 22" fill="#003478"/>
  </g>
  <g fill="#000">
    <rect x="10" y="13" width="10" height="2" transform="rotate(-35 15 14)"/>
    <rect x="10" y="17" width="10" height="2" transform="rotate(-35 15 18)"/>
    <rect x="44" y="47" width="10" height="2" transform="rotate(-35 49 48)"/>
    <rect x="44" y="51" width="10" height="2" transform="rotate(-35 49 52)"/>
    <rect x="44" y="13" width="10" height="2" transform="rotate(35 49 14)"/>
    <rect x="44" y="17" width="10" height="2" transform="rotate(35 49 18)"/>
    <rect x="44" y="21" width="10" height="2" transform="rotate(35 49 22)"/>
    <rect x="10" y="43" width="10" height="2" transform="rotate(35 15 44)"/>
    <rect x="10" y="47" width="10" height="2" transform="rotate(35 15 48)"/>
    <rect x="10" y="51" width="10" height="2" transform="rotate(35 15 52)"/>
  </g>
</svg>
