<?xml version="1.0" encoding="UTF-8"?>
<svg version="1.1" xmlns="http://www.w3.org/2000/svg" width="256" height="256">
<path d="M0 0 C24.37185188 20.44661633 40.33207467 48.36749049 43.859375 80.19335938 C46.53364802 111.12083158 39.20326367 142.66774836 19.8203125 167.3828125 C18.26568414 169.15836174 16.67949574 170.90655246 15.0703125 172.6328125 C14.57047852 173.1788916 14.07064453 173.7249707 13.55566406 174.28759766 C-8.00761606 197.66178086 -37.45668108 211.56402721 -69.328125 212.91796875 C-101.87828037 213.72209874 -132.63928235 203.53447942 -156.6875 181.1875 C-180.10069159 158.82688153 -193.46164592 128.87420645 -194.28149414 96.4519043 C-194.52586122 66.74972893 -185.47835913 36.67651132 -164.9296875 14.6328125 C-164.42985352 14.0867334 -163.93001953 13.5406543 -163.41503906 12.97802734 C-121.21128497 -32.77003485 -49.13895251 -38.42746422 0 0 Z " fill="#EAEAEA" transform="translate(202.9296875,36.3671875)"/>
<path d="M0 0 C24.37185188 20.44661633 40.33207467 48.36749049 43.859375 80.19335938 C46.53364802 111.12083158 39.20326367 142.66774836 19.8203125 167.3828125 C18.26568414 169.15836174 16.67949574 170.90655246 15.0703125 172.6328125 C14.57047852 173.1788916 14.07064453 173.7249707 13.55566406 174.28759766 C-8.00761606 197.66178086 -37.45668108 211.56402721 -69.328125 212.91796875 C-101.87828037 213.72209874 -132.63928235 203.53447942 -156.6875 181.1875 C-180.10069159 158.82688153 -193.46164592 128.87420645 -194.28149414 96.4519043 C-194.52586122 66.74972893 -185.47835913 36.67651132 -164.9296875 14.6328125 C-164.42985352 14.0867334 -163.93001953 13.5406543 -163.41503906 12.97802734 C-121.21128497 -32.77003485 -49.13895251 -38.42746422 0 0 Z M-130.9296875 2.6328125 C-132.61657897 3.89124432 -134.32677086 5.1188311 -136.0546875 6.3203125 C-149.32157627 15.92736988 -161.32031697 28.33266747 -167.9296875 43.6328125 C-167.9296875 44.2928125 -167.9296875 44.9528125 -167.9296875 45.6328125 C-168.5896875 45.6328125 -169.2496875 45.6328125 -169.9296875 45.6328125 C-174.15130745 57.06701561 -175.77466672 67.45663498 -175.9296875 79.6328125 C-176.5896875 79.6328125 -177.2496875 79.6328125 -177.9296875 79.6328125 C-177.95872642 83.71613089 -177.97649939 87.7994227 -177.9921875 91.8828125 C-178.00056641 93.04167969 -178.00894531 94.20054687 -178.01757812 95.39453125 C-178.02080078 96.50957031 -178.02402344 97.62460938 -178.02734375 98.7734375 C-178.03258057 99.79985352 -178.03781738 100.82626953 -178.04321289 101.88378906 C-177.94305701 104.30906906 -177.62891828 106.31978611 -176.9296875 108.6328125 C-176.2696875 108.6328125 -175.6096875 108.6328125 -174.9296875 108.6328125 C-174.90390625 109.25027344 -174.878125 109.86773437 -174.8515625 110.50390625 C-174.47087336 116.18828734 -173.35390589 120.47761339 -170.8515625 125.58203125 C-169.66862961 128.21355569 -169.22288775 130.77411004 -168.9296875 133.6328125 C-165.9596875 132.6428125 -165.9596875 132.6428125 -162.9296875 131.6328125 C-157.42791473 137.62883436 -152.13633495 143.74578653 -147.015625 150.0703125 C-144.37827482 153.31020336 -141.66559991 156.47599049 -138.9296875 159.6328125 C-140.26302083 162.29947917 -141.59635417 164.96614583 -142.9296875 167.6328125 C-140.41897996 171.30168802 -140.41897996 171.30168802 -136.6796875 173.4453125 C-136.1021875 173.5071875 -135.5246875 173.5690625 -134.9296875 173.6328125 C-134.9296875 174.2928125 -134.9296875 174.9528125 -134.9296875 175.6328125 C-130.08521858 179.50838764 -124.85710476 182.40307627 -119.3828125 185.30078125 C-116.9296875 186.6328125 -116.9296875 186.6328125 -113.9296875 188.6328125 C-112.40343361 189.15901195 -110.85892642 189.63364537 -109.3046875 190.0703125 C-106.07130861 190.99015305 -102.94456512 191.99974371 -99.8046875 193.1953125 C-95.57316886 194.62844715 -91.28471751 195.26214267 -86.8671875 195.8203125 C-86.20638184 195.90418213 -85.54557617 195.98805176 -84.86474609 196.07446289 C-64.53764472 198.40943476 -44.03942793 193.758358 -26.9296875 182.6328125 C-25.16275796 181.5638331 -23.39192941 180.50127087 -21.6171875 179.4453125 C-20.83730469 178.97738281 -20.05742187 178.50945312 -19.25390625 178.02734375 C-17.64313043 177.06087826 -16.01530162 176.1224901 -14.375 175.20703125 C-11.83799907 173.57378624 -10.09172498 171.90417588 -8.1171875 169.6328125 C-7.51261719 168.9521875 -6.90804687 168.2715625 -6.28515625 167.5703125 C-4.64306721 165.61721431 -4.64306721 165.61721431 -4.9296875 162.6328125 C-5.5896875 162.6328125 -6.2496875 162.6328125 -6.9296875 162.6328125 C-4.31857098 157.79741154 -1.55511667 153.76177349 2.0703125 149.6328125 C5.0403125 150.6228125 5.0403125 150.6228125 8.0703125 151.6328125 C9.82682781 150.01586446 9.82682781 150.01586446 11.0703125 147.6328125 C10.4103125 145.6528125 9.7503125 143.6728125 9.0703125 141.6328125 C12.0403125 138.3328125 15.0103125 135.0328125 18.0703125 131.6328125 C19.7203125 132.2928125 21.3703125 132.9528125 23.0703125 133.6328125 C34.41751827 107.59759926 34.2913165 77.96141592 24.0703125 51.6328125 C23.4721875 51.9421875 22.8740625 52.2515625 22.2578125 52.5703125 C20.0703125 53.6328125 20.0703125 53.6328125 17.0703125 54.6328125 C15.75258888 53.03293394 14.44130113 51.42775284 13.1328125 49.8203125 C12.03646484 48.48033203 12.03646484 48.48033203 10.91796875 47.11328125 C9.0703125 44.6328125 9.0703125 44.6328125 8.0703125 41.6328125 C10.40245398 40.42653242 12.56673389 39.4673387 15.0703125 38.6328125 C15.4725 39.5609375 15.4725 39.5609375 15.8828125 40.5078125 C17.02588098 42.9323358 17.02588098 42.9323358 20.0703125 44.6328125 C18.67204985 40.81181753 16.89482045 37.5521349 14.6953125 34.1328125 C14.11007813 33.215 13.52484375 32.2971875 12.921875 31.3515625 C9.4230171 26.213999 6.86523678 23.13516617 1.0703125 20.6328125 C1.57553472 25.01140505 4.24858472 27.44932474 7.0703125 30.6328125 C6.02156252 33.25468744 5.42099937 34.42652611 2.9453125 35.8828125 C2.3265625 36.1303125 1.7078125 36.3778125 1.0703125 36.6328125 C0.80476562 36.06046875 0.53921875 35.488125 0.265625 34.8984375 C-0.98645641 32.5252113 -2.4233227 30.51067964 -4.0546875 28.3828125 C-4.59351563 27.67640625 -5.13234375 26.97 -5.6875 26.2421875 C-6.09742188 25.71109375 -6.50734375 25.18 -6.9296875 24.6328125 C-5.1171875 22.6328125 -5.1171875 22.6328125 -2.9296875 20.6328125 C-1.9396875 20.6328125 -0.9496875 20.6328125 0.0703125 20.6328125 C-5.17603573 8.21459461 -23.5811205 -0.82959786 -35.36328125 -6.01953125 C-63.10203729 -16.50131749 -108.1174241 -20.57888742 -130.9296875 2.6328125 Z " fill="#000000" transform="translate(202.9296875,36.3671875)"/>
<path d="M0 0 C6.43167949 4.55132137 9.87139715 9.64610341 11.375 17.4375 C11.97330631 28.50616672 7.40159973 39.14942329 0.21484375 47.515625 C-8.49170165 56.61036032 -18.6095619 63.19210089 -31.55078125 63.7734375 C-49.9276696 64.0833887 -49.9276696 64.0833887 -57.625 59.4375 C-58.5325 58.93992188 -59.44 58.44234375 -60.375 57.9296875 C-71.49570855 51.43253441 -78.75033733 42.6410571 -82.59375 30.3359375 C-84.49436673 22.96224854 -84.99432168 16.02911235 -84.625 8.4375 C-84.295 8.4375 -83.965 8.4375 -83.625 8.4375 C-83.47804688 9.63246094 -83.47804688 9.63246094 -83.328125 10.8515625 C-82.22060726 18.69966238 -80.71523983 23.85085045 -74.625 29.1875 C-67.88691423 34.24106433 -61.94347179 34.22752246 -53.625 33.4375 C-50.56555937 32.41768646 -48.39165221 31.16013251 -45.625 29.4375 C-44.635 29.1075 -43.645 28.7775 -42.625 28.4375 C-40.80999805 25.57243946 -39.8333701 22.33193949 -38.67211914 19.1574707 C-35.49036462 10.62520842 -31.48879725 2.37714557 -22.89453125 -1.9296875 C-15.26502218 -4.05702049 -6.96552714 -3.8952648 0 0 Z " fill="#669DD9" transform="translate(163.625,112.5625)"/>
<path d="M0 0 C8.05804818 7.50456609 15.44330787 19.95531813 15.91015625 31.234375 C15.89855469 32.02328125 15.88695312 32.8121875 15.875 33.625 C15.86597656 34.42421875 15.85695313 35.2234375 15.84765625 36.046875 C15.83605469 36.65015625 15.82445312 37.2534375 15.8125 37.875 C15.52503906 37.28847656 15.23757812 36.70195312 14.94140625 36.09765625 C13.93853519 34.1231454 12.87256797 32.22043871 11.75 30.3125 C9.8125 26.875 9.8125 26.875 8.8125 23.875 C7.06382517 22.79068906 7.06382517 22.79068906 4.8125 21.875 C3.92691406 21.3696875 3.04132813 20.864375 2.12890625 20.34375 C-4.17548267 17.55170025 -12.24781885 17.47820395 -18.765625 19.7890625 C-26.64199356 24.44874619 -30.01130641 31.0923774 -32.859375 39.39648438 C-35.43456938 46.42819569 -39.920033 50.06002009 -46.1875 53.875 C-52.16545803 55.86765268 -59.69750314 56.09677284 -65.67578125 54.00390625 C-71.9164004 50.30800559 -76.93948769 44.80213296 -79.1875 37.875 C-80.59942836 26.80250921 -77.75877312 17.57341942 -71.3125 8.5625 C-70.29069521 7.31677326 -69.24921923 6.08688795 -68.1875 4.875 C-67.69894531 4.28203125 -67.21039063 3.6890625 -66.70703125 3.078125 C-49.49051137 -16.13636138 -19.33943535 -15.54593072 0 0 Z " fill="#ED0134" transform="translate(159.1875,92.125)"/>
<path d="M0 0 C0.66 0.33 1.32 0.66 2 1 C1.12859375 1.59425781 0.2571875 2.18851563 -0.640625 2.80078125 C-17.43809563 14.40751527 -30.1736421 27.30714102 -39 46 C-39.66 46 -40.32 46 -41 46 C-41.20496094 46.90363281 -41.40992188 47.80726562 -41.62109375 48.73828125 C-41.89050781 49.91777344 -42.15992188 51.09726563 -42.4375 52.3125 C-42.70433594 53.48425781 -42.97117187 54.65601563 -43.24609375 55.86328125 C-44 59 -44 59 -45 62 C-45.20959538 63.40585625 -45.38479255 64.81704993 -45.53515625 66.23046875 C-45.62216797 67.03291016 -45.70917969 67.83535156 -45.79882812 68.66210938 C-45.88583984 69.49548828 -45.97285156 70.32886719 -46.0625 71.1875 C-46.15337891 72.03248047 -46.24425781 72.87746094 -46.33789062 73.74804688 C-46.5615612 75.83171485 -46.78117151 77.91581795 -47 80 C-47.66 80 -48.32 80 -49 80 C-48.67 89.57 -48.34 99.14 -48 109 C-47.34 109 -46.68 109 -46 109 C-45.85304688 109.92619141 -45.85304688 109.92619141 -45.703125 110.87109375 C-44.89063823 115.4728507 -43.90460824 119.52524809 -41.875 123.75 C-40.16304988 127.31973304 -39.58795782 129.9825887 -40 134 C-38.68 133.01 -37.36 132.02 -36 131 C-33.04688061 132.31095495 -31.17235391 133.6341028 -29.08203125 136.08984375 C-28.55375732 136.70432373 -28.0254834 137.31880371 -27.48120117 137.9519043 C-26.65519409 138.93477417 -26.65519409 138.93477417 -25.8125 139.9375 C-25.24313721 140.6075708 -24.67377441 141.2776416 -24.0871582 141.96801758 C-22.93420325 143.32824168 -21.78435373 144.69110439 -20.63769531 146.05664062 C-19.15510029 147.81595135 -17.65566152 149.55867938 -16.1484375 151.296875 C-15.33632813 152.25078125 -14.52421875 153.2046875 -13.6875 154.1875 C-12.96949219 155.02667969 -12.25148437 155.86585938 -11.51171875 156.73046875 C-10 159 -10 159 -10 163 C-11.5 164.75 -11.5 164.75 -13 166 C-11.6608425 170.50443885 -10.04167548 171.7664425 -6 174 C-6 174.66 -6 175.32 -6 176 C-5.45085937 176.27070313 -4.90171875 176.54140625 -4.3359375 176.8203125 C1.28745997 179.66022226 6.93184737 182.52274812 12.0625 186.1875 C15.44704172 188.27583425 18.63218968 189.24075615 22.44921875 190.28125 C24.74250335 190.92744352 26.90209867 191.71244213 29.125 192.5625 C33.35651864 193.99563465 37.64496999 194.62933017 42.0625 195.1875 C42.72330566 195.27136963 43.38411133 195.35523926 44.06494141 195.44165039 C64.28776713 197.76464413 85.02649229 193.21778537 102 182 C103.49713454 181.03719631 104.99695238 180.07854634 106.5 179.125 C107.1290625 178.71507812 107.758125 178.30515625 108.40625 177.8828125 C110 177 110 177 112 177 C112.33 176.34 112.66 175.68 113 175 C113.99 174.7834375 113.99 174.7834375 115 174.5625 C115.66 174.376875 116.32 174.19125 117 174 C117.33 173.01 117.66 172.02 118 171 C119.66666667 169.33333333 121.33333333 167.66666667 123 166 C123.33 165.01 123.66 164.02 124 163 C123.34 163 122.68 163 122 163 C122.58172725 159.0479482 124.55157741 156.77904947 127.0625 153.75 C127.79597656 152.85796875 128.52945313 151.9659375 129.28515625 151.046875 C129.85105469 150.37140625 130.41695312 149.6959375 131 149 C133.97 149.99 133.97 149.99 137 151 C137 150.34 137 149.68 137 149 C138.32 148.34 139.64 147.68 141 147 C141.99 147.66 142.98 148.32 144 149 C128.29533885 173.22698581 104.94957899 189.95009754 76.7109375 196.4921875 C60.31146547 199.56413471 42.10228626 199.5978098 26 195 C25.00871094 194.73316406 24.01742187 194.46632812 22.99609375 194.19140625 C9.29596464 190.08684027 -3.0375602 183.11712183 -14 174 C-15.30904297 172.91912109 -15.30904297 172.91912109 -16.64453125 171.81640625 C-36.2085207 154.9571158 -49.10809544 130.69736244 -52 105 C-53.65701429 72.43384265 -46.64387531 45.6968875 -25.37109375 20.58984375 C-17.80277922 12.32329922 -9.46767313 5.91523033 0 0 Z " fill="#999999" transform="translate(74,36)"/>
<path d="M0 0 C0.8017948 2.26767156 1.59133752 4.53855804 2.375 6.8125 C2.59671875 7.43576172 2.8184375 8.05902344 3.046875 8.70117188 C6.48746847 18.76996746 7.36358587 28.65343851 7.3125 39.25 C7.30831055 40.43859619 7.30412109 41.62719238 7.29980469 42.85180664 C7.12751922 56.26716315 5.07554496 69.84891008 -1 82 C-2.32 81.34 -3.64 80.68 -5 80 C-3.23580366 71.72184793 -3.23580366 71.72184793 -2.234375 68.65625 C2.21235618 54.88010244 1.54068134 39.23525359 0 25 C-0.12375 23.84628906 -0.2475 22.69257812 -0.375 21.50390625 C-1.25042911 14.74277963 -2.79093926 9.02867236 -6 3 C-2.25 0 -2.25 0 0 0 Z " fill="#AEAEAE" transform="translate(227,88)"/>
<path d="M0 0 C1.32 0.66 2.64 1.32 4 2 C-8.28629357 20.95359964 -25.22583266 36.70793654 -47.1171875 43.43359375 C-49.91362188 43.98302869 -51.36517743 43.97373877 -54 43 C-53.47792969 42.78085938 -52.95585937 42.56171875 -52.41796875 42.3359375 C-45.32562103 39.28039015 -37.95752185 36.02964817 -31.80078125 31.31640625 C-30 30 -30 30 -28 30 C-27.67 29.34 -27.34 28.68 -27 28 C-26.34 27.855625 -25.68 27.71125 -25 27.5625 C-24.34 27.376875 -23.68 27.19125 -23 27 C-22.67 26.01 -22.34 25.02 -22 24 C-20.33333333 22.33333333 -18.66666667 20.66666667 -17 19 C-16.505 17.515 -16.505 17.515 -16 16 C-16.66 16 -17.32 16 -18 16 C-17.41827275 12.0479482 -15.44842259 9.77904947 -12.9375 6.75 C-11.83728516 5.41195312 -11.83728516 5.41195312 -10.71484375 4.046875 C-10.14894531 3.37140625 -9.58304688 2.6959375 -9 2 C-7.02 2.66 -5.04 3.32 -3 4 C-3 3.34 -3 2.68 -3 2 C-2.01 1.34 -1.02 0.68 0 0 Z " fill="#8B8B8B" transform="translate(214,183)"/>
<path d="M0 0 C2.95311939 1.31095495 4.82764609 2.6341028 6.91796875 5.08984375 C7.44624268 5.70432373 7.9745166 6.31880371 8.51879883 6.9519043 C9.06947021 7.60715088 9.6201416 8.26239746 10.1875 8.9375 C11.04154419 9.9426062 11.04154419 9.9426062 11.9128418 10.96801758 C13.06579675 12.32824168 14.21564627 13.69110439 15.36230469 15.05664062 C16.84489971 16.81595135 18.34433848 18.55867938 19.8515625 20.296875 C20.66367187 21.25078125 21.47578125 22.2046875 22.3125 23.1875 C23.03050781 24.02667969 23.74851562 24.86585938 24.48828125 25.73046875 C26 28 26 28 26 32 C24.125 34.25 24.125 34.25 22 36 C21.34 36 20.68 36 20 36 C18.4765625 34.3046875 18.4765625 34.3046875 16.625 31.875 C12.6597164 26.78609856 8.51674847 21.88238474 4.30126953 16.99951172 C3.33563238 15.88047658 2.37139595 14.76023092 1.40869141 13.63867188 C0.45242347 12.52628533 -0.50903399 11.41834315 -1.47509766 10.31445312 C-5 6.22293792 -5 6.22293792 -5 4 C-3.37373596 2.61767557 -1.7074998 1.28062485 0 0 Z " fill="#050505" transform="translate(38,167)"/>
<path d="M0 0 C1.98 1.65 3.96 3.3 6 5 C4.49993609 8.44779086 2.49590738 10.82360533 -0.0625 13.5625 C-4.18739411 18.05272289 -8.05794892 22.6911693 -11.859375 27.45703125 C-14.10659805 30.12663381 -16.50099504 32.56652839 -19 35 C-22.65316671 33.75023244 -23.78065836 33.32901247 -26 30 C-19.72387666 22.63006836 -13.42041096 15.30162553 -6.9140625 8.1328125 C-4.53320932 5.47986181 -2.25306347 2.76181974 0 0 Z " fill="#060606" transform="translate(60,56)"/>
<path d="M0 0 C4.30734492 1.57834152 6.7316119 4.88485995 9.5625 8.3125 C10.62108416 9.57422679 11.67967816 10.83594534 12.73828125 12.09765625 C13.27533691 12.74234863 13.81239258 13.38704102 14.36572266 14.05126953 C15.97043498 15.96474634 17.5958788 17.85810994 19.23046875 19.74609375 C19.73827881 20.33543701 20.24608887 20.92478027 20.76928711 21.53198242 C21.74237841 22.66102504 22.71837238 23.78757363 23.69750977 24.91137695 C27 28.77417114 27 28.77417114 27 31 C25.37373596 32.38232443 23.7074998 33.71937515 22 35 C18.23618138 33.49278852 16.41536518 31.35083069 13.9375 28.1875 C13.16019531 27.20910156 12.38289063 26.23070312 11.58203125 25.22265625 C11.16775879 24.70074707 10.75348633 24.17883789 10.32666016 23.64111328 C7.53997866 20.19391545 4.6239719 16.85190097 1.71850586 13.50463867 C-0.86530162 10.48822881 -3.0663314 7.47035888 -5 4 C-3.35 2.68 -1.7 1.36 0 0 Z " fill="#080808" transform="translate(57,152)"/>
<path d="M0 0 C1.35382149 1.48738235 2.63139886 3.04430551 3.875 4.625 C8.11254198 9.9288066 12.48036538 15.09613437 16.92529297 20.22705078 C24 28.42264278 24 28.42264278 24 32 C22 33.6875 22 33.6875 20 35 C17.06491361 33.69507965 15.1929941 32.38902037 13.1171875 29.9453125 C12.59398926 29.3359082 12.07079102 28.72650391 11.53173828 28.09863281 C10.98501465 27.44733398 10.43829102 26.79603516 9.875 26.125 C9.30894043 25.45823242 8.74288086 24.79146484 8.15966797 24.10449219 C7.00028018 22.73694233 5.84354151 21.36714221 4.68945312 19.99511719 C3.10839155 18.12800227 1.50500376 16.28362122 -0.109375 14.4453125 C-1.03160644 13.38051694 -1.95350171 12.3154301 -2.875 11.25 C-3.69742188 10.30640625 -4.51984375 9.3628125 -5.3671875 8.390625 C-5.90601563 7.60171875 -6.44484375 6.8128125 -7 6 C-5.81636731 2.44910192 -3.99368042 0 0 0 Z " fill="#060606" transform="translate(193,64)"/>
<path d="M0 0 C1.98 1.65 3.96 3.3 6 5 C3.00746606 9.94418651 -0.65142699 14.01178399 -4.55078125 18.265625 C-7.85453252 21.95402354 -10.95524167 25.79192286 -14.0546875 29.65234375 C-15.62860416 31.55178936 -17.21668596 33.30080455 -19 35 C-21.90542812 33.6975667 -23.8092961 32.29113732 -26 30 C-12.74180328 14.63114754 -12.74180328 14.63114754 -5.90234375 7.1484375 C-3.84867295 4.82909676 -1.91669237 2.43321749 0 0 Z " fill="#060606" transform="translate(69,64)"/>
<path d="M0 0 C1.98 1.32 3.96 2.64 6 4 C4.55296069 8.69637908 1.79001856 11.67849045 -1.5625 15.125 C-6.36785239 20.17163441 -10.79768274 25.33866915 -15.0625 30.85546875 C-16.96107691 32.95691779 -18.39547489 33.95935269 -21 35 C-22.32 33.68 -23.64 32.36 -25 31 C-21.09987549 22.27018763 -13.20847756 14.99287922 -6.71899414 8.06054688 C-4.30856785 5.47791581 -2.05351851 2.87628585 0 0 Z " fill="#060606" transform="translate(78,72)"/>
<path d="M0 0 C0.66 0.33 1.32 0.66 2 1 C1.12859375 1.59425781 0.2571875 2.18851563 -0.640625 2.80078125 C-17.43809563 14.40751527 -30.1736421 27.30714102 -39 46 C-39.66 46 -40.32 46 -41 46 C-41.20496094 46.90363281 -41.40992188 47.80726562 -41.62109375 48.73828125 C-41.89050781 49.91777344 -42.15992188 51.09726563 -42.4375 52.3125 C-42.70433594 53.48425781 -42.97117187 54.65601563 -43.24609375 55.86328125 C-44 59 -44 59 -45 62 C-45.20959538 63.40585625 -45.38479255 64.81704993 -45.53515625 66.23046875 C-45.62216797 67.03291016 -45.70917969 67.83535156 -45.79882812 68.66210938 C-45.88583984 69.49548828 -45.97285156 70.32886719 -46.0625 71.1875 C-46.15337891 72.03248047 -46.24425781 72.87746094 -46.33789062 73.74804688 C-46.5615612 75.83171485 -46.78117151 77.91581795 -47 80 C-47.66 80 -48.32 80 -49 80 C-48.67 89.57 -48.34 99.14 -48 109 C-47.34 109 -46.68 109 -46 109 C-45.85304688 109.92619141 -45.85304688 109.92619141 -45.703125 110.87109375 C-44.73989752 116.32661493 -43.27363645 120.89601791 -40.88671875 125.8828125 C-39.61224216 128.92583589 -39.27869346 131.72535181 -39 135 C-39.99 135.33 -40.98 135.66 -42 136 C-44.63873882 129.96859698 -45.86094273 124.01237098 -46.90942383 117.54882812 C-47.49581753 114.08116756 -48.01764899 111.97352651 -50 109 C-55.52618329 86.43475156 -50.38596346 59.06445982 -38.859375 39.21484375 C-28.88053756 22.81757932 -16.23351484 10.14240543 0 0 Z " fill="#A5A5A5" transform="translate(74,36)"/>
<path d="M0 0 C0.99128906 0.26683594 1.98257813 0.53367187 3.00390625 0.80859375 C22.61753663 6.68484786 38.75506339 18.52750849 53 33 C52.505 33.99 52.505 33.99 52 35 C50.515 34.01 50.515 34.01 49 33 C50.52708963 36.43595166 52.59927045 39.11912454 55 42 C53.84826645 44.46800047 52.95216435 46.04783565 51 48 C50.01 48 49.02 48 48 48 C45.73828125 45.59375 45.73828125 45.59375 43.3125 42.5 C42.50425781 41.4790625 41.69601563 40.458125 40.86328125 39.40625 C40.24839844 38.6121875 39.63351563 37.818125 39 37 C43.75 31.125 43.75 31.125 46 30 C25.5277656 9.98734638 0.03071166 -1.26401327 -28.75 -1.125 C-29.71631348 -1.12306641 -30.68262695 -1.12113281 -31.67822266 -1.11914062 C-38.49752599 -1.07791562 -45.22269635 -0.8006941 -52 0 C-38.92994757 -7.84203146 -13.88502735 -3.96469879 0 0 Z " fill="#909090" transform="translate(156,25)"/>
<path d="M0 0 C0.33 0.66 0.66 1.32 1 2 C1.66 2.33 2.32 2.66 3 3 C3 6 3 6 2.09375 8.25 C0.81500584 11.46512817 0.17266858 14.60741065 -0.5 18 C-1.78908555 24.50147493 -1.78908555 24.50147493 -3.03125 27.4375 C-5.41257518 33.7364892 -5.12899842 40.3840058 -4.75 47 C-4.70552734 47.82016602 -4.66105469 48.64033203 -4.61523438 49.48535156 C-4.17977384 56.28220849 -3.11210136 62.82415548 -1.71875 69.484375 C-1.0043277 72.97883192 -0.47128612 76.46535411 0 80 C-2.81873199 75.77190201 -4.22242518 72.84928108 -4.625 67.75 C-4.73714844 66.41195312 -4.73714844 66.41195312 -4.8515625 65.046875 C-4.90054687 64.37140625 -4.94953125 63.6959375 -5 63 C-5.66 63 -6.32 63 -7 63 C-8.01085428 59.65613602 -8.11543463 56.6251882 -8.09765625 53.140625 C-8.09443359 52.02558594 -8.09121094 50.91054687 -8.08789062 49.76171875 C-8.07951172 48.60285156 -8.07113281 47.44398438 -8.0625 46.25 C-8.05798828 45.07566406 -8.05347656 43.90132812 -8.04882812 42.69140625 C-8.03705094 39.79421928 -8.02060326 36.89713546 -8 34 C-7.34 34 -6.68 34 -6 34 C-5.94392578 32.22496094 -5.94392578 32.22496094 -5.88671875 30.4140625 C-5.55479096 21.86533914 -5.09985085 14.06593844 -2 6 C-1.608125 4.80375 -1.21625 3.6075 -0.8125 2.375 C-0.544375 1.59125 -0.27625 0.8075 0 0 Z " fill="#BEBEBE" transform="translate(33,82)"/>
<path d="M0 0 C0.33 0 0.66 0 1 0 C4.68231601 19.85240609 3.13075335 43.73849329 -6 62 C-7.32 61.34 -8.64 60.68 -10 60 C-8.59539944 53.36866467 -6.89399664 46.88209738 -5 40.375 C-4.73960937 39.47265625 -4.47921875 38.5703125 -4.2109375 37.640625 C-3.95570313 36.75632813 -3.70046875 35.87203125 -3.4375 34.9609375 C-3.19241699 34.10089111 -2.94733398 33.24084473 -2.69482422 32.35473633 C-2.12365371 30.41905834 -1.4814607 28.50447771 -0.8203125 26.59765625 C0.36317609 21.40721345 0.21058677 16.36558774 0.125 11.0625 C0.11597656 9.99708984 0.10695312 8.93167969 0.09765625 7.83398438 C0.07423414 5.22241966 0.04143452 2.61133063 0 0 Z " fill="#949494" transform="translate(232,108)"/>
<path d="M0 0 C1.10468977 3.34502384 0.84766406 5.5742358 0.078125 8.984375 C-1.1319702 15.11633888 -1.29723535 21.014934 -1.25 27.25 C-1.25773437 28.28640625 -1.26546875 29.3228125 -1.2734375 30.390625 C-1.25907147 36.02210843 -0.84842908 40.6824178 1 46 C2.47190906 51.22527718 3.91058351 56.43001614 5 61.75 C6.13216041 66.9468019 7.7442143 71.44873532 11.125 75.625 C13.18928935 78.2397665 13.51407004 79.76046692 14 83 C14.63437344 84.6792238 15.29289322 86.35008418 16 88 C12.32635672 84.7599939 10.19703115 81.08979419 8.0625 76.75 C7.71622559 76.04979736 7.36995117 75.34959473 7.01318359 74.62817383 C-0.16059568 59.66414473 -3.38745807 44.24971908 -3.3125 27.6875 C-3.31121094 26.50502686 -3.30992188 25.32255371 -3.30859375 24.10424805 C-3.21640561 15.72722656 -2.49719451 8.04156088 0 0 Z " fill="#747474" transform="translate(25,100)"/>
<path d="M0 0 C2.26171875 2.40625 2.26171875 2.40625 4.6875 5.5 C5.49574219 6.5209375 6.30398437 7.541875 7.13671875 8.59375 C7.75160156 9.3878125 8.36648437 10.181875 9 11 C7.35 12.98 5.7 14.96 4 17 C0.11985064 15.47940093 -1.73906562 13.13921469 -4.25 9.875 C-4.95640625 8.96492187 -5.6628125 8.05484375 -6.390625 7.1171875 C-6.92171875 6.41851562 -7.4528125 5.71984375 -8 5 C-3.375 0 -3.375 0 0 0 Z " fill="#0A0A0A" transform="translate(66,178)"/>
<path d="M0 0 C3.78080393 1.26026798 4.77295425 2.93546534 7.1875 6.0625 C7.90292969 6.98160156 8.61835937 7.90070313 9.35546875 8.84765625 C10.16951172 9.91306641 10.16951172 9.91306641 11 11 C9.60667426 14.36720387 8.0210714 15.9859524 5 18 C3.32731078 16.04653795 1.66178419 14.08770186 0 12.125 C-0.71542969 11.29162109 -0.71542969 11.29162109 -1.4453125 10.44140625 C-5 6.2265625 -5 6.2265625 -5 4 C-2.6875 1.8125 -2.6875 1.8125 0 0 Z " fill="#0A0A0A" transform="translate(48,159)"/>
<path d="M0 0 C3.71860179 1.53873177 4.35633541 2.47511388 7 6 C4.03 9.63 1.06 13.26 -2 17 C-6 16 -6 16 -9 14 C-8.41827275 10.0479482 -6.44842259 7.77904947 -3.9375 4.75 C-3.20402344 3.85796875 -2.47054687 2.9659375 -1.71484375 2.046875 C-1.14894531 1.37140625 -0.58304688 0.6959375 0 0 Z " fill="#070707" transform="translate(205,185)"/>
<path d="M0 0 C1.98 1.65 3.96 3.3 6 5 C3.53974941 9.51045941 0.39717963 13.18504423 -3 17 C-6.26011642 16.30621489 -7.79038253 15.54106009 -10 13 C-8.48446596 9.52224821 -6.4226544 7.0442016 -3.875 4.25 C-3.15054688 3.45078125 -2.42609375 2.6515625 -1.6796875 1.828125 C-0.84824219 0.92320312 -0.84824219 0.92320312 0 0 Z " fill="#090909" transform="translate(212,159)"/>
<path d="M0 0 C2.375 0.75 2.375 0.75 5 2 C5.66 3.32 6.32 4.64 7 6 C3.7 9.63 0.4 13.26 -3 17 C-4.98 15.35 -6.96 13.7 -9 12 C-7.55575365 8.76138697 -5.74227753 6.38030837 -3.375 3.75 C-2.74335938 3.04359375 -2.11171875 2.3371875 -1.4609375 1.609375 C-0.97882813 1.07828125 -0.49671875 0.5471875 0 0 Z " fill="#0B0B0B" transform="translate(202,152)"/>
<path d="M0 0 C0.66 0 1.32 0 2 0 C3.60178593 1.78104718 5.13381926 3.62537278 6.625 5.5 C7.44226563 6.5209375 8.25953125 7.541875 9.1015625 8.59375 C9.72804687 9.3878125 10.35453125 10.181875 11 11 C9.84826645 13.46800047 8.95216435 15.04783565 7 17 C6.01 17 5.02 17 4 17 C1.73828125 14.59375 1.73828125 14.59375 -0.6875 11.5 C-1.49574219 10.4790625 -2.30398437 9.458125 -3.13671875 8.40625 C-3.75160156 7.6121875 -4.36648437 6.818125 -5 6 C-3.38405168 3.95880212 -1.7143618 1.95927063 0 0 Z " fill="#080808" transform="translate(200,56)"/>
<path d="M0 0 C3.65316671 1.24976756 4.78065836 1.67098753 7 5 C3.7 8.96 0.4 12.92 -3 17 C-4.98 15.35 -6.96 13.7 -9 12 C-7.55575365 8.76138697 -5.74227753 6.38030837 -3.375 3.75 C-2.74335938 3.04359375 -2.11171875 2.3371875 -1.4609375 1.609375 C-0.97882813 1.07828125 -0.49671875 0.5471875 0 0 Z " fill="#080808" transform="translate(196,178)"/>
<path d="M0 0 C4 1 4 1 7 3 C6.4352699 6.90829085 4.57868029 8.89920223 1.9375 11.75 C0.83728516 12.94882813 0.83728516 12.94882813 -0.28515625 14.171875 C-0.85105469 14.77515625 -1.41695312 15.3784375 -2 16 C-4.375 15.25 -4.375 15.25 -7 14 C-7.66 12.68 -8.32 11.36 -9 10 C-6.03 6.7 -3.06 3.4 0 0 Z " fill="#0B0B0B" transform="translate(186,170)"/>
<path d="M0 0 C3.78080393 1.26026798 4.77295425 2.93546534 7.1875 6.0625 C7.90292969 6.98160156 8.61835938 7.90070313 9.35546875 8.84765625 C10.16951172 9.91306641 10.16951172 9.91306641 11 11 C9.95125002 13.62187494 9.35068687 14.79371361 6.875 16.25 C6.25625 16.4975 5.6375 16.745 5 17 C3.4641556 15.43122326 1.94668669 13.84443846 0.4375 12.25 C-0.40941406 11.36828125 -1.25632813 10.4865625 -2.12890625 9.578125 C-4 7 -4 7 -3.875 4.78125 C-2.87553487 2.74662455 -1.70349074 1.4812963 0 0 Z " fill="#070707" transform="translate(197,90)"/>
<path d="M0 0 C0.66 0.33 1.32 0.66 2 1 C1.12859375 1.59425781 0.2571875 2.18851563 -0.640625 2.80078125 C-17.43809563 14.40751527 -30.1736421 27.30714102 -39 46 C-39.66 46 -40.32 46 -41 46 C-41.2475 46.928125 -41.495 47.85625 -41.75 48.8125 C-43.21527337 53.97281056 -45.12855094 58.97615859 -47 64 C-48.45434936 59.47244967 -46.91678031 56.33460435 -45.125 52.125 C-44.80837402 51.3726709 -44.49174805 50.6203418 -44.16552734 49.84521484 C-34.95648833 28.73169966 -19.4139949 12.12951165 0 0 Z " fill="#828282" transform="translate(74,36)"/>
<path d="M0 0 C4.56048012 3.61251516 8.01665146 6.98797445 11 12 C9.35 13.32 7.7 14.64 6 16 C2.55571735 14.55218207 0.63869038 12.72305391 -1.75 9.875 C-2.36359375 9.15054688 -2.9771875 8.42609375 -3.609375 7.6796875 C-4.06828125 7.12539062 -4.5271875 6.57109375 -5 6 C-3.63016497 2.83884224 -3.0109362 2.0072908 0 0 Z " fill="#070707" transform="translate(182,72)"/>
<path d="M0 0 C8.21567379 6.10909077 14.23474633 14.63108338 20 23 C19.34 23.33 18.68 23.66 18 24 C10.88278882 20.79027731 5.35675717 15.49766885 2.125 8.3125 C1.17844145 5.52541094 0.44027174 2.90579348 0 0 Z " fill="#999999" transform="translate(37,178)"/>
<path d="M0 0 C0.64939736 2.37407592 1.29460053 4.7491639 1.9375 7.125 C2.11990234 7.79015625 2.30230469 8.4553125 2.49023438 9.140625 C4.18594416 15.43016675 5.12642951 21.23641438 5.1328125 27.75390625 C5.13474609 29.65366211 5.13474609 29.65366211 5.13671875 31.59179688 C5.13285156 32.90212891 5.12898437 34.21246094 5.125 35.5625 C5.12886719 36.87669922 5.13273438 38.19089844 5.13671875 39.54492188 C5.13542969 40.81013672 5.13414062 42.07535156 5.1328125 43.37890625 C5.13168457 44.5294751 5.13055664 45.68004395 5.12939453 46.86547852 C5.01243431 49.69878471 4.64911625 52.24592932 4 55 C3.34 55 2.68 55 2 55 C2.08378906 53.94683594 2.16757813 52.89367187 2.25390625 51.80859375 C3.48468399 34.99777949 4.11168388 16.23894011 -4 1 C-2 0 -2 0 0 0 Z " fill="#C5C5C5" transform="translate(225,90)"/>
<path d="M0 0 C-19.88829312 7.75306342 -40.74310726 10.78714756 -62 7 C-62 6.67 -62 6.34 -62 6 C-61.37770508 6.01571045 -60.75541016 6.0314209 -60.11425781 6.04760742 C-48.91708412 6.2910689 -37.90480851 6.33609207 -26.8125 4.625 C-25.99491211 4.49891357 -25.17732422 4.37282715 -24.33496094 4.24291992 C-20.30000965 3.56092636 -16.77639916 2.61845678 -13 1 C-11.30278343 0.55893004 -9.59341832 0.16196428 -7.875 -0.1875 C-7.02679688 -0.36667969 -6.17859375 -0.54585937 -5.3046875 -0.73046875 C-3 -1 -3 -1 0 0 Z " fill="#858585" transform="translate(170,226)"/>
<path d="M0 0 C1.32 0.66 2.64 1.32 4 2 C0.17149192 7.90609437 -3.99861141 13.3201105 -8.75 18.5 C-9.22155518 19.01594727 -9.69311035 19.53189453 -10.17895508 20.06347656 C-12.35014242 22.39315322 -14.33512192 24.22341462 -17 26 C-15.79618552 23.50638429 -14.54571278 21.31856917 -13 19 C-12.34 19 -11.68 19 -11 19 C-10.73445312 18.42378906 -10.46890625 17.84757812 -10.1953125 17.25390625 C-8.56200515 14.17410775 -6.41801202 11.61431641 -4.2421875 8.90234375 C-2.72663015 6.96001379 -2.72663015 6.96001379 -3 4 C-3 3.34 -3 2.68 -3 2 C-2.01 1.34 -1.02 0.68 0 0 Z " fill="#696969" transform="translate(214,183)"/>
<path d="M0 0 C0.99 0.66 1.98 1.32 3 2 C1.32850986 5.95079489 -0.97227848 8.97227848 -4 12 C-7.75 12.75 -7.75 12.75 -11 13 C-11.33 13.66 -11.66 14.32 -12 15 C-12.66 14.34 -13.32 13.68 -14 13 C-13.34 13 -12.68 13 -12 13 C-11.67 12.34 -11.34 11.68 -11 11 C-10.34 10.855625 -9.68 10.71125 -9 10.5625 C-8.01 10.2840625 -8.01 10.2840625 -7 10 C-6.67 9.01 -6.34 8.02 -6 7 C-4.3540349 5.31288577 -2.68762851 3.6454378 -1 2 C-0.67 1.34 -0.34 0.68 0 0 Z " fill="#B1B1B1" transform="translate(198,200)"/>
<path d="M0 0 C2 3 2 3 2.375 6.125 C2.91639317 9.48163763 3.57774184 11.50200258 5 14.5 C6.85292864 18.41397608 7.6338179 21.69736033 8 26 C7.01 26.33 6.02 26.66 5 27 C1.3463637 18.19805801 -0.35983273 9.53556723 0 0 Z " fill="#B4B4B4" transform="translate(27,145)"/>
<path d="M0 0 C3.98189814 3.7197447 6.95820659 7.5964288 9.875 12.1875 C10.29007813 12.81591797 10.70515625 13.44433594 11.1328125 14.09179688 C12.15612792 15.6864634 13.08679627 17.33982087 14 19 C13.67 19.66 13.34 20.32 13 21 C11.62437146 19.71034824 10.29233607 18.37310707 9 17 C9 16.34 9 15.68 9 15 C8.34 15 7.68 15 7 15 C4 9.375 4 9.375 4 6 C2.68 5.34 1.36 4.68 0 4 C0 2.68 0 1.36 0 0 Z " fill="#939393" transform="translate(209,60)"/>
<path d="M0 0 C0.66 0 1.32 0 2 0 C2.8427743 2.39287704 3.67437002 4.78871019 4.5 7.1875 C4.73847656 7.86103516 4.97695312 8.53457031 5.22265625 9.22851562 C6.48727592 12.93204467 7.30451221 16.07940536 7 20 C5 19 5 19 4.0625 16.4375 C3.711875 15.303125 3.36125 14.16875 3 13 C2.24410516 10.96999376 1.46635823 8.94946321 0.68359375 6.9296875 C-0.01426984 4.95971829 -0.60773585 3.05387747 -1 1 C-0.67 0.67 -0.34 0.34 0 0 Z " fill="#8C8C8C" transform="translate(225,88)"/>
<path d="M0 0 C0.33 0.66 0.66 1.32 1 2 C1.66 2.33 2.32 2.66 3 3 C3 8.66521535 0.10966982 12.43267245 -3 17 C-3.69429379 18.3191582 -4.37530495 19.64649406 -5 21 C-4.42351925 13.64987044 -2.28953836 6.98575424 0 0 Z " fill="#B9B9B9" transform="translate(33,82)"/>
<path d="M0 0 C0.33 0 0.66 0 1 0 C0.51673668 9.02091525 -1.93967886 18.87935773 -6 27 C-6.66 26.67 -7.32 26.34 -8 26 C-6.125 18.375 -6.125 18.375 -5 15 C-4.34 15 -3.68 15 -3 15 C-2.86722656 14.16855469 -2.73445312 13.33710938 -2.59765625 12.48046875 C-2.42105469 11.39378906 -2.24445313 10.30710938 -2.0625 9.1875 C-1.88847656 8.10855469 -1.71445313 7.02960938 -1.53515625 5.91796875 C-1 3 -1 3 0 0 Z " fill="#7C7C7C" transform="translate(232,143)"/>
<path d="M0 0 C1.37116242 2.74232485 0.75013248 4.32123813 0.1875 7.3125 C-0.06966797 8.72982422 -0.06966797 8.72982422 -0.33203125 10.17578125 C-0.98473123 12.93544257 -1.93793074 15.37707593 -3 18 C-3.3813074 20.32597511 -3.72460254 22.65912158 -4 25 C-4.33 25 -4.66 25 -5 25 C-5.51032841 16.45672432 -4.85258986 7.27888479 0 0 Z " fill="#C4C4C4" transform="translate(32,94)"/>
<path d="M0 0 C0.33 0 0.66 0 1 0 C1.35031373 10.02286504 1.35031373 10.02286504 -1 15 C-1.37593066 16.9924325 -1.71979545 18.9918674 -2 21 C-2.99 20.67 -3.98 20.34 -5 20 C-3.56390017 13.26137773 -1.85991713 6.63370443 0 0 Z " fill="#BCBCBC" transform="translate(227,148)"/>
<path d="M0 0 C3.93548431 3.06093224 6.68116787 5.49115974 9 10 C8.01 10.495 8.01 10.495 7 11 C4.24632043 9.7922458 2.24786899 8.90420982 0 7 C-1 3.8125 -1 3.8125 -1 1 C-0.67 0.67 -0.34 0.34 0 0 Z " fill="#AAAAAA" transform="translate(48,191)"/>
<path d="M0 0 C0.804375 0.4640625 0.804375 0.4640625 1.625 0.9375 C4.3984957 2.17827439 7.00042837 2.5909675 10 3 C10.11214844 3.58265625 10.22429688 4.1653125 10.33984375 4.765625 C11.06000876 7.20310657 12.04379395 8.7250586 13.5625 10.75 C14.01753906 11.36359375 14.47257812 11.9771875 14.94140625 12.609375 C15.29074219 13.06828125 15.64007813 13.5271875 16 14 C12.36953654 12.43805642 9.78806795 10.21034833 6.875 7.5625 C6.00617187 6.78003906 5.13734375 5.99757812 4.2421875 5.19140625 C2 3 2 3 0 0 Z " fill="#7E7E7E" transform="translate(48,198)"/>
<path d="M0 0 C0 0.99 0 1.98 0 3 C-0.99902344 2.94070312 -1.99804688 2.88140625 -3.02734375 2.8203125 C-7.35678803 3.01613791 -10.65887255 4.15692446 -14.5625 5.875 C-18.99463412 7.75967148 -23.40475396 9.54141651 -28 11 C-25.32374803 7.75165069 -22.07658058 6.54285731 -18.25 4.9375 C-17.05890625 4.43089844 -15.8678125 3.92429687 -14.640625 3.40234375 C-9.66139766 1.48437957 -5.3604611 0 0 0 Z " fill="#848484" transform="translate(104,25)"/>
<path d="M0 0 C4.92784505 0.417313 6.9777145 2.54985927 10.3125 6.0625 C11.19550781 6.98160156 12.07851562 7.90070312 12.98828125 8.84765625 C13.65214844 9.55792969 14.31601563 10.26820312 15 11 C14.67 11.66 14.34 12.32 14 13 C13.01 12.34 12.02 11.68 11 11 C10.01 11 9.02 11 8 11 C7.90847656 10.40574219 7.81695312 9.81148437 7.72265625 9.19921875 C6.82737945 6.47467369 5.67243061 5.56883941 3.4375 3.8125 C2.27848249 2.89134926 1.12884042 1.95789331 0 1 C0 0.67 0 0.34 0 0 Z " fill="#8B8B8B" transform="translate(194,47)"/>
<path d="M0 0 C3.71656547 3.71656547 3.9466586 9.47977004 4.125 14.5625 C4.08375 15.366875 4.0425 16.17125 4 17 C3.34 17 2.68 17 2 17 C-0.01167675 11.21642935 -0.22084624 6.09781001 0 0 Z " fill="#8C8C8C" transform="translate(25,146)"/>
<path d="M0 0 C0.33 0 0.66 0 1 0 C1.18175781 1.21236328 1.18175781 1.21236328 1.3671875 2.44921875 C1.53476563 3.51785156 1.70234375 4.58648437 1.875 5.6875 C2.03742188 6.74324219 2.19984375 7.79898438 2.3671875 8.88671875 C2.89381188 11.99913314 2.89381188 11.99913314 4.15625 14.75 C4.4346875 15.4925 4.713125 16.235 5 17 C3.625 19.3125 3.625 19.3125 2 21 C0.09879901 13.87049629 -0.22424141 7.36259293 0 0 Z " fill="#7692CF" transform="translate(79,121)"/>
<path d="M0 0 C1.32 0.66 2.64 1.32 4 2 C2.02 4.97 2.02 4.97 0 8 C-1.32 7.34 -2.64 6.68 -4 6 C-3.6875 4.125 -3.6875 4.125 -3 2 C-2.01 1.34 -1.02 0.68 0 0 Z " fill="#9A9A9A" transform="translate(214,183)"/>
<path d="M0 0 C3.29680965 0.65784963 5.84117922 1.89420573 8.75 3.5625 C9.94882813 4.24505859 9.94882813 4.24505859 11.171875 4.94140625 C11.77515625 5.29074219 12.3784375 5.64007813 13 6 C13 6.33 13 6.66 13 7 C10.03 6.67 7.06 6.34 4 6 C3.67 4.68 3.34 3.36 3 2 C2.01 1.67 1.02 1.34 0 1 C0 0.67 0 0.34 0 0 Z " fill="#A4A4A4" transform="translate(75,217)"/>
<path d="M0 0 C4.19361247 2.09680623 5.49576582 3.60300778 7 8 C7.66 8.33 8.32 8.66 9 9 C8.67 10.32 8.34 11.64 8 13 C5.42634911 11.71317455 5.27651028 10.55302057 4 8 C3.29875 7.154375 2.5975 6.30875 1.875 5.4375 C0 3 0 3 0 0 Z " fill="#BEBEBE" transform="translate(204,57)"/>
<path d="M0 0 C3.54775079 1.97097266 6.18688566 4.08988172 9 7 C9.66 7.33 10.32 7.66 11 8 C11 8.66 11 9.32 11 10 C8.13144287 9.91563067 6.44317685 9.41307819 4.33203125 7.4453125 C0 2.48559976 0 2.48559976 0 0 Z " fill="#B1B1B1" transform="translate(57,202)"/>
<path d="M0 0 C6.14338735 -0.76792342 11.07871205 2.71914136 16 6 C10.03435204 5.49228528 5.36190101 3.61407872 0 1 C0 0.67 0 0.34 0 0 Z " fill="#787878" transform="translate(84,224)"/>
<path d="M0 0 C0.66 0 1.32 0 2 0 C2.33 1.98 2.66 3.96 3 6 C3.66 6 4.32 6 5 6 C5.33 7.32 5.66 8.64 6 10 C5.01 10.33 4.02 10.66 3 11 C2.49384702 9.73160474 1.99530901 8.46016898 1.5 7.1875 C1.2215625 6.47980469 0.943125 5.77210938 0.65625 5.04296875 C0 3 0 3 0 0 Z " fill="#A3A3A3" transform="translate(29,161)"/>
<path d="M0 0 C2.61500768 2.36595933 4.38999603 4.86049226 6 8 C5.67 8.66 5.34 9.32 5 10 C3.62437146 8.71034824 2.29233607 7.37310707 1 6 C1 5.34 1 4.68 1 4 C0.34 3.67 -0.32 3.34 -1 3 C-0.67 2.01 -0.34 1.02 0 0 Z " fill="#7C7C7C" transform="translate(217,71)"/>
<path d="M0 0 C0.99 0.66 1.98 1.32 3 2 C2.34 3.32 1.68 4.64 1 6 C-0.32 6 -1.64 6 -3 6 C-2 4 -1 2 0 0 Z " fill="#B4B4B4" transform="translate(198,200)"/>
<path d="M0 0 C0.66 0.33 1.32 0.66 2 1 C1.04956626 2.33897583 0.08940853 3.67105427 -0.875 5 C-1.40867187 5.7425 -1.94234375 6.485 -2.4921875 7.25 C-3.23855469 8.11625 -3.23855469 8.11625 -4 9 C-4.66 9 -5.32 9 -6 9 C-4.47291037 5.56404834 -2.40072955 2.88087546 0 0 Z " fill="#878787" transform="translate(47,59)"/>
<path d="M0 0 C0 0.99 0 1.98 0 3 C-1.051875 2.979375 -2.10375 2.95875 -3.1875 2.9375 C-6.32704904 2.98896802 -8.96883396 3.26517187 -12 4 C-11 2 -11 2 -7.6875 0.875 C-4 0 -4 0 0 0 Z " fill="#A1A1A1" transform="translate(104,25)"/>
<path d="M0 0 C-0.33 0.99 -0.66 1.98 -1 3 C-4.80269732 4.6900877 -7.05272168 5.19873962 -11 4 C-9.5437455 3.32880451 -8.08492133 2.66318193 -6.625 2 C-5.81289062 1.62875 -5.00078125 1.2575 -4.1640625 0.875 C-2 0 -2 0 0 0 Z " fill="#B2B2B2" transform="translate(171,222)"/>
<path d="M0 0 C1.32 0.33 2.64 0.66 4 1 C2.68 2.65 1.36 4.3 0 6 C-0.66 5.67 -1.32 5.34 -2 5 C-1.34 3.35 -0.68 1.7 0 0 Z " fill="#949494" transform="translate(194,206)"/>
<path d="M0 0 C0.99 0.33 1.98 0.66 3 1 C2.34 1 1.68 1 1 1 C0.34 2.32 -0.32 3.64 -1 5 C-2.65 5 -4.3 5 -6 5 C-5.195625 4.360625 -4.39125 3.72125 -3.5625 3.0625 C-1.7249496 1.59396498 -1.7249496 1.59396498 0 0 Z " fill="#B6B6B6" transform="translate(177,217)"/>
<path d="M0 0 C0.66 0.33 1.32 0.66 2 1 C0.02 3.31 -1.96 5.62 -4 8 C-4.66 7.67 -5.32 7.34 -6 7 C-4.02 4.69 -2.04 2.38 0 0 Z " fill="#BFBFBF" transform="translate(44,72)"/>
</svg>
