<?xml version="1.0" encoding="UTF-8"?>
<svg version="1.1" xmlns="http://www.w3.org/2000/svg" width="256" height="256">
<path d="M0 0 C24.37185188 20.44661633 40.33207467 48.36749049 43.859375 80.19335938 C46.53364802 111.12083158 39.20326367 142.66774836 19.8203125 167.3828125 C18.26568414 169.15836174 16.67949574 170.90655246 15.0703125 172.6328125 C14.57047852 173.1788916 14.07064453 173.7249707 13.55566406 174.28759766 C-8.00761606 197.66178086 -37.45668108 211.56402721 -69.328125 212.91796875 C-101.87828037 213.72209874 -132.63928235 203.53447942 -156.6875 181.1875 C-180.10069159 158.82688153 -193.46164592 128.87420645 -194.28149414 96.4519043 C-194.52586122 66.74972893 -185.47835913 36.67651132 -164.9296875 14.6328125 C-164.42985352 14.0867334 -163.93001953 13.5406543 -163.41503906 12.97802734 C-121.21128497 -32.77003485 -49.13895251 -38.42746422 0 0 Z " fill="#C80F1F" transform="translate(202.9296875,36.3671875)"/>
<path d="M0 0 C24.37185188 20.44661633 40.33207467 48.36749049 43.859375 80.19335938 C46.53364802 111.12083158 39.20326367 142.66774836 19.8203125 167.3828125 C18.26568414 169.15836174 16.67949574 170.90655246 15.0703125 172.6328125 C14.57047852 173.1788916 14.07064453 173.7249707 13.55566406 174.28759766 C-8.00761606 197.66178086 -37.45668108 211.56402721 -69.328125 212.91796875 C-101.87828037 213.72209874 -132.63928235 203.53447942 -156.6875 181.1875 C-180.10069159 158.82688153 -193.46164592 128.87420645 -194.28149414 96.4519043 C-194.52586122 66.74972893 -185.47835913 36.67651132 -164.9296875 14.6328125 C-164.42985352 14.0867334 -163.93001953 13.5406543 -163.41503906 12.97802734 C-121.21128497 -32.77003485 -49.13895251 -38.42746422 0 0 Z M-154.2734375 19.80859375 C-155.97930022 21.68745669 -157.55081963 23.49946975 -158.9296875 25.6328125 C-158.7234375 26.4371875 -158.5171875 27.2415625 -158.3046875 28.0703125 C-158.1809375 28.9159375 -158.0571875 29.7615625 -157.9296875 30.6328125 C-160.1796875 33.1328125 -160.1796875 33.1328125 -162.9296875 35.6328125 C-170.02914518 45.98618828 -174.0094625 57.34337247 -175.9296875 69.6328125 C-174.4446875 69.1378125 -174.4446875 69.1378125 -172.9296875 68.6328125 C-172.64759174 72.39408926 -172.92371169 74.61881159 -174.421875 78.12890625 C-176.48232975 83.43349422 -176.33296325 88.57084678 -176.2421875 94.1953125 C-176.24541016 95.19755859 -176.24863281 96.19980469 -176.25195312 97.23242188 C-176.21175454 102.78348146 -175.70466409 107.38073625 -173.9296875 112.6328125 C-173.55143031 114.29417739 -173.19446767 115.96065835 -172.8671875 117.6328125 C-172.61775391 118.89931641 -172.61775391 118.89931641 -172.36328125 120.19140625 C-171.97846625 122.3581574 -171.68541068 124.51044957 -171.4296875 126.6953125 C-171.2646875 127.6646875 -171.0996875 128.6340625 -170.9296875 129.6328125 C-170.2696875 129.9628125 -169.6096875 130.2928125 -168.9296875 130.6328125 C-168.52239522 132.95437847 -168.18530073 135.2896912 -167.9296875 137.6328125 C-167.2696875 137.6328125 -166.6096875 137.6328125 -165.9296875 137.6328125 C-166.0121875 138.5196875 -166.0946875 139.4065625 -166.1796875 140.3203125 C-165.87445166 144.36468735 -164.57880714 145.66258745 -161.9296875 148.6328125 C-161.5996875 149.6228125 -161.2696875 150.6128125 -160.9296875 151.6328125 C-159.9396875 151.6328125 -158.9496875 151.6328125 -157.9296875 151.6328125 C-157.8059375 152.2721875 -157.6821875 152.9115625 -157.5546875 153.5703125 C-157.3484375 154.2509375 -157.1421875 154.9315625 -156.9296875 155.6328125 C-156.2696875 155.9628125 -155.6096875 156.2928125 -154.9296875 156.6328125 C-154.3109375 157.7465625 -154.3109375 157.7465625 -153.6796875 158.8828125 C-150.99939299 163.09470387 -147.744717 166.02780267 -142.9296875 167.6328125 C-142.5996875 168.6228125 -142.2696875 169.6128125 -141.9296875 170.6328125 C-140.33166404 172.00243285 -140.33166404 172.00243285 -138.4296875 173.1953125 C-135.03045086 175.43128578 -135.03045086 175.43128578 -133.9296875 177.6328125 C-132.6096875 177.6328125 -131.2896875 177.6328125 -129.9296875 177.6328125 C-129.9296875 178.2928125 -129.9296875 178.9528125 -129.9296875 179.6328125 C-129.2696875 179.6328125 -128.6096875 179.6328125 -127.9296875 179.6328125 C-127.9296875 180.2928125 -127.9296875 180.9528125 -127.9296875 181.6328125 C-126.7540625 182.2309375 -125.5784375 182.8290625 -124.3671875 183.4453125 C-123.70589844 183.78175781 -123.04460937 184.11820313 -122.36328125 184.46484375 C-98.15885134 196.08141605 -71.20586518 199.72684294 -45.3046875 191.4453125 C-38.28297026 188.97133958 -32.1950497 185.61109843 -25.9296875 181.6328125 C-24.09922124 180.52389933 -22.26604328 179.41944516 -20.4296875 178.3203125 C-19.65625 177.84980469 -18.8828125 177.37929687 -18.0859375 176.89453125 C-15.9296875 175.6328125 -15.9296875 175.6328125 -13.9609375 174.77734375 C-8.81848082 171.8797672 -5.0801258 166.60318038 -1.3046875 162.1328125 C-0.82773438 161.57722656 -0.35078125 161.02164063 0.140625 160.44921875 C2.79123811 157.32002271 5.04534067 154.216399 7.0703125 150.6328125 C7.7303125 149.6428125 8.3903125 148.6528125 9.0703125 147.6328125 C9.0703125 146.6428125 9.0703125 145.6528125 9.0703125 144.6328125 C9.65683594 144.61347656 10.24335938 144.59414062 10.84765625 144.57421875 C14.36969727 143.08245797 15.20980762 139.90536836 16.6328125 136.5703125 C16.93727295 135.88291992 17.2417334 135.19552734 17.55541992 134.48730469 C18.40977543 132.54225806 19.24258645 130.58930451 20.0703125 128.6328125 C20.41578125 127.84519531 20.76125 127.05757812 21.1171875 126.24609375 C26.71148124 112.63140949 26.13005056 96.61785581 26.1953125 82.1328125 C26.20232178 81.04685791 26.20232178 81.04685791 26.20947266 79.93896484 C26.25416631 76.16004104 26.25416631 76.16004104 25.0703125 72.6328125 C24.91500482 70.94961305 24.7626188 69.26606834 24.62841797 67.58105469 C23.39722753 53.64069577 17.73566675 42.27447627 9.671875 30.98828125 C8.0703125 28.6328125 8.0703125 28.6328125 7.0703125 25.6328125 C5.44311065 23.92759413 3.77083401 22.26492222 2.0703125 20.6328125 C1.338125 19.85421875 0.6059375 19.075625 -0.1484375 18.2734375 C-6.4318102 11.68880721 -13.22237818 6.41269072 -20.9296875 1.6328125 C-21.49252441 1.27944824 -22.05536133 0.92608398 -22.63525391 0.56201172 C-65.72064003 -25.9398423 -119.91080938 -14.91804526 -154.2734375 19.80859375 Z " fill="#000000" transform="translate(202.9296875,36.3671875)"/>
<path d="M0 0 C1.21171875 0.32871094 2.4234375 0.65742188 3.671875 0.99609375 C19.44887673 5.72592103 32.57022282 14.37557606 45 25 C46.10214844 25.93005859 46.10214844 25.93005859 47.2265625 26.87890625 C64.60721248 42.86481271 76.76922063 68.37723068 78.17700195 91.96582031 C78.46815847 106.75332357 78.60678974 120.83015018 74 135 C73.68651611 135.97018066 73.68651611 135.97018066 73.36669922 136.95996094 C64.55520989 163.16341608 45.38710635 185.14349042 21.00488281 198.05664062 C-2.43596011 209.67963071 -30.66799946 213.23324119 -56 206 C-56.99128906 205.73316406 -57.98257813 205.46632812 -59.00390625 205.19140625 C-86.98880179 196.80711664 -108.81025299 177.38008223 -122.89282227 152.13916016 C-126.52348564 145.34547381 -128.94229284 138.43195411 -131 131 C-131.31839844 129.98808594 -131.63679688 128.97617188 -131.96484375 127.93359375 C-138.70310594 103.12312607 -134.13728709 75.06513645 -122.19921875 52.61328125 C-119.32795531 47.61470058 -116.28813371 42.73491255 -113 38 C-112.01 38.66 -111.02 39.32 -110 40 C-110.33 40.99 -110.66 41.98 -111 43 C-111.66 43 -112.32 43 -113 43 C-113.268125 43.556875 -113.53625 44.11375 -113.8125 44.6875 C-115 47 -115 47 -116.3125 49.125 C-121.72935335 58.35371311 -125.53599927 67.61599693 -128 78 C-128.33 78.99 -128.66 79.98 -129 81 C-127.68 80.01 -126.36 79.02 -125 78 C-124.75353429 82.60069319 -124.67385551 85.22220515 -126.4921875 89.55859375 C-128.56841002 94.83491643 -128.40291798 99.96020167 -128.3125 105.5625 C-128.31572266 106.56474609 -128.31894531 107.56699219 -128.32226562 108.59960938 C-128.28207481 114.14959549 -127.78082497 118.75020744 -126 124 C-124.61681517 129.73765558 -123.74324412 135.09461473 -124 141 C-123.01 141.33 -122.02 141.66 -121 142 C-121 144.31 -121 146.62 -121 149 C-120.34 149 -119.68 149 -119 149 C-118.01 152.465 -118.01 152.465 -117 156 C-116.34 155.67 -115.68 155.34 -115 155 C-114.67 157.64 -114.34 160.28 -114 163 C-113.01 163 -112.02 163 -111 163 C-110.896875 163.639375 -110.79375 164.27875 -110.6875 164.9375 C-110.460625 165.618125 -110.23375 166.29875 -110 167 C-109.01 167.33 -108.02 167.66 -107 168 C-106.319375 169.1446875 -106.319375 169.1446875 -105.625 170.3125 C-103.05422462 174.56416698 -99.49456433 177.00241585 -95 179 C-95 179.99 -95 180.98 -95 182 C-94.4225 182.268125 -93.845 182.53625 -93.25 182.8125 C-90.94449957 184.02929189 -88.97943808 185.30333879 -87 187 C-87 187.66 -87 188.32 -87 189 C-85.68 189 -84.36 189 -83 189 C-83 189.66 -83 190.32 -83 191 C-82.34 191 -81.68 191 -81 191 C-81 191.66 -81 192.32 -81 193 C-80.15501953 193.19142578 -80.15501953 193.19142578 -79.29296875 193.38671875 C-73.42407192 194.95642369 -67.82578544 197.60437121 -62.3125 200.125 C-41.59783806 209.33151642 -15.5985768 207.88091048 5.39453125 200.484375 C10.95352814 198.19573056 15.93711015 195.21733922 21 192 C22.85094613 190.86970913 24.704931 189.74437323 26.5625 188.625 C27.74005859 187.90183594 27.74005859 187.90183594 28.94140625 187.1640625 C31 186 31 186 34 185 C35.36639342 183.3603279 36.6949419 181.68889872 38 180 C39.66666667 178.33333333 41.33333333 176.66666667 43 175 C47.71233305 169.8923719 51.57131419 165.09548592 54.5 158.75 C56 156 56 156 59 155 C60.30233861 152.65283064 61.42501998 150.38575751 62.5 147.9375 C62.80897217 147.25010742 63.11794434 146.56271484 63.4362793 145.85449219 C64.30398493 143.90843472 65.15486555 141.95594367 66 140 C66.34675781 139.21238281 66.69351563 138.42476562 67.05078125 137.61328125 C72.62418274 123.97988375 72.05968379 107.99708936 72.125 93.5 C72.13200928 92.41404541 72.13200928 92.41404541 72.13916016 91.30615234 C72.18385381 87.52722854 72.18385381 87.52722854 71 84 C70.84469232 82.31680055 70.6923063 80.63325584 70.55810547 78.94824219 C69.32463788 64.9820998 63.67793651 53.6005768 55.50390625 42.35546875 C54 40 54 40 54 37 C53.01 36.67 52.02 36.34 51 36 C49.4921875 34.43359375 49.4921875 34.43359375 47.875 32.4375 C32.12506044 14.03528372 8.24357986 1.78593008 -15.85424805 -0.84545898 C-20.15070413 -1.15489768 -24.44442538 -1.14579629 -28.75 -1.125 C-30.19947021 -1.12209961 -30.19947021 -1.12209961 -31.67822266 -1.11914062 C-38.49752599 -1.07791562 -45.22269635 -0.8006941 -52 0 C-38.93873578 -7.83675853 -13.87983236 -3.98641697 0 0 Z " fill="#650001" transform="translate(156,25)"/>
<path d="M0 0 C0.66 0 1.32 0 2 0 C3.65 7.26 5.3 14.52 7 22 C19.87 22.495 19.87 22.495 33 23 C33 23.66 33 24.32 33 25 C30.80243449 26.70690474 28.60441885 28.30431436 26.3125 29.875 C25.05764575 30.74603168 23.80372357 31.61840783 22.55078125 32.4921875 C21.94830566 32.91209961 21.34583008 33.33201172 20.72509766 33.76464844 C18.41079836 35.42193041 16.19824819 37.19264489 14 39 C15.13561118 45.75389808 16.92167509 52.00680138 19.29296875 58.43359375 C20 61 20 61 19 64 C18.10796875 63.16855469 17.2159375 62.33710937 16.296875 61.48046875 C15.11467608 60.38271261 13.93237926 59.2850619 12.75 58.1875 C12.16347656 57.64029297 11.57695313 57.09308594 10.97265625 56.52929688 C9.83198198 55.47193027 8.68437067 54.42198833 7.52929688 53.38037109 C6.29838118 52.26932426 5.0905869 51.13268936 3.890625 49.98828125 C2.0012716 48.74817545 2.0012716 48.74817545 -0.3046875 49.46484375 C-3.87601788 51.49894932 -6.95568666 53.95699082 -10.125 56.5625 C-11.35364318 57.5676374 -12.58530232 58.56910233 -13.8203125 59.56640625 C-14.35930176 60.00927979 -14.89829102 60.45215332 -15.45361328 60.90844727 C-17 62 -17 62 -20 63 C-18.45250606 56.51369563 -16.85915227 50.16486469 -14.453125 43.9375 C-13.89249157 41.54030877 -14.17895668 40.31317149 -15 38 C-16.38487839 36.53600274 -16.38487839 36.53600274 -18.16015625 35.34375 C-18.78857422 34.87839844 -19.41699219 34.41304687 -20.06445312 33.93359375 C-21.39906438 32.97601344 -22.73500955 32.02028959 -24.07226562 31.06640625 C-24.69939453 30.60105469 -25.32652344 30.13570312 -25.97265625 29.65625 C-26.55281494 29.24181641 -27.13297363 28.82738281 -27.73071289 28.40039062 C-29 27 -29 27 -29 23 C-21.74 23 -14.48 23 -7 23 C-6.5875 21.4325 -6.175 19.865 -5.75 18.25 C-4.07376989 12.08243564 -2.07743018 6.04247458 0 0 Z " fill="#EDE601" transform="translate(74,38)"/>
<path d="M0 0 C3.46524188 3.20509201 6.74878681 6.57932203 10 10 C10.99670151 11.00328764 11.99521158 12.00481146 13 13 C12.67 13.99 12.34 14.98 12 16 C7.97211566 12.57201333 4.09481244 9.1336813 0.5 5.25 C-3.36021682 1.32043797 -7.6677464 -1.7605308 -12.1875 -4.875 C-12.87714844 -5.35163086 -13.56679687 -5.82826172 -14.27734375 -6.31933594 C-17.77759396 -8.68166566 -21.0497893 -10.46752655 -25 -12 C-25.495 -12.99 -25.495 -12.99 -26 -14 C-50.48796612 -24.42114289 -80.68917364 -25.91870588 -105.55859375 -16.046875 C-106.36425781 -15.70140625 -107.16992188 -15.3559375 -108 -15 C-108.85722656 -14.63390625 -109.71445313 -14.2678125 -110.59765625 -13.890625 C-113.42982078 -12.65183354 -116.23507257 -11.38246372 -119 -10 C-118.505 -8.515 -118.505 -8.515 -118 -7 C-117.26136719 -7.39832031 -116.52273437 -7.79664062 -115.76171875 -8.20703125 C-108.96631882 -11.75583604 -102.48103146 -14.32118585 -95 -16 C-94.34 -15.34 -93.68 -14.68 -93 -14 C-98 -11 -98 -11 -100.35546875 -9.67578125 C-103.23572125 -7.85062863 -105.6136516 -5.80398936 -108.125 -3.5 C-108.97320312 -2.7265625 -109.82140625 -1.953125 -110.6953125 -1.15625 C-112.05882757 0.11944546 -113.39864909 1.42275346 -114.6796875 2.78125 C-116 4 -116 4 -118 4 C-118.508783 2.44033782 -119.00663469 0.87710759 -119.5 -0.6875 C-119.7784375 -1.55761719 -120.056875 -2.42773438 -120.34375 -3.32421875 C-120.99850805 -5.99391677 -121.11831495 -8.26396684 -121 -11 C-121.66 -11 -122.32 -11 -123 -11 C-123.10183594 -10.01902344 -123.20367187 -9.03804687 -123.30859375 -8.02734375 C-123.93794692 -3.62187155 -125.43757469 0.31513982 -127.0625 4.4375 C-128.031875 6.933125 -129.00125 9.42875 -130 12 C-136.93 12 -143.86 12 -151 12 C-140.92931518 -4.78447471 -118.51470093 -18.63695589 -99.640625 -23.48046875 C-63.68702918 -30.55417917 -28.12993943 -24.19975385 0 0 Z " fill="#CD0000" transform="translate(197,49)"/>
<path d="M0 0 C1.21171875 0.32871094 2.4234375 0.65742188 3.671875 0.99609375 C19.44887673 5.72592103 32.57022282 14.37557606 45 25 C45.73476562 25.62003906 46.46953125 26.24007812 47.2265625 26.87890625 C64.60721248 42.86481271 76.76922063 68.37723068 78.17700195 91.96582031 C78.61782603 114.35476582 77.29739636 135.55040873 65 155 C64.67 154.34 64.34 153.68 64 153 C64.81896296 150.86474021 65.73281079 148.76562493 66.6875 146.6875 C78.55149996 120.01761391 79.21080519 91.32981092 69 64 C68.00375234 61.99812823 67.00468383 59.99765122 66 58 C66 57.34 66 56.68 66 56 C64.515 55.505 64.515 55.505 63 55 C61.5 52.63671875 61.5 52.63671875 60 49.6875 C58.5658885 46.89023564 57.24473486 44.31441631 55.3125 41.83203125 C54 40 54 40 54 37 C52.515 36.505 52.515 36.505 51 36 C49.4921875 34.43359375 49.4921875 34.43359375 47.875 32.4375 C32.12506044 14.03528372 8.24357986 1.78593008 -15.85424805 -0.84545898 C-20.15070413 -1.15489768 -24.44442538 -1.14579629 -28.75 -1.125 C-29.71631348 -1.12306641 -30.68262695 -1.12113281 -31.67822266 -1.11914062 C-38.49752599 -1.07791562 -45.22269635 -0.8006941 -52 0 C-38.93873578 -7.83675853 -13.87983236 -3.98641697 0 0 Z " fill="#610204" transform="translate(156,25)"/>
<path d="M0 0 C-1.17175781 0.36351563 -2.34351563 0.72703125 -3.55078125 1.1015625 C-7.64482966 2.39297374 -11.69798273 3.78257917 -15.74316406 5.21923828 C-17.61052262 5.86525869 -19.50226144 6.44031801 -21.3984375 6.99609375 C-25.59812042 8.60185487 -28.09464555 10.13963366 -30.11279297 14.28662109 C-32.27424882 19.72426447 -33.93468413 25.28388822 -35.41845703 30.94042969 C-36 33 -36 33 -37 35 C-43.93 35 -50.86 35 -58 35 C-47.49899297 17.49832162 -25.25472262 4.96162259 -6.015625 -0.72265625 C-3.73224565 -1.03684217 -2.20178368 -0.60781392 0 0 Z " fill="#A10000" transform="translate(104,26)"/>
<path d="M0 0 C1.43101048 2.86202096 0.5026254 4.40606916 -0.375 7.4375 C-0.65085937 8.40558594 -0.92671875 9.37367187 -1.2109375 10.37109375 C-1.7769232 12.25677877 -2.37741283 14.1322385 -3 16 C-1.68 15.01 -0.36 14.02 1 13 C1.24646571 17.60069319 1.32614449 20.22220515 -0.4921875 24.55859375 C-2.56841002 29.83491643 -2.40291798 34.96020167 -2.3125 40.5625 C-2.31572266 41.56474609 -2.31894531 42.56699219 -2.32226562 43.59960938 C-2.28207481 49.14959549 -1.78082497 53.75020744 0 59 C1.38318483 64.73765558 2.25675588 70.09461473 2 76 C2.99 76.33 3.98 76.66 5 77 C5 79.31 5 81.62 5 84 C5.66 84 6.32 84 7 84 C7 85.65 7 87.3 7 89 C-1.7470215 81.57671173 -3.8652258 65.68481855 -6 55 C-6.19464844 54.05898437 -6.38929687 53.11796875 -6.58984375 52.1484375 C-8.80213453 35.16647207 -7.04306653 17.05417072 -1 1 C-0.67 0.67 -0.34 0.34 0 0 Z " fill="#6D0000" transform="translate(30,90)"/>
<path d="M0 0 C1.9375 0.375 1.9375 0.375 4 1 C4.33 1.66 4.66 2.32 5 3 C4.67 3.99 4.34 4.98 4 6 C4.66 6.33 5.32 6.66 6 7 C5.60167969 7.99257812 5.20335937 8.98515625 4.79296875 10.0078125 C1.28791045 18.9305822 -1.31394942 27.53445291 -3 37 C-4.9375 36.25 -4.9375 36.25 -7 35 C-10.90006604 25.2078987 -6.74639581 14.13909513 -3 5 C-2.0422086 3.30872432 -1.05730447 1.6309154 0 0 Z " fill="#BA0005" transform="translate(41,83)"/>
<path d="M0 0 C0.99 0.66 1.98 1.32 3 2 C-2 5 -2 5 -4.35546875 6.32421875 C-7.23572125 8.14937137 -9.6136516 10.19601064 -12.125 12.5 C-12.97320312 13.2734375 -13.82140625 14.046875 -14.6953125 14.84375 C-16.05882757 16.11944546 -17.39864909 17.42275346 -18.6796875 18.78125 C-20 20 -20 20 -22 20 C-23.20605187 12.76368876 -23.20605187 12.76368876 -22.44140625 9.9296875 C-20.26413828 7.01486263 -17.65161266 6.23051651 -14.3125 4.875 C-12.51232422 4.12863281 -12.51232422 4.12863281 -10.67578125 3.3671875 C-7.12009513 2.04466875 -3.71100584 0.79874128 0 0 Z " fill="#C0000C" transform="translate(101,33)"/>
<path d="M0 0 C7.26 0 14.52 0 22 0 C20.68 0.99 19.36 1.98 18 3 C16.7043002 4.52481745 15.45428808 6.08950236 14.25 7.6875 C13.32960938 8.89986328 13.32960938 8.89986328 12.390625 10.13671875 C11.93171875 10.75160156 11.4728125 11.36648437 11 12 C6.72545575 9.2520787 2.85873847 6.30749011 -1 3 C-0.67 2.01 -0.34 1.02 0 0 Z " fill="#DED900" transform="translate(45,61)"/>
<path d="M0 0 C12.30712246 0.99076206 23.8869757 12.21339922 31.87890625 21.0859375 C33.26054301 22.71726765 34.63141838 24.35770205 36 26 C36.66 26.33 37.32 26.66 38 27 C37.505 28.485 37.505 28.485 37 30 C32.97211566 26.57201333 29.09481244 23.1336813 25.5 19.25 C21.63978318 15.32043797 17.3322536 12.2394692 12.8125 9.125 C12.12285156 8.64836914 11.43320313 8.17173828 10.72265625 7.68066406 C7.25408681 5.33971579 3.99615092 3.35015585 0 2 C0 1.34 0 0.68 0 0 Z " fill="#B50000" transform="translate(172,35)"/>
<path d="M0 0 C0.99 0.66 1.98 1.32 3 2 C2.67 2.99 2.34 3.98 2 5 C1.34 5 0.68 5 0 5 C-0.268125 5.556875 -0.53625 6.11375 -0.8125 6.6875 C-2 9 -2 9 -3.3125 11.125 C-6.28238694 16.18480738 -9.1419774 21.42593221 -11 27 C-11.66 27.33 -12.32 27.66 -13 28 C-17.29074695 38.11018108 -18.49673991 49.21524769 -20 60 C-20.33 60 -20.66 60 -21 60 C-21.15771755 53.84901571 -20.76164956 48.36229051 -19.375 42.375 C-19.19751221 41.6001123 -19.02002441 40.82522461 -18.8371582 40.02685547 C-15.29805546 25.35091563 -8.59129129 12.37145946 0 0 Z " fill="#500305" transform="translate(43,63)"/>
<path d="M0 0 C0.66 0 1.32 0 2 0 C2.33 1.65 2.66 3.3 3 5 C5.97 5.495 5.97 5.495 9 6 C9 6.66 9 7.32 9 8 C8.01 8.66 7.02 9.32 6 10 C5.74984127 13.58357241 5.74984127 13.58357241 6 17 C5.0925 16.62875 4.185 16.2575 3.25 15.875 C0.11902985 14.69640701 0.11902985 14.69640701 -2.375 15.875 C-2.91125 16.24625 -3.4475 16.6175 -4 17 C-3.67 14.69 -3.34 12.38 -3 10 C-5.475 9.01 -5.475 9.01 -8 8 C-8 7.34 -8 6.68 -8 6 C-5.69 6 -3.38 6 -1 6 C-0.67 4.02 -0.34 2.04 0 0 Z " fill="#F8E40B" transform="translate(151,101)"/>
<path d="M0 0 C0.66 0 1.32 0 2 0 C2.33 1.65 2.66 3.3 3 5 C4.65 5.33 6.3 5.66 8 6 C8 6.66 8 7.32 8 8 C7.360625 8.20625 6.72125 8.4125 6.0625 8.625 C3.65074923 9.89538209 3.65074923 9.89538209 3.25 13.125 C3.1675 14.07375 3.085 15.0225 3 16 C2.34 16 1.68 16 1 16 C0.34 15.01 -0.32 14.02 -1 13 C-2.98 13.33 -4.96 13.66 -7 14 C-6.608125 13.113125 -6.21625 12.22625 -5.8125 11.3125 C-4.62820892 7.99696026 -4.62820892 7.99696026 -6.375 5.125 C-7.179375 4.073125 -7.179375 4.073125 -8 3 C-5.69 3.33 -3.38 3.66 -1 4 C-0.67 2.68 -0.34 1.36 0 0 Z " fill="#F7E509" transform="translate(123,134)"/>
<path d="M0 0 C0.66 0 1.32 0 2 0 C1.67 1.98 1.34 3.96 1 6 C2.65 6.33 4.3 6.66 6 7 C6 7.66 6 8.32 6 9 C4.35 9.33 2.7 9.66 1 10 C1 12.31 1 14.62 1 17 C0.34 17 -0.32 17 -1 17 C-1.66 15.68 -2.32 14.36 -3 13 C-4.98 13 -6.96 13 -9 13 C-8.443125 11.6696875 -8.443125 11.6696875 -7.875 10.3125 C-6.89215772 6.59173995 -7.23937836 5.32561865 -9 2 C-6.69 2.33 -4.38 2.66 -2 3 C-1.34 2.01 -0.68 1.02 0 0 Z " fill="#E5CD01" transform="translate(142,32)"/>
<path d="M0 0 C0.86625 0.5259375 0.86625 0.5259375 1.75 1.0625 C4.41409176 2.17253823 5.32001932 1.8645099 8 1 C8.99 1 9.98 1 11 1 C10.7525 1.7425 10.505 2.485 10.25 3.25 C10.1675 4.1575 10.085 5.065 10 6 C11.83358335 8.33454661 11.83358335 8.33454661 14 10 C11.69 10 9.38 10 7 10 C6.67 11.98 6.34 13.96 6 16 C5.34 16 4.68 16 4 16 C4 14.02 4 12.04 4 10 C1.69 10 -0.62 10 -3 10 C-2.505 9.649375 -2.01 9.29875 -1.5 8.9375 C0.73063966 6.05625711 0.19980621 3.52990974 0 0 Z " fill="#F4E506" transform="translate(153,68)"/>
<path d="M0 0 C-1.11375 0.32871094 -2.2275 0.65742188 -3.375 0.99609375 C-18.69027363 5.69678784 -31.92992683 12.33200603 -44 23 C-44.91007812 23.79019531 -45.82015625 24.58039062 -46.7578125 25.39453125 C-51.82685944 29.79562866 -51.82685944 29.79562866 -56 35 C-56.66 34.67 -57.32 34.34 -58 34 C-47.42769966 21.21805489 -18.78034513 -5.72197675 0 0 Z " fill="#630306" transform="translate(104,26)"/>
<path d="M0 0 C0.33 0 0.66 0 1 0 C1.24433992 4.5610119 1.36396461 7.16591443 -0.5 11.4375 C-2.80798357 17.28630309 -2.32018408 23.30807638 -2.1875 29.5 C-2.17396484 30.70398438 -2.16042969 31.90796875 -2.14648438 33.1484375 C-2.11135352 36.09942973 -2.06215996 39.04947412 -2 42 C-2.66 42 -3.32 42 -4 42 C-4 28.8 -4 15.6 -4 2 C-3.01 2 -2.02 2 -1 2 C-0.67 1.34 -0.34 0.68 0 0 Z " fill="#820000" transform="translate(30,103)"/>
<path d="M0 0 C0.66 0.33 1.32 0.66 2 1 C1.60167969 1.99257812 1.20335937 2.98515625 0.79296875 4.0078125 C-2.71208955 12.9305822 -5.31394942 21.53445291 -7 31 C-8.32 30.01 -9.64 29.02 -11 28 C-10.608125 26.845 -10.21625 25.69 -9.8125 24.5 C-8.74449763 21.33142424 -7.7405611 18.15151908 -6.79296875 14.9453125 C-6.57987061 14.23439453 -6.36677246 13.52347656 -6.1472168 12.79101562 C-5.72031829 11.36233077 -5.30102866 9.93134722 -4.88989258 8.49804688 C-3.82745902 4.96938668 -2.99690543 2.28252681 0 0 Z " fill="#AC0008" transform="translate(45,89)"/>
<path d="M0 0 C0.66 0.33 1.32 0.66 2 1 C0.68 4.63 -0.64 8.26 -2 12 C-5.3 12 -8.6 12 -12 12 C-8.90644332 6.58627581 -5.11672973 3.50222763 0 0 Z " fill="#C10107" transform="translate(69,49)"/>
<path d="M0 0 C0.99 0.33 1.98 0.66 3 1 C-8.90613958 20.16254417 -8.90613958 20.16254417 -16 27 C-16.66 27 -17.32 27 -18 27 C-18 27.66 -18 28.32 -18 29 C-18.99 29 -19.98 29 -21 29 C-19.72513551 25.87078715 -17.98057404 23.87529885 -15.5625 21.55078125 C-13.59321916 19.59627002 -11.73351686 17.56008394 -9.875 15.5 C-9.21242187 14.7678125 -8.54984375 14.035625 -7.8671875 13.28125 C-4.54367118 9.2207196 -2.29470494 4.69868155 0 0 Z " fill="#7A0000" transform="translate(212,181)"/>
<path d="M0 0 C0.66 0 1.32 0 2 0 C3.13734464 4.01645137 4.01598564 7.81176244 4 12 C2.18561709 14.85490798 0.01748096 16.504379 -3 18 C-3.66 18 -4.32 18 -5 18 C-3.53889252 11.93078433 -1.83402304 5.96668828 0 0 Z " fill="#DCD100" transform="translate(74,38)"/>
<path d="M0 0 C7.26 0 14.52 0 22 0 C22 0.33 22 0.66 22 1 C20.67935547 1.02126953 20.67935547 1.02126953 19.33203125 1.04296875 C11.8547218 0.99990847 11.8547218 0.99990847 5.6875 4.5625 C5.130625 5.366875 4.57375 6.17125 4 7 C2.35 5.68 0.7 4.36 -1 3 C-0.67 2.01 -0.34 1.02 0 0 Z " fill="#BD9B00" transform="translate(45,61)"/>
<path d="M0 0 C1.98 1.32 3.96 2.64 6 4 C4.85331791 7.44004627 4.12056696 8.26635169 1 10 C-1.75 9.6875 -1.75 9.6875 -4 9 C-3.35455571 5.51460083 -1.89865603 2.97180943 0 0 Z " fill="#BA0206" transform="translate(49,68)"/>
<path d="M0 0 C0.625 1.8125 0.625 1.8125 1 4 C0.01 5.485 0.01 5.485 -1 7 C-1 6.34 -1 5.68 -1 5 C-2.98 5.66 -4.96 6.32 -7 7 C-7 7.66 -7 8.32 -7 9 C-9.59240819 10.8597711 -12.14410847 12.57205423 -15 14 C-13.49005986 10.19529207 -11.26909697 8.35175478 -8.0625 5.875 C-7.18722656 5.19179688 -6.31195313 4.50859375 -5.41015625 3.8046875 C-3.64538486 2.48325414 -1.83440281 1.22293521 0 0 Z " fill="#B70200" transform="translate(73,38)"/>
<path d="M0 0 C1.27396229 3.82188686 0.47488806 4.70109238 -1.25 8.25 C-2.79477544 11.47610561 -4.30395449 14.67607905 -5.625 18 C-6.88687006 20.75317103 -7.84606236 22.00076506 -10 24 C-8.5072479 18.54774942 -7.03473606 13.80499875 -4 9 C-3.43392821 7.59290727 -2.89372248 6.17522778 -2.375 4.75 C-1 1 -1 1 0 0 Z " fill="#600001" transform="translate(225,164)"/>
<path d="M0 0 C0.99 0.66 1.98 1.32 3 2 C2.67 2.99 2.34 3.98 2 5 C1.34 5 0.68 5 0 5 C-0.4021875 5.8353125 -0.4021875 5.8353125 -0.8125 6.6875 C-4.41818182 13.70909091 -4.41818182 13.70909091 -7 15 C-5.67231025 9.20644472 -3.33455096 4.9000081 0 0 Z " fill="#760302" transform="translate(43,63)"/>
<path d="M0 0 C1 2 1 2 0.00390625 5.2578125 C-0.46889984 6.5497052 -0.94971969 7.83868638 -1.4375 9.125 C-1.68048828 9.78371094 -1.92347656 10.44242188 -2.17382812 11.12109375 C-2.77578321 12.74991338 -3.38702412 14.37529575 -4 16 C-4.99 16 -5.98 16 -7 16 C-5.26017005 10.18738629 -3.1889511 5.16830006 0 0 Z " fill="#5F0204" transform="translate(36,74)"/>
<path d="M0 0 C4.8 2.46153846 4.8 2.46153846 5.8125 5.1875 C5.874375 5.785625 5.93625 6.38375 6 7 C3.36 6.67 0.72 6.34 -2 6 C-1.49396008 3.83125748 -1.00016187 2.00032373 0 0 Z " fill="#C60713" transform="translate(55,73)"/>
<path d="M0 0 C-0.556875 0.268125 -1.11375 0.53625 -1.6875 0.8125 C-4.19712523 2.10122647 -6.59334236 3.52926478 -9 5 C-8.79375 6.11375 -8.5875 7.2275 -8.375 8.375 C-8.25125 9.57125 -8.1275 10.7675 -8 12 C-8.66 12.66 -9.32 13.32 -10 14 C-10.66 10.37 -11.32 6.74 -12 3 C-4.71428571 -1.71428571 -4.71428571 -1.71428571 0 0 Z " fill="#BE0A00" transform="translate(87,34)"/>
<path d="M0 0 C0.66 0 1.32 0 2 0 C0.55053895 3.33973757 -1.28172388 5.52304659 -3.875 8.0625 C-4.55304688 8.73410156 -5.23109375 9.40570313 -5.9296875 10.09765625 C-7.8707937 11.88127647 -9.8619601 13.46118653 -12 15 C-12.66 14.67 -13.32 14.34 -14 14 C-10.40020956 10.28771611 -6.61652481 6.89483588 -2.671875 3.55078125 C-0.89673637 2.08649533 -0.89673637 2.08649533 0 0 Z " fill="#490204" transform="translate(206,197)"/>
<path d="M0 0 C0.66 0 1.32 0 2 0 C2.33 2.64 2.66 5.28 3 8 C1.02 9.32 -0.96 10.64 -3 12 C-2.01 8.04 -1.02 4.08 0 0 Z " fill="#D3BC00" transform="translate(74,38)"/>
<path d="M0 0 C0.99 0.33 1.98 0.66 3 1 C1.92898814 2.79905924 0.84270085 4.58903096 -0.25 6.375 C-0.85328125 7.37273437 -1.4565625 8.37046875 -2.078125 9.3984375 C-3.96358779 11.9507103 -5.07226224 12.92476887 -8 14 C-7.51080078 13.23816406 -7.51080078 13.23816406 -7.01171875 12.4609375 C-4.43411123 8.40063539 -2.06715166 4.35189823 0 0 Z " fill="#920000" transform="translate(212,181)"/>
<path d="M0 0 C1 3 1 3 0.0625 5.1875 C-0.4634375 6.0846875 -0.4634375 6.0846875 -1 7 C-2.65 7 -4.3 7 -6 7 C-4.02 4.69 -2.04 2.38 0 0 Z " fill="#B3020A" transform="translate(68,54)"/>
<path d="M0 0 C3.68754757 0.49831724 5.60490662 1.10067643 8 4 C6.02 4 4.04 4 2 4 C2 3.34 2 2.68 2 2 C1.34 2 0.68 2 0 2 C0 1.34 0 0.68 0 0 Z " fill="#620000" transform="translate(84,222)"/>
<path d="M0 0 C1.65 0 3.3 0 5 0 C5.66 1.65 6.32 3.3 7 5 C3.34683329 3.75023244 2.21934164 3.32901247 0 0 Z " fill="#520103" transform="translate(64,212)"/>
<path d="M0 0 C0.99 0 1.98 0 3 0 C3.103125 0.639375 3.20625 1.27875 3.3125 1.9375 C3.539375 2.618125 3.76625 3.29875 4 4 C4.99 4.33 5.98 4.66 7 5 C6.67 5.99 6.34 6.98 6 8 C4.02 5.36 2.04 2.72 0 0 Z " fill="#650000" transform="translate(42,188)"/>
</svg>
